<?xml version="1.0" encoding="UTF-8" standalone="no"?>
<svg id="katakana_table" xmlns:rdf="http://www.w3.org/1999/02/22-rdf-syntax-ns#" xmlns="http://www.w3.org/2000/svg" height="464" width="768" version="1.0" xmlns:cc="http://web.resource.org/cc/" xmlns:dc="http://purl.org/dc/elements/1.1/">
 <metadata id="metaKatakana">
  <rdf:RDF>
   <cc:Work rdf:about="">
    <dc:format>image/svg+xml</dc:format>
    <dc:type rdf:resource="http://purl.org/dc/dcmitype/StillImage"/>
   </cc:Work>
  </rdf:RDF>
 </metadata>
 <defs id="defsKatakana"><!-- arrow ends -->
  <marker id="Arrow1Mend" refY="0" refX="0" overflow="visible" orient="auto">
   <path id="pArr1Mend" d="m0 0l5-5-17.5 5 17.5 5-5-5z" transform="matrix(-.4 0 0 -.4 -4 0)" class="arrow" stroke="blue"/>
  </marker>
 </defs>
 <style type="text/css">path.stroke /* arrow lines */
		{
			fill: none; fill-opacity: 0.75; fill-rule: evenodd;
			stroke: blue; stroke-width: 1px; stroke-linecap: butt; stroke-linejoin: miter; stroke-opacity:1;
			marker-end: url(#Arrow1Mend);
		}
		path.arrow /* heads */
		{
			font-size: 12px;
			fill-rule: evenodd;
			fill: blue;
			stroke: blue; stroke-width: 1pt;/*0.62*/ stroke-linejoin: round;
			marker-start: none;
		}
		text.number
		{
			font-size: 8px;
			fill: blue;
		}
		text.label
		{
			font-size: 22px;
		}
		text.cell
		{
			font-style: italic;
			text-transform: lowercase;
			fill: gray;
/*			display: none;*/
		}
/*		path.old
		{
			fill: gray;
		}
*/		path.rule
		{
			fill: none; fill-opacity: 0.75; fill-rule: evenodd;
			stroke: black; stroke-width: 1px; stroke-linecap: butt; stroke-linejoin: miter; stroke-opacity: 0.1;
		}
		path.rule[id*=&quot;V&quot;]
		{
			stroke-opacity: 0;
			}
		path#ruleH1, path#ruleV12
		{
			stroke-opacity: 0.8;
		}
		defs marker
		{
			overflow: visible;
		}</style>
<!-- table rules -->
 <g id="gTable"><!-- vertical rules, left to right -->
  <path id="ruleV01" d="m16.5 47.5v400" class="rule"/>
  <path id="ruleV02" d="m80.5 47v400" class="rule"/>
  <path id="ruleV03" d="m144.5 47v400" class="rule"/>
  <path id="ruleV04" d="m208.5 47v400" class="rule"/>
  <path id="ruleV05" d="m272.5 47v400" class="rule"/>
  <path id="ruleV06" d="m336.5 47v400" class="rule"/>
  <path id="ruleV07" d="m400.5 47v400" class="rule"/>
  <path id="ruleV08" d="m464.5 47v400" class="rule"/>
  <path id="ruleV09" d="m528.5 47v400" class="rule"/>
  <path id="ruleV10" d="m592.5 47v400" class="rule"/>
  <path id="ruleV11" d="m656.5 47v400" class="rule"/>
  <path id="ruleV12" d="m720.5 47v400" class="rule"/>
<!-- horizontal rules, top to bottom -->
  <path id="ruleH1" d="m16.5 47.5h64 64 64 64 64 64 64 64 64 64 64" class="rule"/>
  <path id="ruleH2" d="m16.5 127.5h704" class="rule"/>
  <path id="ruleH3" d="m16.5 207.5h704" class="rule"/>
  <path id="ruleH4" d="m16.5 287.5h704" class="rule"/>
  <path id="ruleH5" d="m16.5 367.5h704" class="rule"/>
  <path id="ruleH6" d="m16.5 447.5h704" class="rule"/>
 </g>
<!-- glyphs -->
 <text id="cellN" y="123" x="38" class="label cell">N</text>
 <g id="gN">
  <path id="pN" d="m32.4 62.32l-2.3 4.08c3.3 1.5 6.5 3.8 9.7 6.9 1.3-1.6 2.3-2.9 3.2-3.9-3.3-2.5-6.8-4.86-10.6-7.08zm29.1 6.66c-1.4 4.32-3.6 8.12-6.6 11.46-3 3.36-6.7 6-11 8.07-4.2 2.09-7.4 3.19-9.3 3.39-1.9 0.1-3.08 0.2-3.5 0.08-0.5 0.02-0.7 0.37-0.6 0.92l2.1 5.23c0.3 0.37 0.6 0.27 0.9-0.15l0.6-0.78c4.1-1.1 8.6-2.9 13.2-5.4 4.66-2.5 8.6-5.6 11.8-9.4 3.1-3.8 5.6-7.6 7.4-11.46-1.4-0.44-3.1-1.04-5-1.96z"/>
  <path id="pN1" d="m34.4 57.99l12.7 7.95" class="stroke"/>
  <text y="57.0" x="36.6" class="number">1</text>
  <path id="pN2" d="m34.7 102.5c6.5-1.1 20-9.6 24.8-12.38" class="stroke"/>
  <text y="105.3" x="27.3" class="number">2</text>
 </g>
<!-- -A -->
 <text id="cellWA" y="123" x="94" class="label cell">WA</text>
 <g id="gWA">
  <path id="pWA" d="m95.9 81.2v-16.24h29l0.06-0.16c0.14-0.1 0.24-0.1 0.44 0 0.8 0.74 1.8 1.6 3 2.6 0.4 0.42 0.4 0.9 0 1.4l-0.5 0.5c-0.2 3-0.5 5.8-1 8.5-0.5 2.6-1.7 5.38-3.8 8.4-2 2.88-4.6 5.3-7.65 7.2-3.05 1.8-6.92 3.4-11.55 4.6-0.4-1.4-1-2.9-1.9-4.5v-0.37c3.8-0.43 7-1.33 9.79-2.73 2.81-1.3 5.11-3.3 7.11-5.9 1.9-2.7 3.1-5.2 3.6-7.6 0.45-2.5 0.7-5.1 0.7-7.96h-22.9v12.26l-4.4-0.02"/>
  <path id="pWA1" d="m91.3 65l-0.33 13.57" class="stroke"/>
  <text y="68.3" x="83.4" class="number">1</text>
  <path id="pWA2" d="m98.6 61.4c0.9 0 16.36 0.3 16.36 0.25" class="stroke"/>
  <text y="58.6" x="99.0" class="number">2</text>
 </g>
 <text id="cellRA" y="123" x="160" class="label cell">RA</text>
 <g id="gRA">
  <path id="pRA" d="m165.3 58.52v4.1h22.4v-4.1h-22.4zm25.5 9.88c-0.1 0-0.2 0-0.2 0.1l-0.2 0.12h-30.4v3.98h28.4c-0.1 2-0.6 4.02-1.6 6.14-0.9 2.06-2.3 3.96-4.06 5.76-1.74 1.71-4.04 3.24-6.84 4.6-2.91 1.2-6.91 2.1-12 2.4v0.37c0.7 1.68 1.1 3.33 1.3 4.87 6.3-1.34 10.9-2.84 13.9-4.44s5.54-3.5 7.6-5.87c2.1-2.33 3.7-4.63 4.7-6.83 1-2.3 1.59-4.4 1.8-6.48l0.9-0.72c0.5-0.41 0.5-0.9 0-1.41-1.3-1.06-2.3-1.89-3.11-2.49-0.09-0.1-0.19-0.1-0.19-0.1z"/>
  <path id="pRA1" d="m165.5 54.91h16.45" class="stroke"/>
  <text y="56.2" x="159.5" class="number">1</text>
  <path id="pRA2a" d="m155 65.5h15" class="stroke"/>
  <text y="67.6" x="149.8" class="number">2</text>
  <path id="pRA2b" d="m187.98 65.5s6.92-1.3 9.12 1.33c2.3 2.67-0.3 8.7-1.2 11.46" class="stroke"/>
 </g>
 <text id="cellYA" y="123" x="226" class="label cell">YA</text>
 <g id="gYA">
  <path id="pYA" d="m233.6 60.81l4.9-0.51c0.4 0 0.53 0.2 0.4 0.65l-0.3 0.95c0.5 3.03 1.1 6 1.7 9 5.7-0.93 11.5-2 17.2-3.2l0.1-0.19c0.2-0.11 0.3-0.11 0.4 0 1.6 0.89 3.2 1.79 4.8 2.99 0.6 0.53 0.5 1-0.2 1.3l-2.2 1.1h-0.1c-4 5.61-7.4 9.8-10.37 12.6-0.83-1.2-1.96-2.3-3.33-3.3l-0.1-0.6c2.8-1.8 5.6-4.9 8.4-9.3-4.6 0.67-9.2 1.5-13.8 2.3 1.6 7.72 3.5 15.4 5.6 23.1v0.5c-1.4 0.31-3 0.8-5 1.6-2.1-10.19-3.8-18.29-5.1-24.3-4.2 0.8-8.4 1.68-12.7 2.7-0.5-1.7-1.2-3-2.2-3.98l0.1-0.47c4.7-0.65 9.34-1.35 14.03-2.05-1.43-6.36-2.23-9.7-2.53-10-0.3-0.56-0.1-0.9 0.32-0.89"/>
  <path id="pYA1a" d="m217.3 71.1l13.8-2.36" class="stroke"/>
  <path id="pYA1b" d="m256.4 65.21s6.5-0.91 9.2 1.29c5.4 4.8-1.4 11.4-3.3 13.78" class="stroke"/>
  <text y="68.3" x="215.0" class="number">1</text>
  <path id="pYA2" d="m241.9 54.9l1.9 10.9" class="stroke"/>
  <text y="57.4" x="245.0" class="number">2</text>
 </g>
 <text id="cellMA" y="123" x="288" class="label cell">MA</text>
 <g id="gMA">
  <path id="pMA" d="m284.9 65.1l35.1-1.37 0.2-0.23c0.2-0.2 0.3-0.2 0.5 0 0.9 1.1 1.9 2.2 2.95 3.3 0.35 0.6 0.32 1-0.15 1.3l-1.3 0.51c-2.1 3.59-4.3 6.59-6.7 8.99-2.3 2.3-4.9 4.7-7.7 7 2.2 1.82 4.3 3.7 6.3 5.6v0.4c-1.1 1-2.4 2.31-3.8 4-2.5-3.2-5.1-6-7.79-8.4-2.61-2.4-5.53-4.4-8.61-6.1l2.6-3.7c2.8 1.7 5.45 3.5 7.9 5.3 2.1-1.4 4.3-3.2 6.5-5.4 2.2-2.1 4.2-5 6.1-8.68-10.03 0.28-20.3 1.05-30.9 2.21-0.3-1.73-0.7-3.23-1.4-4.43l0.2-0.31"/>
  <path id="pMA1" d="m298.1 61.99s20.7-4.29 27.3-1.04c6.6 3.28 0.7 11.35-0.8 14.16" class="stroke"/>
  <text y="59.8" x="292.9" class="number">1</text>
  <path id="pMA2" d="m291.5 83.6l13.1 12.12" class="stroke"/>
  <text y="93.0" x="287.9" class="number">2</text>
 </g>
 <text id="cellHA" y="123" x="352" class="label cell">HA</text>
 <g id="gHA">
  <path id="pHA" d="m377.2 66.54l-3.5 2.76c2.28 2.3 4.6 5.5 6.84 9.5 2.26 4 4.22 8.6 5.86 13.9 2.3-1.2 4.05-2.1 5.3-2.5v-0.22c-2.2-4.78-4.6-9.18-7.2-13.18-2.5-4-4.9-7.4-7.3-10.26zm-16.6 1.86c-0.3 0-0.5 0.2-0.5 0.58 0.3 0.41 0 1.66-0.7 3.75-0.7 2.1-2.1 4.87-4.26 8.47s-4.44 6.4-6.94 8.6v0.7c1.4 0.92 2.6 2 3.44 3.4 3.26-4.2 5.86-8 7.86-11.48 2.1-3.47 3.9-7.22 5.4-11.42l0.6-0.58c0.5-0.32 0.48-0.62 0-0.82l-4.55-1.1c-0.15-0.1-0.25-0.1-0.35-0.1z"/>
  <path id="pHA1" d="m355.6 67.4c0.5 4.5-4.37 11.9-6.8 15.51" class="stroke"/>
  <text y="69.6" x="347.1" class="number">1</text>
  <path id="pHA2" d="m383.5 66.6l9.8 15.79" class="stroke"/>
  <text y="68.9" x="387.2" class="number">2</text>
 </g>
 <text id="cellNA" y="123" x="416" class="label cell">NA</text>
 <g id="gNA">
  <path id="pNA" d="m421.99 92.8c3-1.1 5.41-2.5 7.13-4.2 1.78-1.65 2.98-3.7 3.58-6.1 0.7-2.52 1.1-5.1 1.2-7.7h-18.6v-4.2h18.6c-0.1-2.37-0.2-5.2-0.4-8.5 0-0.7-0.1-1.3-0.3-1.7-0.2-0.44-0.1-0.69 0.4-0.8l4.8 0.2c0.4 0.13 0.5 0.4 0.2 0.8l-0.5 0.9c0.2 3.6 0.3 6.6 0.3 9.1h16.1v4.2h-16.1c-0.1 2.7-0.5 5.5-1.3 8.3-0.7 2.81-1.9 5.4-3.8 7.6-1.9 2.32-4.7 4.5-8.59 6.7-0.72-1.6-1.61-2.9-2.72-4v-0.59"/>
  <path id="pNA1" d="m413 66.99l15.7 0.21" class="stroke"/>
  <text y="64.4" x="411.6" class="number">1</text>
  <path id="pNA2" d="m442.95 56l-0.45 11.48" class="stroke"/>
  <text y="59.5" x="445.9" class="number">2</text>
 </g>
 <text id="cellTA" y="123" x="484" class="label cell">TA</text>
 <g id="gTA">
  <path id="pTA" d="m490.98 58.4c0.02-0.57 0.32-0.7 0.82-0.5l4.4 0.8c0.5 0.2 0.5 0.5 0.1 0.8l-0.8 0.7c-0.4 1.3-0.9 2.6-1.4 3.7l13.4 0.04 0.2-0.14c0.1-0.2 0.2-0.2 0.4 0 1 0.6 2.1 1.5 3.3 2.4 0.5 0.4 0.5 0.79-0.1 1.3l-0.7 0.4c-0.2 2.11-0.63 4.4-1.4 6.73-0.7 2.38-1.9 4.87-3.7 7.41 0.6 0.47 1.2 0.95 1.8 1.46-1.2 1.3-2.3 2.63-3.4 4.1-0.4-0.6-0.93-1.1-1.43-1.63-1.77 1.94-3.97 3.83-6.77 5.73-2.8 2-6.9 3.8-12.5 5.52-0.5-1.59-1.2-3.01-2-4.26v-0.46c4.6-0.7 8.4-2 11.28-3.8 2.92-1.9 5.22-3.8 6.94-5.8-0.72-0.6-1.82-1.5-3.32-2.6s-3.8-2.47-6.9-4l2.1-3.5c3.3 1.7 5.7 3.1 7.3 4.17 1.6 1.13 2.8 1.93 3.5 2.43 1.1-1.8 2-3.7 2.7-5.7 0.6-2 1-4 1.2-5.96h-13.7c-0.7 1.36-1.8 3.06-3.2 5.16-1.5 2.06-3.7 4.8-6.7 8.1-1-1.2-2.1-2.3-3.5-3.4v-0.2c2.9-2.4 5.23-5 7.2-7.7 1.9-2.8 3.3-5.3 4.04-7.4 0.81-2.2 1.06-3.5 0.84-3.93"/>
  <path id="pTA1" d="m487.8 58.6c-1.85 3.8-7.5 11.38-10 14.63" class="stroke"/>
  <text y="62.9" x="478.1" class="number">1</text>
  <path id="pTA2" d="m502.1 60.2s9.8-2.32 12.5 1.5c2.8 3.8-0.2 10.4-1.4 13.67" class="stroke"/>
  <text y="57.8" x="508.0" class="number">2</text>
  <path id="pTA3" d="m487 78.83l7.7 5.2" class="stroke"/>
  <text y="87.7" x="482.4" class="number">3</text>
 </g>
 <text id="cellSA" y="123" x="546" class="label cell">SA</text>
 <g id="gSA">
  <path id="pSA" d="m541.2 71.1l9.9-0.05v-7.45c0-0.7-0.1-1.2-0.3-1.69-0.2-0.4 0-0.61 0.4-0.75l4.7 0.38c0.4 0.26 0.4 0.46 0.02 0.76l-0.52 0.8c-0.1 2.81-0.1 5.5 0 8h12.4v-9.7c0-0.61-0.1-1.2-0.3-1.6s-0.1-0.7 0.4-0.8l4.9 0.4c0.3 0.23 0.3 0.53 0 0.9l-0.6 0.72v10.08h10.77v3.9l-10.77 0.04v0.26c0 3.4-0.3 6.4-1.1 9.02-0.7 2.58-1.9 4.88-3.6 6.88-1.7 2.01-4.9 4.3-9.6 6.76-0.5-1.34-1.4-2.64-2.5-3.86v-0.5c3.1-1.1 5.7-2.4 7.6-3.98 1.9-1.6 3.2-3.52 3.8-5.86 0.7-2.36 1-5.16 1-8.46v-0.3h-12.3c0 3.63 0.2 6.94 0.4 9.98l-4.4 0.62c-0.2-3.31-0.3-6.8-0.4-10.6h-9.9v-3.95"/>
  <path id="pSA1" d="m535.7 67.9l13 0.13" class="stroke"/>
  <text y="65.6" x="535.4" class="number">1</text>
  <path id="pSA2" d="m559.2 58l0.3 10.6" class="stroke"/>
  <text y="56.8" x="556.7" class="number">2</text>
  <path id="pSA3" d="m576.2 57.96v10.51" class="stroke"/>
  <text y="56.8" x="573.6" class="number">3</text>
 </g>
 <text id="cellKA" y="123" x="610" class="label cell">KA</text>
 <g id="gKA">
  <path id="pKA" d="m605.1 91.96c3.2-2.66 5.86-5.56 8.02-8.66 2.18-3.17 3.58-5.9 4.08-8.2 0.6-2.3 1-4.06 1.2-5.2-4.45 0.2-8.9 0.5-13.44 0.9-0.06-1.6-0.26-3-0.56-4.3v-0.28l14.5-0.42c0.2-1.6 0.23-3.2 0.3-4.9v-3c0-0.6-0.1-1.2-0.3-1.7-0.2-0.37-0.1-0.6 0.4-0.7l4.65 0.3c0.45 0.1 0.45 0.4 0.05 0.81l-0.4 0.79v3.6c-0.1 1.61-0.1 3.2-0.3 4.7l11.9-0.37 0.1-0.13c0.2-0.2 0.3-0.2 0.5 0 1 0.7 2 1.4 3.01 2.2 0.59 0.4 0.59 0.8-0.01 1.21l-0.6 0.49c0 6.08-0.2 10.6-0.5 13.44-0.2 2.86-0.46 4.86-0.7 5.86-0.2 1-0.4 1.9-0.7 2.62-0.3 0.78-0.8 1.58-1.71 2.48-0.89 0.9-2.09 1.1-3.69 0.7-1.5-0.5-3.5-1.1-5.88-1.8 0.48-1.49 0.88-3 1.08-4.6l0.3-0.1c1.59 0.8 2.83 1.3 3.73 1.5 0.87 0.2 1.47 0.13 1.67-0.06 0.3-0.24 0.52-0.64 0.8-1.24 0.2-0.6 0.5-2.27 0.8-4.99 0.3-2.71 0.5-7.21 0.4-13.41-3.7 0-7.3 0.1-11 0.2-0.2 1.2-0.68 3.1-1.3 5.6-0.7 2.52-2 5.5-3.9 8.9-1.9 3.46-5 7.4-9.1 11.79-1-1.29-2.1-2.59-3.4-3.69v-0.34"/>
  <path id="pKA1a" d="m602.1 62.7l12.3-0.58" class="stroke"/>
  <path id="pKA1b" d="m631.7 61.5s7.2-1.4 11.04 0.8c3.86 2.1 2.66 9.1 2.66 12.14" class="stroke"/>
  <text y="60.1" x="601.0" class="number">1</text>
  <path id="pKA2" d="m627.98 52.5l-0.58 10.53" class="stroke"/>
  <text y="56.2" x="630.1" class="number">2</text>
 </g>
 <text id="cellA" y="123" x="682" class="label cell">A</text>
 <g id="gA">
  <path id="pA" d="m672.7 62l32.9-0.4 0.4-0.47c0.1-0.15 0.3-0.15 0.4 0 1.1 0.88 2.5 1.97 4.2 3.27 0.6 0.5 0.53 1-0.2 1.4l-1.5 0.63c-2 2.87-3.9 5.27-5.6 7.07-1.8 1.74-4.35 3.8-7.69 6.2-0.81-1.57-1.62-2.72-2.51-3.5-0.4 4-1.3 7.7-2.88 11.3-1.52 3.6-4.41 7.1-8.63 10.4-0.79-1.5-1.87-2.8-3.09-3.9v-0.2c3.4-1.98 6-4.5 7.7-7.7 1.79-3.2 2.69-7.7 2.75-13.4 0-0.6-0.05-1.2-0.25-1.7-0.2-0.4-0.09-0.6 0.4-0.7l4.7 0.3c0.5 0.1 0.5 0.3 0.17 0.7l-0.67 0.9c0 1-0.06 2.1-0.1 3.1 2.4-1.1 4.5-2.4 6.3-3.99 1.8-1.57 3.3-3.57 4.45-6.01-10.65 0.1-20.75 0.5-30.32 1.3-0.23-1.5-0.53-2.8-0.93-3.92v-0.65"/>
  <path id="pA1a" d="m670.1 59.2c2.1 0 14.3-0.6 14.3-0.6" class="stroke"/>
  <path id="pA1b" d="m702.2 58.9s6-2 10.01 0.5c7.09 4.3 0.99 11.9-1.31 15.47" class="stroke"/>
  <text y="56.3" x="668.1" class="number">1</text>
  <path id="pA2" d="m686.4 72.2c1.5 6.5-5.3 13.11-9 17.06" class="stroke"/>
  <text y="79.2" x="677.3" class="number">2</text>
 </g>
<!-- -I -->
 <text id="cellWI" y="203" x="98" class="label cell">WI</text>
 <g id="gWI">
  <path id="pWI" d="m113.7 139.44c-0.3 0.07-0.4 0.36-0.3 0.76 0.2 0.4 0.3 1.1 0.3 2.1v6h-16.7v3.92h4.5v10.68h-8.6v3.94l20.8-0.04v12l4.4 0.01v-11.97l14.8-0.04v-3.93l-14.8 0.03v-10.68l8.5-0.02v-3.9h-8.5v-6.86l0.6-1.04c0.2-0.3 0.2-0.59-0.1-0.7l-4.5-0.3c-0.2 0.02-0.3 0.01-0.4 0.04zm-7.8 12.76h7.8v10.7l-7.8-0.03v-10.67z" class="old"/>
  <path id="pWI1" d="m98.5 144.9l10.4-0.05" class="stroke"/>
  <text y="142.4" x="96.8" class="number">1</text>
  <path id="pWI2" d="m95.8 151.62l-0.3 9.27" class="stroke"/>
  <text y="157.0" x="87.7" class="number">2</text>
  <path id="pWI3" d="m94.8 170.14l14.9 0.21" class="stroke"/>
  <text y="178.4" x="94.7" class="number">3</text>
  <path id="pWI4" d="m122.2 135.1l-0.1 10.58" class="stroke"/>
  <text y="143.0" x="125.3" class="number">4</text>
 </g>
 <text id="cellRI" y="203" x="164" class="label cell">RI</text>
 <g id="gRI">
  <path id="pRI" d="m181.3 137.4c-0.5 0.1-0.6 0.3-0.4 0.7 0.2 0.5 0.3 1 0.3 1.7v11.8c0 5.1-0.3 8.8-1 11.2-0.6 2.3-2.1 4.5-4.5 6.5-2.3 2-5.3 3.4-8.73 4.3v0.5c1.13 1.1 2.03 2.4 2.73 4 4.9-2.4 8.4-4.7 10.6-7.08 2.2-2.41 3.7-4.92 4.4-7.72s1.02-6.7 1.02-11.7l-0.02-12.37 0.5-1.06c0.2-0.25 0.1-0.47-0.3-0.65l-4.6-0.12zm-18.1 1.8c-0.5 0.13-0.6 0.4-0.4 0.78 0.17 0.52 0.3 1.02 0.3 1.72v20.6h4.5v-21.2l0.6-1c0.3-0.3 0.21-0.5-0.2-0.68l-4.8-0.22z"/>
  <path id="pRI1" d="m158.2 140.1v15.37" class="stroke"/>
  <text y="146.0" x="151.4" class="number">1</text>
  <path id="pRI2" d="m191.5 137.6v17.03" class="stroke"/>
  <text y="143.2" x="195.2" class="number">2</text>
 </g>
 <text id="cellMI" y="203" x="292" class="label cell">MI</text>
 <g id="gMI">
  <path id="pMI" d="m295.8 139.6l-1.2 3.99c7 1.01 13.8 2.91 20.3 5.71 0.6-1.6 1.3-2.99 2-4.1v-0.29c-5.9-1.97-12.94-3.71-21.1-5.31zm-0.2 12.1l-1.1 4.2c6.4 1 12.64 2.8 18.8 5.4 0.8-1.7 1.5-3 2.2-4v-0.4c-6.2-1.93-12.9-3.68-19.9-5.2zm-4.7 12l-1.3 4.7c9.8 1.5 18.9 4.44 27.3 8.9 0.8-1.96 1.7-3.5 2.5-4.8v-0.4c-8.6-3.4-18.1-6.3-28.5-8.4z"/>
  <path id="pMI1" d="m298.1 135.9c4.6 0.2 10.89 3.2 14.5 4.89" class="stroke"/>
  <text y="137.2" x="291.7" class="number">1</text>
  <path id="pMI2" d="m294.8 147.6c5.5-0.36 12 2.9 15.8 4.95" class="stroke"/>
  <text y="149.9" x="288.5" class="number">2</text>
  <path id="pMI3" d="m292.2 160.7c5.7-0.2 12.1 2.7 15 3.82" class="stroke"/>
  <text y="162.1" x="286.0" class="number">3</text>
 </g>
 <text id="cellHI" y="203" x="358" class="label cell">HI</text>
 <g id="gHI">
  <path id="pHI" d="m381.6 151.2c0.4 0.53 0.3 0.78-0.4 0.78l-1.1-0.08c-5.4 2.3-12.7 4.2-22 5.84v8.58c0 2.28 1 3.38 2.86 3.38l23.74 0.04-0.6 4.36h-23c-5 0-7.5-2.5-7.5-7.6v-23.6c0-0.67 0-1.2-0.2-1.7-0.2-0.4-0.1-0.66 0.3-0.7l4.8 0.23c0.4 0.17 0.49 0.37 0.21 0.77l-0.61 0.91v11.54c7-1.22 11.89-2.45 14.7-3.75 2.8-1.21 4.3-2 4.37-2.5 0.23-0.4 0.53-0.6 0.93-0.4l3.5 3.93"/>
  <path id="pHI1" d="m360.6 150.8c5.7-1.3 9.36-3.3 13.6-5.51" class="stroke"/>
  <text y="146.8" x="360.8" class="number">1</text>
  <path id="pHI2a" d="m349.7 138.4l-0.1 11.03" class="stroke"/>
  <text y="140.3" x="343.5" class="number">2</text>
  <path id="pHI2b" d="m348.7 166.02c0 3.5-0.9 7.4 2.5 10.16 3.3 2.72 10.2 2.17 15.1 1.91" class="stroke"/>
 </g>
 <text id="cellNI" y="203" x="422" class="label cell">NI</text>
 <g id="gNI">
  <path id="pNI" d="m419.9 145.7v4.2h27.2v-4.2h-27.2zm-6.7 22.7v4.14h40.5v-4.14h-40.5z"/>
  <path id="pNI1" d="m423.4 141.6l19.1 0.01" class="stroke"/>
  <text y="139.2" x="422.9" class="number">1</text>
  <path id="pNI2" d="m415.4 165.5l23.3-0.04" class="stroke"/>
  <text y="162.7" x="414.9" class="number">2</text>
 </g>
 <text id="cellTI" y="203" x="478" class="label cell">CHI</text>
 <g id="gTI">
  <path id="pTI" d="m477.2 155.3h19v-6.69c0-0.65-0.1-1.21-0.3-1.68v-0.13c-3.3 0.7-7.5 1.5-12.6 2.3-0.4-1.67-0.9-3-1.58-3.9l0.08-0.5c4.6-0.2 8.6-0.7 11.8-1.3 3.2-0.69 6.1-1.46 8.7-2.3 2.5-0.9 3.8-1.5 3.8-1.8 0.3-0.48 0.7-0.52 1-0.1l2.3 3.32c0.5 0.48 0.4 0.78-0.26 0.88h-0.94c-3.5 1.2-6.7 2.2-9.61 2.9l2.31 0.1c0.5 0.1 0.5 0.4 0.2 0.81l-0.4 0.79v7.3h17v4.1l-17.2 0.04c-0.1 2.16-0.5 4.36-1.1 6.52-0.5 2.14-1.7 4.34-3.6 6.44-1.82 2.1-4.9 4-9.2 5.7-0.5-1.5-1.3-2.7-2.4-3.7v-0.57c3.4-0.84 5.9-2 7.6-3.43 1.8-1.5 2.9-3.2 3.37-5.1 0.43-1.9 0.78-3.9 0.94-5.9h-18.91v-4.13"/>
  <path id="pTI1" d="m503.9 136.7c-5.4 2.84-13.3 3.6-20.4 4.71" class="stroke"/>
  <text y="136.9" x="493.2" class="number">1</text>
  <path id="pTI2" d="m477.9 152.1l14.4-0.01" class="stroke"/>
  <text y="150.0" x="475.2" class="number">2</text>
  <path id="pTI3" d="m504.2 160.9c1.2 8.24-3.1 11-6.5 14.43" class="stroke"/>
  <text y="171.7" x="506.9" class="number">3</text>
 </g>
 <text id="cellSI" y="203" x="542" class="label cell">SHI</text>
 <g id="gSI">
  <path id="pSI" d="m547.98 139.7l-2.18 3.7c3.8 1.3 7.3 3.4 10.43 6.5 0.87-1.47 1.77-2.8 2.72-4.1-3.25-2.3-6.95-4.4-10.97-6.1zm-4.88 10.64l-2.15 3.76c3.75 1.24 7.25 3.4 10.45 6.5 0.9-1.5 1.8-2.8 2.7-4.1-3.3-2.3-7-4.4-11-6.16zm32.3 0.09c-1.6 3.69-3.9 7.17-7.1 10.41-3.1 3.26-6.8 5.78-11 7.68-4.2 1.88-7.2 2.98-8.9 3.18-1.8 0.2-2.98 0.26-3.5 0.2-0.5 0.06-0.7 0.34-0.5 0.84l1.8 4.66c0.3 0.5 0.6 0.5 0.91 0l0.59-0.75c4.2-1.05 8.6-2.75 13.1-5.05 4.6-2.3 8.46-5.3 11.62-8.8 3.18-3.5 5.58-6.81 7.38-9.84-1.5-0.62-2.9-1.46-4.4-2.53z"/>
  <path id="pSI1" d="m546.4 135.3c1.2 0.27 11.3 6.01 11.3 6.01" class="stroke"/>
  <text y="138.3" x="540.6" class="number">1</text>
  <path id="pSI2" d="m541.8 145.52l10.17 6.18" class="stroke"/>
  <text y="147.8" x="536.2" class="number">2</text>
  <path id="pSI3" d="m553.3 179.5c5.8-1.2 10.8-4.7 16.6-8.69" class="stroke"/>
  <text y="183.3" x="547.0" class="number">3</text>
 </g>
 <text id="cellKI" y="203" x="614" class="label cell">KI</text>
 <g id="gKI">
  <path id="pKI" d="m635.8 142.63l1.1 3.97c-4.1 0.6-8.36 1.3-12.7 2 0.6 3 1.3 5.93 2 8.93 5.2-0.73 10.2-1.63 15-2.43l1.3 4.31c-4.9 0.59-10 1.29-15.3 2.09 1.1 4.7 2.3 9.47 3.7 14.3l-0.1 0.5c-1.3 0.14-2.9 0.66-4.8 1.53-1.2-5.93-2.39-11.13-3.39-15.63-5.41 0.9-11.01 1.83-16.81 2.93-0.2-1.43-0.6-2.83-1.2-4.23l0.1-0.4c5.9-0.7 11.6-1.5 17.1-2.3-0.8-3.4-1.4-6.4-2-8.8-4.1 0.63-8.2 1.3-12.5 2.1-0.2-1.45-0.6-2.78-1-4l0.1-0.4c4.3-0.5 8.5-1 12.55-1.6-1-4.3-1.65-6.6-1.85-6.86-0.3-0.54-0.26-0.74 0.3-0.74l4.7-0.66c0.4 0.06 0.5 0.28 0.4 0.66l-0.3 0.9c0.4 2 0.76 4 1.2 6 4.4-0.7 8.5-1.4 12.42-2.17"/>
  <path id="pKI1" d="m603.7 144.11l10.7-1.18" class="stroke"/>
  <text y="147.0" x="598.5" class="number">1</text>
  <path id="pKI2" d="m604.4 157.21l12.4-2.06" class="stroke"/>
  <text y="159.7" x="598.6" class="number">2</text>
  <path id="pKI3" d="m623.9 131.2l2.6 9.38" class="stroke"/>
  <text y="138.3" x="628.2" class="number">3</text>
 </g>
 <text id="cellI" y="203" x="686" class="label cell">I</text>
 <g id="gI">
  <path id="pI" d="m696.9 137.6c0.2-0.6 0.5-0.8 1-0.69l4.9 2.53c0.5 0.36 0.6 0.56 0.13 0.86l-1.23 0.5c-2.1 2.61-4 4.85-5.8 6.7-1.9 1.8-3.4 3.21-4.6 4.3l1.6 0.07c0.5 0.03 0.6 0.23 0.24 0.73l-0.44 0.7v16.1c0 3.28 0 5.72 0.2 7.3l-5 0.01c0.2-3.31 0.3-7.61 0.3-12.91v-9.5c-0.8 0.66-2.4 1.8-4.6 3.4-2.2 1.54-6.5 4-12.9 7.34-0.5-1.54-1.3-3.05-2.4-4.44v-0.39c4.67-1.61 9-3.71 13-6.31 4-2.64 7.2-5.2 9.54-7.6 2.36-2.37 4.06-4.34 5.06-5.9 0.9-1.5 1.3-2.5 1.03-2.83"/>
  <path id="pI1" d="m691.6 137.5c-1.8 6.9-14.3 12.43-20.8 15.74" class="stroke"/>
  <text y="142.7" x="679.0" class="number">1</text>
  <path id="pI2" d="m698.9 150.6v19.57" class="stroke"/>
  <text y="158.9" x="701.6" class="number">2</text>
 </g>
<!-- -U -->
 <text id="cellRU" y="283" x="161" class="label cell">RU</text>
 <g id="gRU">
  <path id="pRU" d="m178.1 220.91c-0.4 0.09-0.5 0.39-0.3 0.79 0.1 0.43 0.2 1 0.2 1.7v26.4l-1.6 0.6v0.5c0.8 0.7 1.7 1.8 2.5 3.4 4.9-2.33 8.9-4.8 11.8-7.5s5.7-6.2 8.4-10.5c-1.3-0.9-2.6-1.9-3.9-2.9l-0.6 0.04c-1.9 4.53-4 7.78-6.2 9.76-2.1 1.9-4.09 3.4-5.9 4.4v-24.8l0.47-0.9c0.33-0.4 0.25-0.6-0.17-0.8l-4.7-0.19zm-11.2 2.81c-0.4 0.1-0.5 0.38-0.3 0.78s0.3 1 0.3 1.7c0.1 6.7-0.7 11.9-2.5 15.8-1.9 3.9-4.7 7-8.59 9.5l-0.01 0.6c1.2 0.7 2.4 1.8 3.6 3.2 4-3.7 7-7.8 9-12.3 1.9-4.47 2.9-10.3 2.9-17.4l0.4-0.97c0.2-0.23 0.2-0.53-0.17-0.63l-4.63-0.28z"/>
  <path id="pRU1" d="m163.5 225.7c0 7.14-5.54 15.7-7.8 19.17" class="stroke"/>
  <text y="231.8" x="154.9" class="number">1</text>
  <path id="pRU2" d="m185.2 222.01l0.1 15.93 8.6-8.33" class="stroke"/>
  <text y="224.3" x="187.5" class="number">2</text>
 </g>
 <text id="cellYU" y="283" x="226" class="label cell">YU</text>
 <g id="gYU">
  <path id="pYU" d="m221.8 246.6h25.3l0.9-17.63h-21.1v-3.98h26l-1.3 21.56 10.1 0.05v3.94l-39.9-0.04v-3.95"/>
  <path id="pYU1" d="m238.8 221.3h18.7l-1.2 14.32" class="stroke"/>
  <text y="219.1" x="239.6" class="number">1</text>
  <path id="pYU2" d="m224.4 254.4l17.3-0.05" class="stroke"/>
  <text y="258.3" x="218.5" class="number">2</text>
 </g>
 <text id="cellMU" y="283" x="288" class="label cell">MU</text>
 <g id="gMU">
  <path id="pMU" d="m302.2 219.5c0-0.54 0.3-0.7 0.9-0.53l4.87 1.13c0.53 0.3 0.53 0.6 0 0.9l-0.77 0.8c-1.25 4.7-2.56 8.8-3.97 12.3-1.33 3.5-3.33 7.8-5.83 12.9 1.4-0.09 3.3-0.2 5.7-0.4s7.4-0.8 14.9-1.9c-1.3-2.6-3.2-5.37-5.5-8.2l3.7-2.7c2.6 3.4 4.78 6.6 6.53 9.7 1.77 3.1 3.25 5.8 4.5 8.2l-0.13 0.41c-1.5 0.6-3.2 1.49-5.12 2.49-0.68-2.2-1.48-4.42-2.38-6.5-6.8 1-11.8 1.8-15 2.2s-8.2 1.2-14.8 2.3l-0.6 0.9c-0.4 0.6-0.7 0.6-1 0.11l-2-5.31c-0.1-0.56 0.1-0.7 0.5-0.5 0.4 0.1 2.3 0 5.7-0.3 2.9-5.5 5.02-10.2 6.43-14 1.37-3.9 2.37-7.1 2.87-9.6 0.6-2.5 0.8-4 0.5-4.41"/>
  <path id="pMU1" d="m288.9 233.3s-11.27 15.1-9 21.1c2.3 6 14.7 2.8 20.8 1.56" class="stroke"/>
  <text y="238.8" x="277.9" class="number">1</text>
  <path id="pMU2" d="m319.8 233.2c5.3 2 8 10.4 9.8 14.73" class="stroke"/>
  <text y="234.6" x="324.6" class="number">2</text>
 </g>
 <text id="cellHU" y="283" x="354" class="label cell">FU</text>
 <g id="gHU">
  <path id="pHU" d="m352.7 224h29.9l0.1-0.05c0.1-0.16 0.2-0.15 0.4 0 0.8 0.75 1.8 1.56 3 2.55 0.4 0.45 0.4 0.92 0 1.4l-0.6 0.5c-0.3 3.03-0.9 5.83-1.9 8.4-0.9 2.6-2.5 5.15-4.8 7.8-2.2 2.6-4.9 4.8-8 6.5s-7.5 3.19-13.2 4.5c-0.2-1.6-0.57-3.1-1.1-4.5v-0.5c4.4-0.5 8.1-1.4 10.92-2.65 2.88-1.25 5.28-2.98 7.28-5.15 2-2.12 3.4-4.37 4.4-6.71 0.88-2.39 1.41-4.99 1.5-7.89h-27.9v-4.2"/>
  <path id="pHU1a" d="m352.4 220.7l12.4 0.25" class="stroke"/>
  <path id="pHU1b" d="m381.8 245.9c-1.5 3.32-9.8 8.52-12.5 10.21" class="stroke"/>
  <text y="218.5" x="352.8" class="number">1</text>
 </g>
 <text id="cellNU" y="283" x="416" class="label cell">NU</text>
 <g id="gNU">
  <path id="pNU" d="m420.7 223.8c7.9-0.16 15.8-0.49 23.7-0.99l0.3-0.41c0.1-0.1 0.2-0.1 0.4 0.04 1.1 0.86 2.2 1.86 3.5 3.06 0.5 0.41 0.5 0.8-0.2 1.3l-0.9 0.5c-1.2 3.8-3.4 8.1-6.6 12.9 3.1 2.33 6.1 4.9 9 7.6v0.4c-1.3 1-2.5 2.3-3.4 3.77-2.7-3.27-5.4-6.07-8.2-8.57-1.8 2-4.2 4-7.2 6.2-3 2.14-6.9 4.21-11.7 6.2-0.7-1.5-1.5-2.97-2.5-4.2v-0.57c4.2-0.83 7.8-2.23 10.62-4.08 2.88-1.85 5.38-3.95 7.38-6.15-2.6-1.85-5.3-3.4-8.2-4.9l2.1-3.7c3.1 1.9 6 3.7 8.6 5.4 2.59-3.7 4.3-7.2 5-10.61-6.44 0.21-13.41 0.71-20.9 1.31-0.2-1.7-0.51-3.1-0.9-4.2l0.1-0.3"/>
  <path id="pNU1a" d="m417 220.81l11.8-0.59" class="stroke"/>
  <path id="pNU1b" d="m435.8 250.54c-3.4 4.46-7.96 5.76-11.3 7.07" class="stroke"/>
  <text y="218.2" x="415.8" class="number">1</text>
  <path id="pNU2" d="m420.3 236.4l9.6 5.46" class="stroke"/>
  <text y="239.2" x="414.3" class="number">2</text>
 </g>
 <text id="cellTU" y="283" x="476" class="label cell">TSU</text>
 <g id="gTU">
  <path id="pTU" d="m510.8 221.2c-0.4 0.03-0.6 0.2-0.68 0.6 0.28 0.4 0.28 1.6 0.08 3.7-0.23 2.1-1.2 5.3-2.8 9.7s-4.3 8.1-8 11.14c-3.7 3.06-7.9 5.16-12.6 6.36v0.4c1.1 1.3 1.9 2.7 2.5 4.2 6.2-2.6 11.1-5.7 14.7-9.18 3.6-3.42 6.2-7.42 7.9-11.9 1.7-4.5 2.9-8.52 3.4-12.02l0.8-0.8c0.34-0.4 0.3-0.6-0.1-0.8l-4.8-1.3c-0.2-0.06-0.3-0.1-0.4-0.1zm-18.6 0.1l-3.2 2.7c2.7 2.6 5.1 5.8 7.03 9.8 1.27-1.18 2.57-2.18 3.94-3-2.27-3.4-4.87-6.5-7.77-9.5zm-10.5 3.8l-3.2 2.7c2.7 2.51 5.1 5.76 7 9.7 1.3-1.1 2.6-2.1 4-3-2.3-3.32-4.9-6.5-7.8-9.4z"/>
  <path id="pTU1" d="m483.5 222.21l7.3 9.99" class="stroke"/>
  <text y="220.5" x="479.8" class="number">1</text>
  <path id="pTU2" d="m494.1 217.8l7.2 8.1" class="stroke"/>
  <text y="216.7" x="488.8" class="number">2</text>
  <path id="pTU3" d="m519.2 224.34c-1.8 10.26-3.7 13.56-5.67 17.82" class="stroke"/>
  <text y="222.6" x="517.5" class="number">3</text>
 </g>
 <text id="cellSU" y="283" x="546" class="label cell">SU</text>
 <g id="gSU">
  <path id="pSU" d="m545.9 223.4c7.4 0.1 14.9-0.09 22.7-0.6l0.3-0.2c0.1-0.18 0.2-0.18 0.4 0 1.3 1 2.5 1.9 3.6 2.64 0.5 0.46 0.5 0.86-0.18 1.36l-1.02 0.61c-1 2.99-2.1 5.29-3.1 6.99-1 1.6-1.88 2.9-2.54 3.75 3.74 2.78 6.64 5.15 8.74 7.05s4.23 3.8 6.5 5.7v0.47c-1.4 1.03-2.6 2.33-3.8 3.93-2.3-3-4.53-5.5-6.6-7.5-2-2.08-4.4-4.2-7.4-6.5-0.7 0.7-1.8 1.85-3.5 3.5-1.6 1.7-3.9 3.4-6.8 5.35-2.9 1.85-6.5 3.85-10.9 5.95-0.5-1.7-1.2-3.2-2.1-4.5v-0.5c3.6-1.2 6.7-2.5 9.41-4 2.79-1.5 5.37-3.4 7.87-5.7 2.52-2.36 4.52-4.66 6.02-6.9 1.48-2.3 2.7-4.7 3.6-7.5l-20.5 1.21c-0.1-1.51-0.3-3.01-0.88-4.21l0.18-0.43"/>
  <path id="pSU1" d="m556.8 219.2s15.1-1.9 18.5 0.92c3.4 2.83-0.5 10.58-1.9 14.15" class="stroke"/>
  <text y="221.8" x="551.3" class="number">1</text>
  <path id="pSU2" d="m563.2 245.1l8.2 8.63" class="stroke"/>
  <text y="253.0" x="558.9" class="number">2</text>
 </g>
 <text id="cellKU" y="283" x="610" class="label cell">KU</text>
 <g id="gKU">
  <path id="pKU" d="m621.6 219c0-0.4 0.3-0.6 0.8-0.49l4.3 0.89c0.5 0.1 0.53 0.4 0.1 0.8l-0.6 0.6c-0.4 1.2-0.86 2.3-1.29 3.4l12.99 0.03 0.2-0.23c0.1-0.1 0.2-0.1 0.4 0.04 0.8 0.69 1.9 1.46 3.1 2.46 0.5 0.4 0.5 0.8 0 1.3l-0.8 0.5c-0.2 1.74-0.8 4-1.83 6.7-1 2.7-2.57 5.5-4.77 8.5-2.2 2.9-4.9 5.46-8 7.8-3.1 2.3-7.1 4.3-12.21 6.2-0.5-1.6-1.18-3-2.02-4.2v-0.5c4.13-0.82 7.73-2.26 10.83-4.3 3-2 5.5-4.3 7.4-6.8 2-2.53 3.4-5 4.3-7.4 0.9-2.5 1.41-4.5 1.6-6.1h-13c-0.8 1.6-1.9 3.4-3.4 5.5-1.46 2.1-3.71 4.6-6.75 7.4-0.96-1.2-2.09-2.4-3.35-3.6v-0.2c2.8-1.8 5.1-4.1 7.1-6.8 1.9-2.8 3.25-5.3 4.04-7.5 0.86-2.2 1.06-3.57 0.86-3.97"/>
  <path id="pKU1" d="m618.1 219.8c-1.7 5.1-6 10-8.7 13.3" class="stroke"/>
  <text y="223.1" x="608.6" class="number">1</text>
  <path id="pKU2" d="m634.4 221.04s10.1-1.06 12.3 1.77c2.2 2.89-1.8 9.29-3.4 12.5" class="stroke"/>
  <text y="219.1" x="638.4" class="number">2</text>
 </g>
 <text id="cellU" y="283" x="680" class="label cell">U</text>
 <g id="gU">
  <path id="pU" d="m672.3 243.32v-16.6l13.8-0.02v-6.2c0-0.7-0.12-1.2-0.3-1.7-0.2-0.4-0.1-0.6 0.37-0.7l4.63 0.14c0.4 0.16 0.5 0.36 0.3 0.66l-0.6 0.93v6.89h11.5l0.2-0.12c0.1-0.17 0.3-0.2 0.43 0 0.97 0.7 1.97 1.52 3.27 2.5 0.5 0.5 0.5 1 0 1.4l-0.6 0.6c-0.32 4.1-0.9 7.4-1.6 10-0.8 2.5-2.2 5.1-4.3 7.52-2 2.48-4.32 4.48-7 6.08-2.8 1.63-6.45 2.9-11.1 3.9-0.3-1.5-0.8-2.9-1.7-4.36v-0.52c3.7-0.22 6.7-0.82 9.1-1.82 2.4-1.1 4.6-2.7 6.6-4.93 2-2.17 3.3-4.54 4-6.98 0.65-2.49 1.1-5.59 1.3-9.29h-23.8v12.6l-4.5 0.02"/>
  <path id="pU1" d="m682.3 213.5l-0.3 10.4" class="stroke"/>
  <text y="216.0" x="675.2" class="number">1</text>
  <path id="pU2" d="m668 226.99l-0.1 15.46" class="stroke"/>
  <text y="232.7" x="661.1" class="number">2</text>
  <path id="pU3" d="m679.2 233.91s14.5-2.61 17.24-0.01c2.76 2.6-3.84 8-6.14 10.31" class="stroke"/>
  <text y="240.4" x="685.7" class="number">3</text>
 </g>
<!-- -E -->
 <text id="cellWE" y="363" x="94" class="label cell">WE</text>
 <g id="gWE">
  <path id="pWE" d="m91.5 329.4l17.8 0.01v-13.11c0-1.08-0.1-1.8-0.3-2.18-0.02-0.52 0.2-0.72 0.7-0.72l4.2 0.3c0.5 0.1 0.6 0.4 0.3 0.8l-0.5 0.7v2.6c4.2-2.2 7-4.5 8.4-6.9h-24.4c-0.2-1.3-0.5-2.6-1.08-3.8l-0.02-0.38h27.9l0.2-0.22c0.1-0.1 0.2-0.1 0.4 0 0.8 0.7 1.81 1.7 3.2 3 0.6 0.4 0.52 0.9-0.2 1.4l-0.9 0.4c-1.6 2.9-5.27 6.4-11 10.32-0.6-1.22-1.5-2.32-2.5-3.32v11.1l17.7 0.01v4.19h-39.9v-4.19" class="old"/>
  <path id="pWE1" d="m96.6 303.7l12.2-0.01" class="stroke"/>
  <text y="301.4" x="95.4" class="number">1</text>
  <path id="pWE2" d="m106.3 314.8l-0.34 11.07" class="stroke"/>
  <text y="322.3" x="97.9" class="number">2</text>
  <path id="pWE3" d="m91.4 337l13.1-0.1" class="stroke"/>
  <text y="339.8" x="85.8" class="number">3</text>
 </g>
 <text id="cellRE" y="363" x="162" class="label cell">RE</text>
 <g id="gRE">
  <path id="pRE" d="m164.1 331.44v-0.47l1.3-0.23v-27.33c0-0.61-0.1-1.21-0.25-1.71-0.18-0.4-0.05-0.63 0.35-0.73l4.6 0.23c0.4 0.1 0.5 0.4 0.3 0.8l-0.5 0.89v26.81c2.05-0.6 4.2-1.4 6.4-2.57 2.3-1.13 4.68-2.93 7.3-5.43 2.6-2.5 4.6-5.6 6-9.2l0.5-0.1c1.6 0.9 3.1 1.7 4.54 2.3-2.04 3.4-4.44 6.5-7.04 9.29-2.7 2.81-5.7 5.11-9 6.81-3.4 1.8-7.4 3.3-12 4.7-0.7-1.53-1.5-2.87-2.5-4.06"/>
  <path id="pRE1" d="m160.1 319.1c0 5.41-1.9 18.5 2.2 20.6 5.4 2.7 12.4-2.04 16-4.25" class="stroke"/>
  <text y="328.6" x="151.6" class="number">1</text>
 </g>
 <text id="cellME" y="363" x="289" class="label cell">ME</text>
 <g id="gME">
  <path id="pME" d="m313.4 300.54c0.1-0.53 0.5-0.74 1.1-0.56l4.8 0.94c0.3 0.18 0.4 0.38 0.1 0.78l-0.7 0.8c-0.6 3.3-1.6 6.4-3 9.34-1.3 2.96-2.3 4.96-2.92 5.96 3.02 2.4 5.92 4.7 8.72 7v0.4c-1 0.72-2.2 2.06-3.8 4-2.4-2.5-4.9-4.9-7.6-7.19-1.4 1.97-3.5 4.29-6.27 7.09-2.73 2.7-7.43 5.4-14.02 8.2-0.51-1.5-1.31-2.9-2.44-4.5l0.03-0.4c5.2-1.3 9.3-3.3 12.21-5.8 2.99-2.64 5.29-5.1 6.99-7.4-3.4-2.5-7.4-4.8-12-7l2.6-4.02c4.6 2.32 8.6 4.62 11.9 6.89 2.7-5.57 4.12-9.27 4.3-11.15 0.3-1.92 0.3-3.02 0.04-3.38"/>
  <path id="pME1" d="m323 302.53c-0.3 4.37-4.7 10.89-6.3 13.56" class="stroke"/>
  <text y="312.6" x="324.0" class="number">1</text>
  <path id="pME2" d="m295.8 303.8c8 2.1 9.7 4.7 11.82 6.65" class="stroke"/>
  <text y="302.4" x="296.5" class="number">2</text>
 </g>
 <text id="cellHE" y="363" x="353" class="label cell">HE</text>
 <g id="gHE">
  <path id="pHE" d="m363.4 306.6c0.8 0.04 2.9 1.54 6.3 4.54 3.5 2.96 10.23 7.82 20.3 14.48l-0.03 0.58c-1.07 0.9-2.17 2.3-3.47 4.2-10.2-8.45-16.6-13.6-18.9-15.5-2.4-1.92-3.7-2.9-4.1-2.9-0.5 0.03-1.1 0.5-1.8 1.3-0.8 0.84-4.6 4.4-11.6 10.6-1-1.4-2.17-2.5-3.4-3.29v-0.61c7.2-5.14 11.6-8.68 13.2-10.5 1.7-1.93 2.8-2.86 3.5-2.86"/>
  <path id="pHE1" d="m351.2 310.4c3-2.39 6.4-7.6 12.1-8.2 5.7-0.48 9.5 5 11.5 7.22" class="stroke"/>
  <text y="299.3" x="360.4" class="number">1</text>
 </g>
 <text id="cellNE" y="363" x="417" class="label cell">NE</text>
 <g id="gNE">
  <path id="pNE" d="m431.1 296.3c-0.5 0.1-0.6 0.31-0.4 0.72 0.2 0.48 0.29 1.08 0.29 1.68v6.1l-11.69 0.1-0.1 0.4c0.4 1.25 0.6 2.6 0.7 3.94 6.7-0.44 13.2-0.74 19.4-0.74-1.5 3.24-3.4 5.9-5.7 7.9s-5 3.74-8 5.3c-2.9 1.5-6.7 2.72-11.2 3.8v0.49c0.9 1.34 1.59 2.71 2.1 4.21 4.7-1.7 8.1-3.25 10.3-4.5 2.1-1.18 3.5-2 4.19-2.4v13.9h4.51v-15.1l0.4-0.86c0.3-0.34 0.2-0.6-0.1-0.74h-0.7c1-0.8 2.23-1.9 3.8-3.3 1.5-1.5 3.4-4.3 5.6-8.4l1.2-0.6c0.6-0.4 0.6-0.8 0.1-1.21-1.5-1.04-2.81-1.89-3.85-2.59-0.15-0.2-0.25-0.2-0.35 0l-0.3 0.3h-5.8v-6.4l0.5-0.97c0.3-0.38 0.3-0.63-0.17-0.73l-4.73-0.3zm10.5 20.62l-2.3 3.48c3.8 1.7 7.31 4.4 10.6 7.84 1-1.44 2-2.74 3.09-3.94v-0.4c-3.79-2.66-7.59-4.98-11.39-6.98z"/>
  <path id="pNE1" d="m439.5 292.45v9.24" class="stroke"/>
  <text y="299.9" x="442.2" class="number">1</text>
  <path id="pNE2" d="m416.7 301.2l10.2-0.16" class="stroke"/>
  <text y="298.9" x="414.7" class="number">2</text>
  <path id="pNE3" d="m427.3 326.98v9.39" class="stroke"/>
  <text y="335.9" x="419.2" class="number">3</text>
  <path id="pNE4" d="m444.8 314.43l10.4 6.18" class="stroke"/>
  <text y="314.4" x="447.7" class="number">4</text>
 </g>
 <text id="cellTE" y="363" x="483" class="label cell">TE</text>
 <g id="gTE">
  <path id="pTE" d="m484 303.74v4.16h24.1v-4.16h-24.1zm-6.9 11.28v4.19h18.5c0.1 4.49-0.9 7.89-2.9 10.29-2 2.3-4.9 4-8.6 5.11v0.49c1 1.11 1.8 2.5 2.47 4 4.73-2.4 8.13-5 10.33-7.9 2.1-2.9 3.2-6.9 3.3-11.99h15.7v-4.19h-38.8z"/>
  <path id="pTE1" d="m484 300.2l12.7-0.05" class="stroke"/>
  <text y="297.3" x="484.0" class="number">1</text>
  <path id="pTE2" d="m476.9 311.71l16 0.21" class="stroke"/>
  <text y="309.5" x="475.8" class="number">2</text>
  <path id="pTE3" d="m503.9 321.6c0.4 6.6 0.5 6.75-5.1 13.32" class="stroke"/>
  <text y="329.4" x="505.5" class="number">3</text>
 </g>
 <text id="cellSE" y="363" x="547" class="label cell">SE</text>
 <g id="gSE">
  <path id="pSE" d="m549.6 328.44v-13.12c-3.6 0.58-7.1 1.12-10.6 1.69-0.1-1.81-0.48-3.21-0.9-4.31v-0.38c3.85-0.32 7.7-0.62 11.5-1.08v-8.14c0-0.67-0.1-1.2-0.2-1.7-0.2-0.41-0.1-0.7 0.32-0.7l4.98 0.28c0.4 0.15 0.5 0.42 0.22 0.82l-0.72 1.1v7.8c6.4-0.8 12.83-1.7 19.33-2.7l0.07-0.09c0.2-0.15 0.3-0.11 0.5-0.01 1 0.8 2.3 1.8 4 3.06 0.6 0.56 0.5 1.03-0.2 1.44l-1.1 0.3c-3.4 4.1-7.05 8-10.77 11.8-1.06-1.54-2.08-2.7-3.04-3.51v-0.29c3.31-2.41 6.21-5.2 8.71-8.5-6 0.79-11.9 1.62-17.5 2.5v13.6c0 2.4 0.9 3.52 2.8 3.52l18.5-0.02-0.7 4.3h-17.7c-5 0-7.5-2.56-7.5-7.66"/>
  <path id="pSE1a" d="m535.6 308.7l10.7-0.95" class="stroke"/>
  <path id="pSE1b" d="m571.6 305.5c3-0.46 6.6-1.52 9 1.21 4.8 5.29-1.29 9.49-3.88 12.22" class="stroke"/>
  <text y="306.2" x="533.8" class="number">1</text>
  <path id="pSE2" d="m558.1 297.6l-0.1 9.53" class="stroke"/>
  <text y="303.1" x="561.6" class="number">2</text>
 </g>
 <text id="cellKE" y="363" x="611" class="label cell">KE</text>
 <g id="gKE">
  <path id="pKE" d="m611 333.1c4.3-1.1 7.53-2.5 9.9-4.3 2.3-1.89 4-4.3 5-7.3 1-2.9 1.5-6.1 1.6-9.53h-11.5c-2.8 4.83-5.8 8.93-9 12.33-0.8-1.2-1.9-2.3-3.38-3.33l-0.02-0.37c2.7-2 5.1-4.8 7.38-8.4 2.32-3.7 3.72-6.7 4.22-9.1s0.7-3.8 0.4-4.2c0.1-0.6 0.33-0.8 0.9-0.6l4.3 0.8c0.5 0.1 0.54 0.3 0.17 0.7l-0.67 0.7c-0.6 2.6-1.35 5-2.29 7.3h24.29v4.17h-10.4c-0.1 3.56-0.6 6.93-1.6 10.13-0.9 3.1-2.58 5.9-4.9 8.4-2.4 2.53-6.3 4.9-11.8 7-0.6-1.47-1.4-2.8-2.6-4.1v-0.34"/>
  <path id="pKE1" d="m612.1 298.2c-1 5.3-6.09 11.8-8.7 15.35" class="stroke"/>
  <text y="304.4" x="602.6" class="number">1</text>
  <path id="pKE2" d="m623.4 304.72l15.3 0.14" class="stroke"/>
  <text y="302.2" x="625.6" class="number">2</text>
  <path id="pKE3" d="m634.3 315.98c0.2 7.42-1.7 10.32-6.01 16.03" class="stroke"/>
  <text y="325.3" x="635.6" class="number">3</text>
 </g>
 <text id="cellE" y="363" x="681" class="label cell">E</text>
 <g id="gE">
  <path id="pE" d="m673.98 306.5l29.82 0.01v4.19h-12.4v18.68l18.1 0.02v4.2h-40.7v-4.2h18.1v-18.7h-12.92v-4.19"/>
  <path id="pE1" d="m674.2 303.1l20.8-0.01" class="stroke"/>
  <text y="301.0" x="673.3" class="number">1</text>
  <path id="pE2" d="m683.4 312.5l-0.2 13.91" class="stroke"/>
  <text y="319.7" x="675.1" class="number">2</text>
  <path id="pE3" d="m669.6 337.6h16.9" class="stroke"/>
  <text y="345.3" x="670.2" class="number">3</text>
 </g>
<!-- -O -->
 <text id="cellWO" y="443" x="92" class="label cell">WO</text>
 <g id="gWO">
  <path id="pWO" d="m97.6 381.8h27.8l0.3-0.3c0.2-0.2 0.29-0.2 0.44 0 1.26 0.9 2.38 1.8 3.47 2.7 0.59 0.5 0.5 1-0.21 1.44l-0.7 0.56c-0.2 3.74-0.6 7-1.3 9.7-0.6 2.6-2 5.5-4.2 8.6-2.2 3.2-4.8 5.61-7.7 7.4-2.9 1.8-6.7 3.3-11.4 4.7-0.4-1.5-1.1-2.9-2-4.38v-0.51c3.87-0.51 7.2-1.49 10-2.81 2.87-1.4 5.1-3.29 6.8-5.6 1.7-2.4 2.9-4.7 3.54-6.9l-23.14 0.03v-3.99l24.1-0.04c0.3-1.99 0.5-4.2 0.59-6.7l-26.39 0.04v-3.99"/>
  <path id="pWO1" d="m97.8 378.43h11.8" class="stroke"/>
  <text y="376.4" x="96.8" class="number">1</text>
  <path id="pWO2" d="m96.2 389.7l13.7 0.03" class="stroke"/>
  <text y="392.3" x="90.1" class="number">2</text>
  <path id="pWO3" d="m129.7 400.66c-0.5 3.74-1.8 5.84-10.72 12.92" class="stroke"/>
  <text y="399.3" x="131.2" class="number">3</text>
 </g>
 <text id="cellRO" y="443" x="161" class="label cell">RO</text>
 <g id="gRO">
  <path id="pRO" d="m160.3 384.9v29.7h4.5v-2.4l23.8 0.01v2.43l4.6-0.04v-29.7h-32.9zm4.5 4.2l23.8 0.04v18.78l-23.8-0.02v-18.8z"/>
  <path id="pRO1" d="m155.6 389.95l-0.1 15.46" class="stroke"/>
  <text y="394.8" x="149.0" class="number">1</text>
  <path id="pRO2" d="m181.5 381.71l16.49 0.19-0.19 11.14" class="stroke"/>
  <text y="379.8" x="183.0" class="number">2</text>
  <path id="pRO3" d="m167.1 415.3l15.3 0.12" class="stroke"/>
  <text y="423.1" x="167.2" class="number">3</text>
 </g>
 <text id="cellYO" y="443" x="225" class="label cell">YO</text>
 <g id="gYO">
  <path id="pYO" d="m255.2 416.3h-4.5v-2.4h-24.6v-4h24.6v-11h-22.2v-3.8h22.2v-9.36h-24.6v-3.94h29.1v34.46"/>
  <path id="pYO1" d="m245.9 377.8h13.3v10.42" class="stroke"/>
  <text y="375.5" x="245.6" class="number">1</text>
  <path id="pYO2" d="m226.99 391.4l17.96 0.32" class="stroke"/>
  <text y="393.7" x="220.4" class="number">2</text>
  <path id="pYO3" d="m225.5 406.44h12.5" class="stroke"/>
  <text y="408.8" x="219.3" class="number">3</text>
 </g>
 <text id="cellMO" y="443" x="287" class="label cell">MO</text>
 <g id="gMO">
  <path id="pMO" d="m288.9 383.8v4h11.6 17.1v-4h-28.7zm11.6 4c-0.4 0.1-0.56 0.3-0.38 0.7 0.18 0.51 0.28 1.1 0.28 1.73v5.97h-15v4h15v7.34c0 5.1 2.5 7.66 7.5 7.66h12.9l0.7-4.3-14 0.02c-1.7-0.02-2.6-1.22-2.6-3.52v-7.2h19.04v-4h-19.04v-6.4l0.54-0.9c0.26-0.39 0.26-0.6-0.14-0.7l-4.8-0.4z"/>
  <path id="pMO1" d="m289.8 380.1h19.4" class="stroke"/>
  <text y="377.3" x="289.1" class="number">1</text>
  <path id="pMO2" d="m286.7 392.6l10.6-0.01" class="stroke"/>
  <text y="393.9" x="280.9" class="number">2</text>
  <path id="pMO3" d="m296.8 407.6c-0.1 4-0.2 7.8 0.9 9.37 1.2 1.63 6.3 1.35 10.9 1.32" class="stroke"/>
  <text y="415.9" x="290.1" class="number">3</text>
 </g>
 <text id="cellHO" y="443" x="351" class="label cell">HO</text>
 <g id="gHO">
  <path id="pHO" d="m365.7 379.6c-0.3 0.1-0.3 0.3-0.3 0.76 0.2 0.34 0.3 1.14 0.3 2.14v6.4h-17.1v4h17.1v19.4c0 0.5-0.1 0.9-0.28 1.2-0.12 0.2-0.5 0.2-1.02 0-0.6-0.2-1.4-0.6-2.5-1.1l-0.3 0.1c-0.1 1.45-0.4 3-0.8 4.42 1.9 0.58 3.5 0.88 4.8 1.18 1.3 0.2 2.39 0 3.2-0.8 0.8-0.72 1.2-1.47 1.3-2.22v-2.98-19.2h17.7v-4h-17.7v-7.38l0.5-1.02c0.2-0.4 0.1-0.6-0.2-0.8l-4.41-0.1h-0.29zm12.9 17.8l-3.1 2.8c3.1 3.5 6.6 7.5 10.52 12 1.58-1.6 2.88-2.8 3.97-3.5v-0.3c-4.39-3.57-8.19-7.26-11.39-11zm-22 1.4c-0.2 0-0.3 0.17-0.4 0.4 0 0.3-0.6 1.6-1.78 4-1.12 2.3-3.32 4.8-6.62 7.6v0.5c1.4 0.9 2.6 2 3.6 3.2 3.7-4.3 6.7-8.5 8.84-12.7l0.86-0.5c0.5-0.35 0.5-0.6-0.11-0.8l-3.89-1.58c-0.2-0.12-0.4-0.2-0.5-0.12z"/>
  <path id="pHO1" d="m348.96 385.9l11.64 0.12" class="stroke"/>
  <text y="383.1" x="347.7" class="number">1</text>
  <path id="pHO2" d="m374.2 376.6l-0.1 9.48" class="stroke"/>
  <text y="382.2" x="377.1" class="number">2</text>
  <path id="pHO3" d="m354 397.4l-7.5 9.4" class="stroke"/>
  <text y="400.2" x="342.5" class="number">3</text>
  <path id="pHO4" d="m383.6 397.6l7.9 7.81" class="stroke"/>
  <text y="400.0" x="389.1" class="number">4</text>
 </g>
 <text id="cellNO" y="443" x="419" class="label cell">NO</text>
 <g id="gNO">
  <path id="pNO" d="m442.99 380.1c-0.03-0.6 0.25-0.8 0.84-0.6l5.07 1.1c0.5 0.2 0.5 0.51 0.1 0.91l-0.8 0.8c-0.5 2.99-1.7 6.72-3.7 11.29-1.9 4.5-4.6 8.51-8 12.1-3.4 3.6-8.8 7-16.3 10.3-0.6-1.68-1.5-3.2-2.6-4.6v-0.4c5.9-1.3 10.7-3.72 14.3-7.1 3.7-3.4 6.4-7.3 8.2-11.6 1.8-4.4 2.8-7.46 3-9.1 0.2-1.7 0.1-2.77-0.11-3.14"/>
  <path id="pNO1" d="m438.9 380.3c-1.5 8.5-5.92 12.8-9.2 16.45" class="stroke"/>
  <text y="387.1" x="429.7" class="number">1</text>
 </g>
 <text id="cellTO" y="443" x="482" class="label cell">TO</text>
 <g id="gTO">
  <path id="pTO" d="m494.2 388.7c5.9 2.6 11.4 5.7 16.3 9.3v0.4c-1 1.2-1.9 2.57-2.8 4.1-5.2-4.7-10.2-8-14.96-9.8l-0.04 15.21c0 3.39 0.1 5.99 0.2 7.83h-4.9c0.2-3.14 0.3-7.94 0.3-14.34v-23.2c0-0.7-0.1-1.27-0.3-1.7-0.2-0.4-0.05-0.7 0.4-0.8l4.7 0.29c0.4 0.21 0.4 0.42 0.1 0.81l-0.5 0.83v13.67l1.5-2.65"/>
  <path id="pTO1" d="m484.4 377.4l-0.1 15.71" class="stroke"/>
  <text y="384.7" x="477.1" class="number">1</text>
  <path id="pTO2" d="m498.2 386.9l11.4 6.42" class="stroke"/>
  <text y="385.3" x="501.5" class="number">2</text>
 </g>
 <text id="cellSO" y="443" x="546" class="label cell">SO</text>
 <g id="gSO">
  <path id="pSO" d="m572.5 382.4c-0.3 0-0.54 0.2-0.6 0.6 0.2 0.4 0.2 1.81-0.1 4.3-0.4 2.51-1.2 5.67-2.6 9.51-1.3 3.79-3.8 7.29-7.5 10.29-3.6 3-7.8 5.1-12.72 6.2v0.4c1 1.2 1.72 2.6 2.16 4.2 6.46-2.5 11.46-5.4 14.96-8.7 3.5-3.4 6-7.1 7.5-11.36 1.6-4.22 2.7-8.56 3.35-13.04l0.75-0.8c0.3-0.3 0.3-0.6-0.1-0.8l-4.7-0.77c-0.1-0.03-0.27-0.03-0.4-0.03zm-24.4 1.63l-3.4 2.65c2.8 3.16 5.1 6.52 6.8 9.94 1.6-1.28 3-2.28 4.2-3-2.2-3.32-4.8-6.52-7.6-9.59z"/>
  <path id="pSO1" d="m550.6 381.5l7.5 9.42" class="stroke"/>
  <text y="382.1" x="553.4" class="number">1</text>
  <path id="pSO2" d="m581.4 384.7c0.4 7.26-5.2 16.9-7.5 21.42" class="stroke"/>
  <text y="396.9" x="582.3" class="number">2</text>
 </g>
 <text id="cellKO" y="443" x="608" class="label cell">KO</text>
 <g id="gKO">
  <path id="pKO" d="m610 384.24l31.3-0.04v28.6h-4.6v-1.99h-26.7v-4.21h26.7v-18.1h-26.7v-4.26"/>
  <path id="pKO1" d="m629.5 380.7l17-0.47 0.2 11.63" class="stroke"/>
  <text y="377.9" x="629.8" class="number">1</text>
  <path id="pKO2" d="m608.6 414.2l14.38 0.04" class="stroke"/>
  <text y="422.0" x="608.2" class="number">2</text>
 </g>
 <text id="cellO" y="443" x="680" class="label cell">O</text>
 <g id="gO">
  <path id="pO" d="m692.6 376.5l4.4 0.2c0.4 0.1 0.5 0.3 0.22 0.7l-0.52 0.9v7.74l14.25-0.04v4.2l-14.25 0.01v19.83 3.26c-0.1 0.9-0.51 1.6-1.26 2.3-0.74 0.7-1.94 0.9-3.64 0.7-1.6-0.2-3.7-0.6-6.1-1.29 0.5-1.41 0.9-2.81 1.2-4.31l0.3-0.2c1.5 0.7 2.6 1 3.4 1.1 0.7 0.13 1.2 0.1 1.37-0.1 0.23-0.3 0.33-0.7 0.33-1.3v-17.1c-2 3.1-4.6 6.3-7.78 9.5-3.12 3.3-7.12 6.77-12.02 10.6-0.9-1.67-1.9-2.97-3-3.9v-0.38c4.3-2.42 8.3-5.52 11.8-9.12 3.5-3.68 5.9-6.87 7.3-9.6h-18.3v-4.2h22v-6.6c0-1.1-0.1-1.8-0.33-2.2-0.17-0.5 0.13-0.8 0.65-0.72"/>
  <path id="pO1" d="m670.5 383.03l15.48-0.15" class="stroke"/>
  <text y="381.1" x="669.5" class="number">1</text>
  <path id="pO2" d="m700.8 373.63l-0.1 10.16" class="stroke"/>
  <text y="376.9" x="703.1" class="number">2</text>
  <path id="pO3" d="m683.3 392.5c-2.35 3.1-9.2 8.8-12.4 11.23" class="stroke"/>
  <text y="397.7" x="670.0" class="number">3</text>
 </g>
<!-- column headers -->
 <text id="colN" y="35" x="38" class="label col">n</text>
 <text id="colw" y="35" x="102" class="label col">w–</text>
 <text id="colr" y="35" x="170" class="label col">r–</text>
 <text id="coly" y="35" x="234" class="label col">y–</text>
 <text id="colm" y="35" x="296" class="label col">m–</text>
 <text id="colh" y="35" x="362" class="label col">h–</text>
 <text id="coln" y="35" x="426" class="label col">n–</text>
 <text id="colt" y="35" x="492" class="label col">t–</text>
 <text id="cols" y="35" x="556" class="label col">s–</text>
 <text id="colk" y="35" x="618" class="label col">k–</text>
<!-- row headers -->
 <text id="rowa" y="91" x="736" class="label row">–a</text>
 <text id="rowi" y="171" x="736" class="label row">–i</text>
 <text id="rowu" y="253" x="736" class="label row">–u</text>
 <text id="rowe" y="333" x="736" class="label row">–e</text>
 <text id="rowo" y="411" x="736" class="label row">–o</text>
</svg>
