<?xml version="1.0" standalone="no"?>
<!DOCTYPE svg PUBLIC "-//W3C//DTD SVG 20010904//EN"
 "http://www.w3.org/TR/2001/REC-SVG-20010904/DTD/svg10.dtd">
<svg version="1.0" xmlns="http://www.w3.org/2000/svg"
 width="260.000000pt" height="260.000000pt" viewBox="0 0 260.000000 260.000000"
 preserveAspectRatio="xMidYMid meet">
<metadata>
Created by potrace 1.11, written by Peter Selinger 2001-2013
</metadata>
<g transform="translate(0.000000,260.000000) scale(0.100000,-0.100000)"
fill="#000000" stroke="none">
<path d="M797 2360 c-7 -3 -13 -30 -14 -70 -1 -36 -3 -98 -4 -137 -2 -56 -6
-74 -18 -77 -9 -3 -134 -4 -279 -4 -144 0 -266 -2 -269 -6 -5 -5 -7 -129 -4
-244 l1 -28 271 1 c149 0 274 -2 279 -5 5 -3 8 -72 7 -153 l-2 -148 -65 -35
c-215 -116 -388 -282 -471 -449 -80 -163 -91 -378 -25 -517 44 -92 137 -160
250 -184 55 -12 179 -12 231 0 107 23 157 41 250 87 287 145 611 490 795 847
36 70 35 70 120 27 177 -90 249 -237 203 -415 -19 -70 -36 -102 -80 -151 -115
-127 -321 -191 -658 -203 -55 -2 -53 4 -39 -86 3 -25 8 -54 9 -65 17 -110 26
-145 38 -146 24 -2 153 2 202 6 83 8 149 16 165 20 8 2 31 7 50 10 19 3 73 17
120 32 360 110 552 326 565 633 13 313 -155 526 -509 646 -217 74 -537 97
-771 55 l-40 -7 0 98 c0 54 2 98 5 99 3 1 253 2 555 4 303 1 552 3 555 4 11 2
6 271 -5 272 -5 0 -252 0 -549 0 l-538 0 6 145 c5 132 4 144 -12 145 -77 4
-315 3 -325 -1z m633 -1012 c0 -40 -215 -365 -265 -400 -13 -9 -22 15 -30 88
-4 32 -9 68 -11 79 -2 11 -7 61 -10 111 -6 84 -5 92 12 97 30 9 124 26 179 33
28 3 51 7 52 8 7 7 73 -8 73 -16z m-635 -208 c2 -12 7 -48 11 -79 3 -31 17
-112 31 -181 41 -205 43 -184 -18 -219 -76 -44 -150 -70 -211 -75 -48 -3 -55
-1 -85 29 -18 18 -33 44 -34 56 -1 13 -2 38 -4 54 -9 90 45 209 138 307 61 63
157 142 164 134 2 -2 6 -13 8 -26z"/>
</g>
</svg>
