<?xml version="1.0" standalone="no"?>
<!DOCTYPE svg PUBLIC "-//W3C//DTD SVG 20010904//EN"
 "http://www.w3.org/TR/2001/REC-SVG-20010904/DTD/svg10.dtd">
<svg version="1.0" xmlns="http://www.w3.org/2000/svg"
 width="700.000000pt" height="700.000000pt" viewBox="0 0 700.000000 700.000000"
 preserveAspectRatio="xMidYMid meet">
<metadata>
Created by potrace 1.11, written by Peter Selinger 2001-2013
</metadata>
<g transform="translate(0.000000,700.000000) scale(0.100000,-0.100000)"
fill="#000000" stroke="none">
<path d="M2863 5634 c17 -58 23 -224 13 -359 -10 -142 -18 -239 -21 -254 -2
-9 -4 -35 -4 -58 -1 -23 -7 -48 -14 -55 -11 -10 -80 -13 -333 -12 -285 1 -376
4 -560 20 l-51 4 2 -43 c1 -23 6 -98 9 -167 9 -154 14 -186 33 -227 25 -53 52
-56 474 -57 l376 0 -2 -61 c-11 -315 -18 -482 -19 -511 -3 -33 -8 -37 -124
-104 -211 -121 -351 -228 -522 -401 -264 -266 -426 -552 -484 -854 -15 -78
-17 -317 -3 -373 60 -241 189 -380 392 -422 56 -12 237 -16 253 -6 4 2 23 7
42 10 145 23 416 148 630 292 l64 43 22 -58 c42 -112 81 -171 114 -171 43 0
297 145 363 208 34 33 34 44 -4 139 -17 43 -39 101 -49 129 l-18 50 40 45 c23
24 64 69 92 100 101 110 123 135 189 219 38 47 75 93 83 103 8 10 46 61 84
115 38 53 73 102 78 107 37 46 213 332 292 475 35 63 64 116 65 118 5 6 164
-52 215 -79 195 -104 320 -257 370 -455 27 -106 23 -294 -9 -409 -24 -86 -74
-192 -124 -265 -44 -64 -161 -178 -237 -232 -185 -130 -579 -290 -874 -353
-31 -7 -30 -12 16 -52 91 -80 193 -191 234 -254 78 -122 112 -130 301 -73 314
95 604 238 793 391 124 100 269 269 342 398 157 279 188 660 78 982 -83 244
-278 476 -515 611 -111 63 -355 162 -401 162 -22 0 -16 21 16 65 40 54 58 94
53 116 -10 37 -80 91 -188 144 -102 50 -321 133 -329 124 -2 -2 -7 -29 -10
-59 -4 -30 -14 -82 -22 -115 -9 -33 -17 -64 -18 -70 -1 -5 -10 -33 -20 -61
l-19 -51 -58 -2 c-102 -3 -226 -10 -255 -15 -16 -2 -56 -7 -89 -11 -32 -4 -62
-8 -65 -10 -3 -2 -26 -6 -50 -10 -37 -5 -126 -27 -213 -52 -18 -5 -18 1 -13
99 5 95 13 202 21 283 2 17 3 47 4 67 1 41 4 42 121 53 157 15 250 25 315 35
51 8 83 12 185 25 107 13 167 23 265 40 44 8 100 17 125 20 24 4 47 8 50 10 4
2 29 7 56 11 27 3 51 8 54 9 3 2 46 11 95 19 143 25 146 26 176 42 46 24 58
51 53 124 -5 91 -22 197 -46 288 -8 32 -17 44 -35 48 -13 4 -117 -12 -231 -35
-228 -46 -233 -47 -312 -61 -30 -5 -82 -14 -115 -20 -33 -5 -80 -13 -105 -16
-25 -3 -52 -7 -60 -9 -8 -3 -42 -7 -75 -11 -33 -3 -62 -7 -65 -9 -3 -2 -34 -6
-70 -10 -79 -8 -108 -11 -180 -20 -116 -14 -109 -15 -105 16 2 15 9 56 15 91
7 35 13 74 15 88 9 69 29 131 60 188 68 123 47 165 -108 212 -79 23 -154 40
-280 60 -40 6 -83 14 -97 16 -14 2 -51 7 -84 11 -54 5 -58 4 -53 -13z m962
-2050 c-26 -48 -52 -97 -58 -108 -60 -108 -278 -435 -322 -482 -5 -6 -37 -45
-70 -87 -33 -42 -63 -76 -66 -76 -6 -1 -14 43 -25 139 -2 19 -6 54 -9 77 -3
23 -8 74 -10 115 -3 40 -7 96 -10 123 -2 28 -5 99 -6 159 l-3 109 39 14 c108
38 311 79 455 92 41 3 88 7 104 9 l28 2 -47 -86z m-1058 -281 c0 -44 14 -226
18 -248 2 -11 7 -45 9 -75 6 -58 42 -331 49 -365 3 -11 8 -43 12 -72 l7 -51
-107 -76 c-203 -143 -347 -207 -462 -203 -53 2 -66 6 -94 32 -51 48 -68 97
-63 179 13 225 136 459 356 679 82 82 253 227 269 227 3 0 5 -12 6 -27z"/>
</g>
</svg>
