<?xml version="1.0" encoding="UTF-8" standalone="no"?>
<svg id="svg2" xmlns:rdf="http://www.w3.org/1999/02/22-rdf-syntax-ns#" xmlns="http://www.w3.org/2000/svg" height="464" width="768" version="1.0" xmlns:cc="http://web.resource.org/cc/" xmlns:dc="http://purl.org/dc/elements/1.1/">
 <metadata id="metadataHiragana">
  <rdf:RDF>
   <cc:Work rdf:about="">
    <dc:format>image/svg+xml</dc:format>
    <dc:type rdf:resource="http://purl.org/dc/dcmitype/StillImage"/>
   </cc:Work>
  </rdf:RDF>
 </metadata>
<!-- arrow ends -->
 <defs id="defsHiragana">
  <marker id="Arrow1Mend" refY="0" refX="0" overflow="visible" orient="auto">
   <path id="path3362" d="m0 0l5-5-17.5 5 17.5 5-5-5z" transform="matrix(-.4 0 0 -.4 -4 0)" class="arrow" stroke="blue"/>
  </marker>
 </defs>
 <style type="text/css">path.stroke /* arrow lines */
		{
			fill: none; fill-opacity: 0.75; fill-rule: evenodd;
			stroke: blue; stroke-width: 1px; stroke-linecap: butt; stroke-linejoin: miter; stroke-opacity:1;
			marker-end: url(#Arrow1Mend);
		}
		path.arrow /* heads */
		{
			font-size: 12px;
			fill-rule: evenodd;
			fill: blue;
			stroke: blue; stroke-width: 1pt;/*0.625*/ stroke-linejoin: round;
			marker-start: none;
		}
		text.number
		{
			font-size: 8px;
			fill: blue;
		}
		text.label
		{
			font-size: 22px;
		}
		text.cell
		{
			font-style: italic;
			text-transform: lowercase;
			fill: gray;
/*			display: none;*/
		}
/*		path.old
		{
			fill: gray;
		}
*/		path.rule
		{
			fill: none; fill-opacity: 0.75; fill-rule: evenodd;
			stroke: black; stroke-width: 1px; stroke-linecap: butt; stroke-linejoin: miter; stroke-opacity: 0.1;
		}
		path.rule[id*=&quot;V&quot;]
		{
			stroke-opacity: 0;
		}
		path#ruleH1, path#ruleV12
		{
			stroke-opacity: 0.8;
		}
		defs marker
		{
			overflow: visible;
		}</style>
<!-- table rules -->
 <g id="gTable"><!-- vertical rules, left to right -->
  <path id="ruleV01" d="m16.5 47.5v400" class="rule"/>
  <path id="ruleV02" d="m80.5 47v400" class="rule"/>
  <path id="ruleV03" d="m144.5 47v400" class="rule"/>
  <path id="ruleV04" d="m208.5 47v400" class="rule"/>
  <path id="ruleV05" d="m272.5 47v400" class="rule"/>
  <path id="ruleV06" d="m336.5 47v400" class="rule"/>
  <path id="ruleV07" d="m400.5 47v400" class="rule"/>
  <path id="ruleV08" d="m464.5 47v400" class="rule"/>
  <path id="ruleV09" d="m528.5 47v400" class="rule"/>
  <path id="ruleV10" d="m592.5 47v400" class="rule"/>
  <path id="ruleV11" d="m656.5 47v400" class="rule"/>
  <path id="ruleV12" d="m720.5 47v400" class="rule"/>
<!-- horizontal rules, top to bottom -->
  <path id="ruleH1" d="m16.5 47.5h64 64 64 64 64 64 64 64 64 64 64" class="rule"/>
  <path id="ruleH2" d="m16.5 127.5h704" class="rule"/>
  <path id="ruleH3" d="m16.5 207.5h704" class="rule"/>
  <path id="ruleH4" d="m16.5 287.5h704" class="rule"/>
  <path id="ruleH5" d="m16.5 367.5h704" class="rule"/>
  <path id="ruleH6" d="m16.5 447.5h704" class="rule"/>
 </g>
<!-- glyphs -->
 <text id="cellN" y="122.67139" x="38.317238" class="label cell">N</text>
 <g id="gN">
  <path id="flowRoot1947" d="m45.895 57.057c1.844 0.875 3.484 1.469 4.922 1.781 0.344 0.281 0.297 0.563-0.141 0.844l-0.937 0.609c-3.469 6.875-6.344 12.578-8.625 17.11 2.437-1.657 4.25-2.579 5.437-2.766 1.188-0.188 2.219-0.156 3.094 0.094 0.906 0.25 1.641 0.797 2.203 1.64 0.563 0.813 0.969 2.516 1.219 5.11 0.25 2.562 0.562 4.718 0.937 6.468s1.297 2.657 2.766 2.719c1.469 0.031 2.828-0.75 4.078-2.344 1.281-1.625 2.359-3.781 3.234-6.468 0.875-2.719 1.297-4.313 1.266-4.782h0.516c1.406 1.219 2.828 2.235 4.265 3.047-0.375 0.782-1.031 2.235-1.968 4.36-0.938 2.125-2.313 4.39-4.125 6.797-1.782 2.375-3.954 3.625-6.516 3.75-2.531 0.125-4.344-0.313-5.438-1.313-1.062-1.031-1.781-2.578-2.156-4.641-0.344-2.062-0.609-4.171-0.797-6.328-0.156-2.187-0.531-3.578-1.125-4.172-0.593-0.593-1.406-0.671-2.437-0.234-1.031 0.406-2.297 1.141-3.797 2.203-1.5 1.031-2.797 2.078-3.891 3.141-0.781 1.5-1.875 3.562-3.281 6.187s-2.469 4.61-3.187 5.953c-1.375-1.281-2.766-2.171-4.172-2.671v-0.563c5.031-7.594 9.312-15.219 12.843-22.875 3.563-7.687 5.219-11.719 4.969-12.094-0.094-0.562 0.188-0.75 0.844-0.562"/>
  <path id="path2309" d="m39.223 60.505l-13.144 21.698" class="stroke"/>
  <path id="path3382" d="m21.631 90.272s-0.295 6.955 4.428 8.22c5.891 1.578 11.583-2.469 17.051-5.977" class="stroke"/>
  <path id="path4269" d="m64.69 97.577c4.868-1.697 7.929-10.733 8.999-13.425" class="stroke"/>
  <text y="65.344055" x="25.525475" class="number">1</text>
 </g>
<!-- -A -->
 <text id="cellWA" y="122.67139" x="94.317238" class="label cell">WA</text>
 <g id="gWA">
  <path id="path2027" d="m115.66 92.945c2.62-0.375 4.72-0.797 6.28-1.265 1.56-0.5 2.97-1.297 4.22-2.391 1.28-1.125 2.15-2.563 2.62-4.313 0.5-1.75 0.63-3.421 0.38-5.015-0.22-1.594-0.82-3-1.78-4.219-0.94-1.25-2.13-2.031-3.57-2.344-1.4-0.312-2.97-0.375-4.68-0.187-1.69 0.187-3.65 0.812-5.86 1.875-2.22 1.062-4.41 2.515-6.57 4.359 0.03 2.281 0.07 4.938 0.1 7.969 0.06 3.031 0.34 6.609 0.84 10.734l-0.14 0.422c-1.41 0.094-3.02 0.36-4.83 0.797-0.09-4.219-0.15-7.641-0.19-10.266v-5.39c-2.06 2.375-4.464 5.5-7.214 9.375l-0.422 0.047c-1.031-1.407-2.188-2.485-3.469-3.235 4.594-5.062 8.297-8.922 11.105-11.578v-3.75-2.812c-2.745 0.687-5.339 1.515-7.777 2.484-0.156-1.312-0.593-2.719-1.312-4.219l0.094-0.422c3.187-0.375 6.203-0.875 9.045-1.5 0.03-1.531 0.1-3.265 0.19-5.203 0.09-1.968 0.01-3.14-0.24-3.515-0.15-0.563 0-0.813 0.47-0.75l4.64 0.468c0.38 0.157 0.38 0.407 0 0.75l-0.51 0.75c-0.13 2.032-0.22 4.016-0.28 5.954l0.09-0.141c0.16-0.125 0.31-0.125 0.47 0 1.22 0.562 2.34 1.187 3.37 1.875 0.47 0.406 0.38 0.797-0.28 1.172l-1.68 0.937c-0.75 1.157-1.46 2.219-2.11 3.188l0.04 1.172c1.85-1.375 3.83-2.5 5.96-3.375 2.15-0.907 4.28-1.469 6.37-1.688 2.1-0.219 4.17-0.078 6.24 0.422 2.06 0.469 3.87 1.625 5.43 3.469 1.6 1.844 2.52 3.781 2.77 5.812 0.25 2 0.12 4.078-0.38 6.235-0.46 2.125-1.45 3.937-2.95 5.437s-3.19 2.703-5.06 3.61c-1.88 0.875-4.44 1.687-7.69 2.437-0.5-1.5-1.08-2.734-1.73-3.703v-0.469"/>
  <path id="path6069" d="m110.5 52.415l0.22 9.666" class="stroke"/>
  <path id="path6956" d="m87.63 67.452l12.54-2.361" class="stroke"/>
  <path id="path7845" d="m90.755 86.48s-5.66 6.824-3.73 9.197c1.93 2.374 8.071 0.129 12.703-1.106" class="stroke"/>
  <path id="path8732" d="m119.72 65.681c12.94-3.245 15.95 7.377 17.92 12.393" class="stroke"/>
  <text y="58.074268" x="112.88158" class="number">1</text>
  <text y="64.12281" x="86.377449" class="number">2</text>
 </g>
 <text id="cellRA" y="122.67139" x="160.31723" class="label cell">RA</text>
 <g id="gRA" transform="translate(7.0812 1.7703)">
  <path id="path2043" d="m165.39 56.937l-2.25 3.687c4.22 1.782 9.13 3.375 14.69 4.75 0.47-1.656 0.88-2.968 1.25-3.937l-0.19-0.344c-5.4-0.906-9.9-2.281-13.5-4.156zm-4.68 10.562c-0.33-0.029-0.48 0.204-0.5 0.719 0.21 0.625 0.12 1.844-0.25 3.625-0.35 1.75-0.66 3.625-0.97 5.625-0.28 2-0.6 4.75-0.91 8.25l4.5 1.031c0.94-1.406 2.22-2.781 3.84-4.093 1.66-1.344 3.79-2.25 6.38-2.719 2.62-0.5 4.78-0.594 6.44-0.313 1.65 0.25 2.9 0.907 3.78 2 0.9 1.063 1.25 2.532 1 4.375-0.22 1.844-1.19 3.313-2.91 4.438-1.69 1.125-3.69 1.844-6 2.156-2.28 0.313-5.56 0.25-9.81-0.187l-0.19 0.25c0.38 1.187 0.6 2.562 0.63 4.125 5.75 0.25 10.09-0.094 13.03-1 2.97-0.907 5.25-2.25 6.84-4.032 1.63-1.781 2.56-3.656 2.81-5.625 0.25-2-0.15-3.937-1.21-5.812-1.04-1.875-3.04-3.156-5.97-3.875-2.91-0.75-5.97-0.781-9.19-0.063-3.22 0.688-6.22 2.188-9.03 4.469 0.09-1.094 0.25-2.406 0.47-3.906 0.22-1.531 0.62-3.906 1.22-7.125l0.68-0.688c0.22-0.25 0.22-0.468-0.03-0.656l-4.28-0.844c-0.14-0.07-0.27-0.115-0.37-0.125z"/>
  <path id="path9627" d="m166.13 53.292s10.38 3.693 13.85 4.923" class="stroke"/>
  <path id="path10514" d="m156.37 61.622c-0.22 3.101-0.47 7.609-0.7 12.75" class="stroke"/>
  <path id="path10516" d="m155.88 80.771c-0.84 2.802-2.28 9.202-0.42 10.479 1.74 1.2 5.59-1.005 11.41-3.623" class="stroke"/>
  <text y="66.64756" x="149.49229" class="number">2</text>
  <text y="54.512691" x="178.48547" class="number">1</text>
 </g>
 <text id="cellYA" y="122.67139" x="226.31723" class="label cell">YA</text>
 <g id="gYA" transform="translate(0,2)">
  <path id="path2053" d="m233.4 61.466c0.85 2.875 1.69 5.594 2.54 8.156 2.84-1.093 5.59-2.078 8.25-2.953 0.06-2.062 0.09-3.859 0.09-5.39 0-1.563-0.05-2.453-0.14-2.672-0.19-0.375-0.1-0.672 0.28-0.891l4.64 0.469c0.44 0.062 0.53 0.312 0.28 0.75l-0.61 0.844c-0.22 2.25-0.37 4.218-0.47 5.906 1.28-0.25 2.75-0.359 4.41-0.328 1.69 0 3.36 0.469 5.02 1.406 1.68 0.938 2.96 2.141 3.84 3.609 0.87 1.438 1.31 2.954 1.31 4.547 0.03 1.563-0.28 3.094-0.94 4.594-0.65 1.469-1.68 2.656-3.09 3.562-1.37 0.907-2.92 1.469-4.64 1.688-1.69 0.219-3.44 0.016-5.25-0.609-1.78-0.625-3.72-1.922-5.81-3.891l2.95-3.141c1.63 1.688 3 2.735 4.13 3.141 1.15 0.406 2.21 0.594 3.18 0.562 1-0.062 1.85-0.281 2.53-0.656 0.72-0.375 1.35-1.078 1.88-2.109 0.56-1.031 0.8-2.047 0.7-3.047-0.06-1.031-0.34-2.016-0.84-2.953-0.5-0.938-1.3-1.672-2.39-2.203-1.1-0.531-2.44-0.797-4.03-0.797-1.57 0-3.5 0.391-5.82 1.172-2.28 0.75-5.01 1.781-8.2 3.093 1.53 4.313 2.94 8.016 4.22 11.11 1.28 3.062 2.91 6.687 4.87 10.875v0.562c-1.75 0.375-3.4 0.969-4.96 1.782-1.63-4.782-3.05-8.735-4.27-11.86-1.19-3.156-2.47-6.75-3.84-10.781-3.03 1.313-6.3 2.797-9.8 4.453-0.69-1.437-1.59-2.797-2.72-4.078l0.24-0.422c3.93-1.25 7.59-2.515 10.96-3.797-0.62-1.875-1.26-3.797-1.92-5.765-0.62-1.969-1.23-3.172-1.83-3.61-0.34-0.281-0.31-0.609 0.1-0.984l5.01-1.406c0.5-0.032 0.66 0.203 0.47 0.703l-0.33 1.359"/>
  <path id="path10536" d="m212.77 73.654s10.49-3.245 15-4.361" class="stroke"/>
  <text y="69.684494" x="213.79829" class="number">1</text>
  <path id="path10542" d="m254.1 51.274s-1.24 8.347-1.63 11.09" class="stroke"/>
  <text y="59.381039" x="256.3884" class="number">2</text>
  <path id="path10548" d="m234.73 51.638s3.63 11.223 4.64 14.114" class="stroke"/>
  <text y="56.356766" x="228.19043" class="number">3</text>
 </g>
 <text id="cellMA" y="122.67139" x="288.31723" class="label cell">MA</text>
 <g id="gMA" transform="translate(2.3604 .81980)">
  <path id="path2075" d="m303.98 56.42c-0.46 0.063-0.62 0.313-0.5 0.75 0.35 0.438 0.63 2.813 0.85 7.125-5.47 0.281-10.69 0.313-15.63 0.094l-0.22 0.312c0.5 1.532 0.72 2.938 0.66 4.188 5-0.344 10.13-0.656 15.38-0.938 0.06 1.625 0.09 2.907 0.09 3.875 0.03 0.938 0.03 1.782 0.03 2.532-3.94 0.125-6.5 0.125-7.72 0-1.19-0.157-2.34-0.563-3.47-1.25l-2.22 3.375c1.63 0.937 3.22 1.468 4.79 1.625 1.59 0.125 4.5 0.125 8.68-0.032 0.03 1.282 0.07 3.063 0.1 5.375-2.44-0.437-4.63-0.531-6.57-0.312-1.9 0.219-3.56 0.812-4.93 1.781-1.35 0.969-2.22 2.156-2.66 3.594-0.44 1.406-0.5 2.625-0.19 3.656 0.35 1 0.97 1.906 1.88 2.688 0.94 0.781 2.06 1.375 3.37 1.781 1.35 0.437 2.63 0.656 3.88 0.656s2.53-0.156 3.81-0.437c1.28-0.282 2.44-0.907 3.47-1.875 1.03-0.969 1.62-2 1.81-3.125s0.31-2.313 0.35-3.532c3.28 1.25 6.81 3.219 10.59 5.875 0.81-1.718 1.66-3.125 2.56-4.187v-0.563c-4.81-2.218-9.19-3.875-13.12-4.968-0.07-2.907-0.1-5.094-0.13-6.594 4.66-0.25 8.06-0.469 10.22-0.656l-0.37-4.032c-2.63 0.438-5.94 0.75-9.94 0.969 0-0.531-0.03-1.219-0.06-2.062 0-0.875-0.04-2.344-0.1-4.407 5.44-0.281 9.66-0.562 12.66-0.843l-0.66-4.125c-3.4 0.531-7.4 0.968-12.03 1.281-0.03-1.656-0.09-3.5-0.16-5.531l0.66-1.094c0.22-0.406 0.13-0.656-0.28-0.781l-4.88-0.188zm-3.81 29.844c1.2 0.035 2.71 0.32 4.56 0.812-0.03 1.438-0.12 2.625-0.28 3.594-0.15 0.938-0.59 1.656-1.34 2.125-0.75 0.438-1.56 0.719-2.41 0.844-0.84 0.094-1.97 0-3.4-0.25-1.41-0.281-2.32-1.063-2.69-2.344-0.38-1.312-0.03-2.375 1-3.219 1.03-0.875 2.19-1.375 3.47-1.5 0.33-0.039 0.69-0.074 1.09-0.062z"/>
  <path id="path10558" d="m284.98 61.287s11.53-0.011 16.25-0.188" class="stroke"/>
  <text y="64.09156" x="279.37015" class="number">1</text>
  <path id="path10564" d="m284.98 71.287s12.57-0.158 17.28-0.336" class="stroke"/>
  <text y="73.069183" x="279.35571" class="number">2</text>
  <path id="path10570" d="m312.43 50.559s-0.3 6.99-0.38 9.838" class="stroke"/>
  <text y="58.561241" x="316.3884" class="number">3</text>
  <path id="path10576" d="m293.55 101.12c-12.81-3.736-8.17-12.954-6.96-17.295" class="stroke"/>
  <path id="path11463" d="m316.7 83.592c0.63 0.208 10.33 3.859 10.33 3.859" class="stroke"/>
 </g>
 <text id="cellHA" y="122.67139" x="352.31723" class="label cell">HA</text>
 <g id="gHA">
  <path id="path2099" d="m375.5 60.506c-0.4 0.063-0.56 0.313-0.44 0.75 0.29 0.438 0.44 1.563 0.47 3.407 0.07 1.843 0.13 3.25 0.19 4.218-4.09 0.188-8.5 0.125-13.22-0.187l-0.22 0.344c0.19 1.218 0.32 2.562 0.41 4.062 4.66-0.125 9.06-0.281 13.19-0.469 0 0.375 0.03 1.282 0.09 2.719 0.09 1.438 0.13 3.438 0.13 5.969 0.03 2.531 0.06 4.156 0.06 4.906-2.03-0.437-3.81-0.594-5.35-0.5-1.53 0.094-3 0.5-4.4 1.25-1.38 0.719-2.28 1.781-2.69 3.156-0.37 1.375-0.41 2.563-0.12 3.563 0.31 0.969 0.78 1.781 1.4 2.437 0.63 0.657 1.6 1.219 2.91 1.688 1.34 0.5 2.56 0.75 3.65 0.781 1.1 0.031 2.22-0.062 3.38-0.312 1.19-0.25 2.22-0.75 3.12-1.469 0.94-0.719 1.54-1.625 1.79-2.719 0.25-1.125 0.43-2 0.53-2.625 2.18 1.063 4.72 2.594 7.59 4.563 0.75-1.813 1.53-3.282 2.38-4.375v-0.375c-3.82-1.719-7.07-3-9.79-3.875 0-0.938-0.06-2.719-0.15-5.313-0.1-2.625-0.16-4.719-0.22-6.312-0.03-1.625-0.06-2.75-0.09-3.375 3.43-0.157 6.21-0.344 8.37-0.532l-0.59-4.031c-2.38 0.281-5 0.531-7.88 0.75-0.06-1.875-0.12-4-0.19-6.375l0.47-0.75c0.35-0.344 0.32-0.594-0.09-0.781l-4.69-0.188zm-24.9 1.25c-0.54 0.032-0.66 0.25-0.41 0.657 0.28 0.312 0.28 2.156 0 5.5-0.25 3.343-0.47 7.562-0.66 12.656-0.15 5.094-0.09 8.781 0.19 11.094 0.31 2.281 0.94 4.125 1.88 5.531 0.93 1.437 2.06 2.062 3.37 1.875 1.31-0.156 3.09-1.563 5.34-4.25-1.03-1.094-2.06-2.344-3.09-3.75l-0.25 0.031c-0.91 1.844-1.53 2.688-1.91 2.5-0.37-0.187-0.71-1.031-1.03-2.531-0.31-1.5-0.4-4.938-0.28-10.281 0.16-5.344 0.56-10.938 1.22-16.813l0.66-0.75c0.37-0.375 0.31-0.656-0.16-0.812l-4.87-0.657zm20.75 27.282c0.14-0.013 0.3-0.006 0.46 0 1.02 0.035 2.45 0.32 4.25 0.812-0.03 0.938-0.12 1.875-0.28 2.813-0.12 0.906-0.56 1.531-1.31 1.875-0.75 0.312-1.53 0.5-2.31 0.562-0.78 0.063-1.72-0.062-2.85-0.375-1.09-0.312-1.71-1.031-1.87-2.156-0.13-1.125 0.16-1.938 0.87-2.438 0.75-0.531 1.63-0.875 2.63-1.031 0.12-0.019 0.26-0.05 0.41-0.062z"/>
  <path id="path12358" d="m347.17 64.07c-2.2 7.58-1.72 15.511-0.96 23.828" class="stroke"/>
  <text y="62.647556" x="344.53799" class="number">1</text>
  <path id="path12364" d="m360.99 65.951s6.88-0.011 11.6-0.188" class="stroke"/>
  <text y="62.479084" x="363.04385" class="number">2</text>
  <path id="path12370" d="m382.81 53.321s0.62 6.996 0.98 11.909" class="stroke"/>
  <text y="56.782543" x="385.49484" class="number">3</text>
  <path id="path12431" d="m362.4 96.441c-4.53-14.553 6.45-12.85 10.21-12.971" class="stroke"/>
  <path id="path13318" d="m383.88 84.289l7.93 3.86" class="stroke"/>
 </g>
 <text id="cellNA" y="122.67139" x="416.31723" class="label cell">NA</text>
 <g id="gNA">
  <path id="path2129" d="m426.6 58.471c-0.31 0.094-0.5 0.313-0.53 0.656 0.31 0.563 0.22 1.688-0.28 3.375-0.47 1.688-0.87 3.094-1.22 4.219-3.03 0.313-6.31 0.469-9.84 0.469 0.37 1.344 0.62 2.781 0.72 4.312 2.68-0.249 5.25-0.499 7.72-0.781-0.82 2.094-1.97 4.657-3.47 7.719-1.47 3.031-3.38 6.313-5.75 9.812l0.03 0.407c1.19 0.625 2.5 1.531 3.9 2.718 2.63-4.812 4.66-8.874 6.1-12.187 1.47-3.312 2.72-6.344 3.78-9.125 3.97-0.562 7.12-1.125 9.44-1.688l-1.32-3.843c-1.9 0.625-4.15 1.156-6.71 1.593 0.5-1.593 1.06-3.406 1.65-5.406l0.69-0.75c0.41-0.375 0.41-0.625 0-0.781l-4.91-0.719zm16.25 7.313l-1.78 3.656c3.53 1.375 7.19 3.406 10.97 6.094 0.97-1.563 1.81-2.906 2.53-4.063-4.22-2.156-8.12-4.062-11.72-5.687zm-4.68 9.062c-0.6 0-0.82 0.25-0.66 0.75 0.22 0.407 0.37 1.594 0.47 3.594 0.09 2 0.15 4.25 0.15 6.719-1.78-0.344-3.43-0.469-4.96-0.375-1.5 0.062-2.91 0.375-4.22 0.937-1.28 0.532-2.28 1.438-2.97 2.719s-1 2.562-0.94 3.844c0.09 1.281 0.59 2.375 1.5 3.312 0.91 0.938 2.03 1.563 3.34 1.875 1.35 0.344 2.57 0.532 3.66 0.532 1.13 0 2.25-0.157 3.38-0.469 1.12-0.281 2.12-0.844 3-1.688 0.87-0.812 1.4-1.812 1.62-2.969 0.25-1.187 0.41-2.062 0.47-2.656 1.12 0.469 2.37 1.094 3.75 1.875 1.37 0.781 3.19 1.875 5.41 3.281 0.71-1.593 1.5-3 2.34-4.218-4.69-2.344-8.44-4-11.25-4.938-0.03-3.312-0.06-6.75-0.09-10.312l0.4-0.688c0.28-0.375 0.22-0.656-0.19-0.812l-4.21-0.313zm-3.91 14c0.54-0.008 1.01 0.047 1.44 0.156 0.84 0.219 1.62 0.407 2.34 0.594-0.03 0.719-0.12 1.5-0.25 2.344-0.12 0.844-0.41 1.531-0.87 2.031-0.47 0.5-1.04 0.813-1.69 0.969-0.66 0.125-1.56 0.187-2.72 0.156-1.13-0.062-2-0.312-2.63-0.719-0.59-0.406-0.84-1-0.75-1.812 0.1-0.844 0.35-1.594 0.75-2.219 0.41-0.656 1.25-1.093 2.57-1.312 0.65-0.125 1.27-0.18 1.81-0.188z"/>
  <text y="62.388508" x="451.09698" class="number">3</text>
  <path id="path14223" d="m409.53 63.764c1.48 0 10.47-1.623 10.47-1.623" class="stroke"/>
  <path id="path15110" d="m437.71 52.994l-3.99 8.704" class="stroke"/>
  <path id="path15997" d="m444.79 62.731l11.36 5.458" class="stroke"/>
  <path id="path16884" d="m445.53 74.976l0.14 10.326" class="stroke"/>
  <text y="55.798409" x="438.76831" class="number">2</text>
  <text y="83.94593" x="448.94946" class="number">4</text>
  <text y="60.257797" x="408.68805" class="number">1</text>
 </g>
 <text id="cellTA" y="122.67139" x="484.31723" class="label cell">TA</text>
 <g id="gTA">
  <path id="path2143" d="m489.86 58.914c-0.44 0.094-0.66 0.313-0.69 0.657 0.31 0.562 0.25 1.781-0.19 3.625-0.4 1.812-0.71 3.187-0.93 4.125-2.85 0.187-5.91 0.25-9.16 0.187l-0.22 0.313c0.41 1.468 0.66 2.906 0.75 4.281 2.63-0.219 5.13-0.469 7.53-0.719-0.31 1.125-0.84 3.031-1.59 5.688-0.72 2.625-1.63 5.468-2.72 8.531-1.09 3.031-2.66 6.375-4.69 10.062l0.07 0.625c1.46 0.688 2.9 1.469 4.34 2.375 2-4.781 3.5-8.75 4.5-11.937 1.03-3.219 1.97-6.25 2.81-9.094 0.85-2.844 1.5-5.125 1.94-6.812 4.91-0.625 8.72-1.188 11.44-1.688l0.03-0.281-1.22-3.938c-2.72 0.813-5.78 1.438-9.22 1.875 0.44-1.75 0.88-3.562 1.31-5.468l0.78-0.907c0.29-0.343 0.22-0.562-0.18-0.687l-4.69-0.813zm21.41 14.219c-1.54 0.016-3.1 0.063-4.63 0.125-3.03 0.094-5.53 0.25-7.53 0.469l0.37 4.031c1.85-0.344 4.19-0.531 7.07-0.562 2.9-0.063 5.87 0.062 8.9 0.343 0.1-1.468 0.25-2.937 0.44-4.375-1.55-0.031-3.08-0.047-4.62-0.031zm-13.44 12.375l-4.03 0.125c0.06 1.781 0.28 3.344 0.65 4.688 0.38 1.343 1.07 2.562 2.03 3.625 0.97 1.031 2.54 1.781 4.72 2.25 2.22 0.437 6.97 0.562 14.22 0.406 0.1-1.5 0.38-2.906 0.88-4.219l-0.32-0.406c-6.62 0.469-10.9 0.531-12.84 0.219-1.94-0.313-3.25-0.813-3.94-1.532-0.68-0.718-1.15-2.437-1.37-5.156z"/>
  <path id="path17815" d="m473.83 63.886c1.47 0 10.47-1.623 10.47-1.623" class="stroke"/>
  <path id="path17817" d="m502 53.117l-3.98 8.704" class="stroke"/>
  <text y="55.920715" x="503.06326" class="number">2</text>
  <text y="60.380104" x="472.983" class="number">1</text>
  <path id="path17831" d="m505.86 69.665l11.51 0.295" class="stroke"/>
  <text y="66.215767" x="510.68604" class="number">3</text>
  <path id="path20494" d="m492.72 92.82c2.21 8.28 13.28 6.97 18.29 6.933" class="stroke"/>
  <text y="92.485596" x="487.3938" class="number">4</text>
 </g>
 <text id="cellSA" y="122.67139" x="546.31726" class="label cell">SA</text>
 <g id="gSA" transform="translate(6)">
  <path id="path2155" d="m541.89 74.677c-0.06-1.312-0.31-2.672-0.75-4.078l0.23-0.328c5.79 0.219 10.97 0.063 15.57-0.469-0.66-1.5-1.28-3.093-1.88-4.781-0.59-1.719-1.06-2.75-1.4-3.094-0.35-0.406-0.29-0.687 0.18-0.843l4.6-0.797c0.31 0.031 0.4 0.234 0.28 0.609l-0.14 0.844c0.81 2.937 1.65 5.422 2.53 7.453 3.81-0.688 7.39-1.625 10.73-2.813l1.69 3.938c-3.19 0.969-6.72 1.781-10.59 2.437 0.78 1.407 1.7 2.938 2.76 4.594 1.1 1.656 3.41 4.422 6.94 8.297l-3.7 3.047c-2-1.094-3.99-1.828-5.96-2.203-1.93-0.375-4.03-0.578-6.28-0.61-2.25-0.062-3.95 0.219-5.11 0.844-1.15 0.594-1.97 1.297-2.43 2.11-0.47 0.812-0.68 1.687-0.61 2.625 0.06 0.906 0.54 1.765 1.45 2.578 0.91 0.812 2.34 1.406 4.31 1.781 2 0.344 4.06 0.5 6.19 0.469 2.12-0.063 4.59-0.313 7.41-0.75l0.09 0.328c-0.25 1.125-0.53 2.593-0.84 4.405-3.66 0.16-6.86 0.14-9.61-0.05-2.75-0.15-5.07-0.605-6.94-1.355-1.85-0.75-3.35-1.828-4.5-3.235-1.13-1.406-1.75-2.781-1.88-4.125-0.09-1.343 0.22-2.656 0.94-3.937 0.75-1.281 1.86-2.375 3.33-3.281 1.5-0.938 3.12-1.5 4.87-1.688 1.75-0.187 3.46-0.219 5.11-0.094 1.69 0.125 3.8 0.422 6.33 0.891-1.53-2-2.73-3.766-3.61-5.297-0.87-1.531-1.72-3.094-2.53-4.687-4.75 0.625-10.34 1.047-16.78 1.265"/>
  <path id="path20500" d="m538.8 67.364c1.48 0 13.5-1.309 13.5-1.309" class="stroke"/>
  <text y="64.570747" x="538.87872" class="number">1</text>
  <path id="path20506" d="m559.84 53.319l4.82 11.862" class="stroke"/>
  <text y="54.901688" x="562.49384" class="number">2</text>
  <path id="path21397" d="m551.27 80.261c-3.84 0.062-10.58 3.11-11.56 7.989-0.97 4.823 2.44 8.218 8.88 13.85" class="stroke"/>
 </g>
 <text id="cellKA" y="122.67139" x="610.31726" class="label cell">KA</text>
 <g id="gKA" transform="translate(-2)">
  <path id="path2171" d="m620.09 61.544c-0.44 0.094-0.66 0.312-0.69 0.656 0.31 0.563 0.25 1.938-0.19 4.125-0.43 2.156-0.87 4.031-1.28 5.625-3.75 0.406-6.72 0.656-8.93 0.781l-0.25 0.282c0.21 0.968 0.34 2.406 0.37 4.312 2.31-0.437 4.88-0.875 7.66-1.312-0.19 0.593-0.66 2.031-1.38 4.312s-1.65 4.844-2.81 7.688c-1.16 2.843-2.56 5.75-4.22 8.687v0.406c1.25 0.5 2.66 1.157 4.19 1.969 1.4-3.625 2.69-6.906 3.84-9.844 1.16-2.968 2.13-5.75 2.91-8.343 0.81-2.594 1.37-4.407 1.69-5.469 3.78-0.531 6.15-0.438 7.15 0.312s1.53 2.094 1.56 4.032c0.04 1.906 0 3.5-0.06 4.75-0.03 1.25-0.15 2.531-0.37 3.875-0.19 1.312-0.53 2.531-1.07 3.656-0.5 1.094-1.03 1.844-1.59 2.25-0.53 0.375-1.12 0.281-1.78-0.281-0.66-0.594-1.47-1.469-2.41-2.657-0.47 0.969-1.4 2.094-2.84 3.375 1.53 1.313 2.53 2.25 3.03 2.813 0.53 0.562 1.09 1 1.66 1.344 0.59 0.375 1.4 0.5 2.43 0.343 1.04-0.156 2.1-0.843 3.19-2.062 1.1-1.219 1.88-2.594 2.38-4.125 0.53-1.531 0.9-2.969 1.09-4.281 0.19-1.313 0.28-2.719 0.31-4.25 0.07-1.563 0.03-3.532-0.12-5.907-0.16-2.406-0.91-4.125-2.25-5.156-1.35-1.031-2.56-1.687-3.66-1.937-1.06-0.25-2.97-0.25-5.69 0 0.6-2.469 1.19-5.125 1.75-7.969l0.5-0.563c0.32-0.281 0.32-0.5 0-0.687l-4.12-0.75zm19.84 6.469l-3.18 2.718c2 2.219 3.78 4.657 5.34 7.313 1.59 2.625 3.06 5.875 4.41 9.781 1.53-0.906 2.96-1.719 4.31-2.437v-0.313c-1.6-3.531-3.22-6.562-4.88-9.094-1.65-2.531-3.65-5.187-6-7.968z"/>
  <path id="path22288" d="m603.47 70.027l11.8-0.885" class="stroke"/>
  <text y="67.736031" x="601.90063" class="number">1</text>
  <path id="path23179" d="m629.87 58.372l-3.13 10.269" class="stroke"/>
  <text y="56.879353" x="629.04004" class="number">2</text>
  <path id="path24072" d="m644.47 65.721c0.83 0.834 8.34 13.144 8.34 13.144" class="stroke"/>
  <text y="65.038353" x="645.69879" class="number">3</text>
 </g>
 <text id="cellA" y="122.67139" x="682.31726" class="label cell">A</text>
 <g id="gA">
  <path id="path2195" d="m680.41 58.69c-0.24 0.071-0.31 0.328-0.19 0.75 0.25 0.344 0.25 2.094-0.03 5.25-2.69 0.094-5.66 0.063-8.88-0.062l-0.18 0.093c0.09 1.25 0.15 2.625 0.18 4.125 3.1-0.125 5.97-0.25 8.6-0.406-0.13 2.313-0.19 4.938-0.16 7.906-1.84 0.813-3.47 1.844-4.9 3.094-1.44 1.25-2.63 2.781-3.54 4.594-0.87 1.781-1.25 3.75-1.15 5.906 0.09 2.125 0.62 3.813 1.59 5.031 1 1.188 2.31 1.875 3.97 2.094 1.66 0.25 3.22 0.031 4.66-0.687 1.43-0.688 2.53-1.313 3.28-1.844l0.59 1.5c2.06-1.125 3.56-1.813 4.47-2.094l0.03-0.531c-0.47-0.844-0.9-1.656-1.31-2.469 1.75-2.062 3.16-4.156 4.22-6.281 1.06-2.156 2.03-4.469 2.87-6.938 1.1 0.157 2.38 0.5 3.85 1.032 1.5 0.531 2.75 1.531 3.78 3 1.03 1.468 1.5 2.968 1.4 4.531-0.09 1.562-0.68 2.969-1.78 4.219-1.09 1.25-2.59 2.25-4.53 2.968-1.9 0.719-3.87 1.219-5.9 1.5v0.5c1 1.375 1.68 2.719 2.09 4 2.28-0.5 4.53-1.281 6.72-2.343 2.22-1.063 4.12-2.657 5.72-4.75 1.62-2.125 2.4-4.25 2.34-6.375-0.06-2.157-0.78-4.188-2.16-6.125-1.37-1.938-3.15-3.282-5.31-4.032-2.15-0.781-3.84-1.312-5.09-1.562l0.59-2 0.75-0.656c0.38-0.375 0.31-0.657-0.19-0.813l-4.34-0.875c-0.56-0.062-0.81 0.188-0.75 0.75 0.19 0.156 0.03 1.219-0.47 3.219-3 0.156-5.53 0.531-7.56 1.094 0-1.813 0.09-4.094 0.28-6.844 0.84-0.094 2.5-0.25 4.97-0.469 2.5-0.25 5.56-0.687 9.19-1.312l-1.16-3.907c-3.72 0.907-7.97 1.594-12.72 2.032 0.13-1.25 0.25-2.594 0.38-4l0.62-0.594c0.35-0.344 0.25-0.594-0.25-0.719l-4.31-0.5c-0.12-0.015-0.2-0.023-0.28 0zm9.84 18.75c-0.65 2.031-1.34 3.844-2.09 5.469-0.75 1.594-1.56 2.969-2.41 4.125-0.34-0.969-0.69-2.094-1.06-3.406-0.38-1.344-0.66-3-0.84-4.969 2.53-0.719 4.65-1.125 6.4-1.219zm-10.22 2.813c0.16 1.625 0.41 3.25 0.72 4.875 0.35 1.625 0.85 3.468 1.53 5.531-0.56 0.469-1.28 0.969-2.15 1.531-0.88 0.531-1.88 0.844-3 0.906-1.13 0.063-1.91-0.218-2.38-0.843-0.44-0.625-0.65-1.625-0.65-3 0.03-1.407 0.34-2.75 0.93-4.032 0.63-1.312 1.44-2.375 2.47-3.187 1.06-0.844 1.91-1.438 2.53-1.781z"/>
  <path id="path24971" d="m664.04 61.926l12.98-0.295" class="stroke"/>
  <text y="59.192589" x="663.65601" class="number">1</text>
  <path id="path24977" d="m690.46 50.75l-3.13 10.268" class="stroke"/>
  <text y="56.927895" x="691.6955" class="number">2</text>
  <path id="path24983" d="m700.33 70.486l-5.74 15.589" class="stroke"/>
  <text y="73.305542" x="700.7926" class="number">3</text>
  <path id="path24989" d="m678.08 100.03c-20.13-2.796-8.91-18.501-5.66-23.886" class="stroke"/>
 </g>
<!-- -I -->
 <text id="cellWI" y="202.67139" x="98.317238" class="label cell">WI</text>
 <g id="gWI">
  <path id="path2261" d="m114.46 143.04c-0.11 0-0.21 0.03-0.32 0.12l-0.53 0.81c-3.53 0.82-6.03 1.35-7.53 1.63-1.47 0.25-3.19 0.41-5.12 0.44l-0.22 0.59c1.09 1.22 1.81 2.41 2.18 3.56 3.88-1.12 7.25-2.03 10.1-2.72-0.44 2.44-0.91 4.72-1.41 6.85-0.25 0.06-0.9 0.25-1.94 0.53-1.03 0.25-2.87 1.09-5.53 2.56-2.65 1.47-4.809 3.44-6.497 5.88-1.656 2.43-2.531 4.75-2.625 6.97-0.094 2.21 0.156 3.9 0.781 5.06 0.657 1.12 1.563 2 2.688 2.62 1.125 0.6 2.223 0.88 3.313 0.82 1.12-0.1 2.31-0.6 3.53-1.47 1.25-0.88 2.66-2.82 4.22-5.85 1.59-3.06 2.78-5.78 3.59-8.15 0.82-2.38 1.44-4.41 1.88-6.07 1.65-0.15 3.47-0.18 5.44-0.09 1.96 0.09 3.75 0.56 5.31 1.41 1.59 0.81 2.75 2.03 3.47 3.62 0.75 1.6 1.06 3.16 0.97 4.72-0.1 1.56-0.79 3.22-2.07 4.94-2.37-2.44-4.47-3.81-6.31-4.13-1.81-0.34-3.44-0.15-4.87 0.57-1.44 0.71-2.25 2.15-2.44 4.34s0.28 3.94 1.4 5.25c1.16 1.28 2.82 1.94 4.97 1.94 2.19 0.03 4.32-0.63 6.41-1.94 2.12-1.34 3.81-2.97 5.03-4.91 1.22-1.93 1.88-3.93 2-6 0.16-2.09-0.22-4.12-1.16-6.06-0.9-1.94-2.75-3.59-5.53-5-2.75-1.44-5.18-2.16-7.28-2.16-2.06 0-3.5 0-4.34 0.04 0.53-2.13 1.09-4.47 1.69-7.04l0.65-0.31c0.75-0.34 0.78-0.75 0.1-1.19-1.35-0.71-2.57-1.4-3.66-2.06-0.11-0.09-0.24-0.12-0.34-0.12zm-3.88 15.28c-0.28 1.03-0.84 2.75-1.66 5.15-0.81 2.38-1.84 4.66-3.09 6.85s-2.19 3.5-2.84 3.94c-0.66 0.4-1.35 0.5-2.03 0.31-0.69-0.22-1.223-0.72-1.629-1.5-0.375-0.81-0.532-1.91-0.438-3.28 0.125-1.41 0.875-3.1 2.217-5.07 1.38-1.96 3.03-3.43 4.97-4.4 1.97-0.97 3.47-1.63 4.5-2zm9.47 12.28c0.19 0 0.37 0 0.59 0.03 1.78 0.25 3.38 1.53 4.75 3.81-0.25 0.19-0.84 0.57-1.78 1.16-0.9 0.56-2.09 0.78-3.53 0.62-1.41-0.15-2.09-1.18-2.09-3.09 0.02-1.67 0.72-2.51 2.06-2.53z" class="old"/>
  <path id="path25876" d="m99.518 142.91l16.062-2.71" class="stroke"/>
  <text y="139.44202" x="101.07877" class="number">1</text>
  <path id="path26767" d="m104.84 181.41c-16.771 0.7-12.259-15.7-11.268-20.34" class="stroke"/>
  <path id="path30313" d="m124.87 152.93c11.21 0.89 11.52 7.14 12.83 11.89" class="stroke"/>
 </g>
 <text id="cellRI" y="202.67139" x="164.31723" class="label cell">RI</text>
 <g id="gRI">
  <path id="path2039" d="m188.75 140.37l-4.65 0.19c-0.57 0.09-0.69 0.37-0.38 0.87 0.35 0.63 0.63 2.22 0.81 4.79 0.19 2.56 0.35 5.37 0.47 8.4 0.13 3 0.07 5.66-0.15 7.97-0.19 2.28-0.72 4.47-1.63 6.59-0.87 2.13-2.34 3.91-4.4 5.32-2.07 1.37-4.66 2.5-7.75 3.37l-0.13 0.41c1.28 1.56 2.16 2.94 2.63 4.12 3.09-1.47 5.87-3.15 8.37-5.09 2.5-1.97 4.31-4.31 5.41-7 1.12-2.72 1.75-5.34 1.9-7.91 0.16-2.59 0.19-5.4 0.1-8.4-0.1-3.03-0.28-7-0.57-11.91l0.29-0.97c0.21-0.37 0.12-0.62-0.32-0.75zm-22.72 1c-0.29 0-0.41 0.18-0.34 0.53 0.06 0.35-0.03 1.28-0.28 2.82-0.22 1.53-0.47 4.12-0.75 7.78-0.25 3.65-0.13 7.15 0.41 10.5 0.53 3.31 1.59 4.93 3.15 4.84 1.56-0.12 2.78-0.75 3.66-1.84 0.87-1.1 2-2.6 3.4-4.5l-3.28-2.94c-0.47 1.19-0.97 2.16-1.5 2.91s-0.9 1.12-1.15 1.12c-0.22-0.03-0.41-1.16-0.57-3.37-0.12-2.25-0.09-4.79 0.1-7.6 0.22-2.81 0.59-5.5 1.12-8.06l0.66-0.72c0.22-0.37 0.16-0.59-0.16-0.69l-4.12-0.72c-0.14-0.03-0.25-0.06-0.35-0.06z"/>
  <path id="path31200" d="m161.39 143.43l-0.88 16.67" class="stroke"/>
  <path id="path32087" d="m192.66 141.36l1.18 18.74" class="stroke"/>
  <text y="147.99849" x="154.48486" class="number">1</text>
  <text y="147.26086" x="194.79483" class="number">2</text>
 </g>
 <text id="cellMI" y="202.67139" x="292.31723" class="label cell">MI</text>
 <g id="gMI">
  <path id="path2071" d="m303.91 142.12c-0.07 0-0.14 0.06-0.18 0.16l-0.53 0.5c-5.13 0.65-9.79 1.09-14 1.28l-0.25 0.56c0.56 1 0.93 2.31 1.09 3.97 4.87-1.09 8.72-1.78 11.56-2.06-1 4.31-2.09 8.18-3.31 11.62-1.31 0.03-2.81 0.19-4.5 0.44-1.66 0.22-3.38 0.84-5.13 1.87-1.71 1-3.09 2.32-4.15 3.97-1.06 1.63-1.5 3.35-1.28 5.13 0.22 1.75 0.75 3.06 1.59 3.94 0.84 0.87 2.03 1.43 3.53 1.68 1.53 0.25 3.06 0 4.6-0.72 1.56-0.75 2.96-2.15 4.25-4.21 1.31-2.07 2.65-4.85 4-8.38 1.96 0.19 4.06 0.59 6.31 1.25 2.25 0.63 4.19 1.31 5.78 2.06-0.97 2.38-2.28 4.57-3.91 6.53-1.62 1.97-3.87 3.79-6.78 5.47v0.44c1.31 1.19 2.38 2.44 3.19 3.75 3.47-2.97 5.97-5.56 7.5-7.75 1.56-2.19 2.84-4.34 3.84-6.5 1.72 0.97 3.6 2.06 5.63 3.31 1.12-1.93 2.12-3.31 3.03-4.15v-0.35c-2.59-1.25-4.94-2.31-7.03-3.18 0.69-2.41 1.25-5.35 1.69-8.85l0.46-0.65c0.41-0.35 0.41-0.63 0-0.82l-4.43-0.93c-0.57-0.16-0.82 0-0.72 0.46 0.12 0.35 0.06 1.6-0.19 3.75-0.25 2.13-0.56 3.94-0.94 5.44-1.34-0.47-3.09-0.97-5.25-1.5-2.15-0.56-4.47-0.97-6.93-1.25 1.28-3.5 2.71-7.59 4.31-12.28l0.9-0.56c0.79-0.38 0.82-0.78 0.13-1.22-1.09-0.69-2.28-1.38-3.59-2.06-0.11-0.1-0.21-0.16-0.29-0.16zm-7 19.66c-1.15 2.87-2.18 5.03-3.12 6.47-0.94 1.4-1.84 2.28-2.72 2.65-0.84 0.35-1.66 0.38-2.44 0.06-0.75-0.34-1.15-1.06-1.22-2.15-0.06-1.1 0.25-2.16 0.94-3.19 0.72-1.03 1.81-1.87 3.28-2.53 1.47-0.69 2.66-1.06 3.57-1.13 0.9-0.09 1.46-0.15 1.71-0.18z"/>
  <path id="path32105" d="m296.53 140.62l16.92-0.79-5.91 13.71" class="stroke"/>
  <text y="137.96677" x="295.25961" class="number">1</text>
  <path id="path32996" d="m288.56 178.39c-16.23-5.03-7.89-14.14-4.13-19.32" class="stroke"/>
  <path id="path33883" d="m326.09 148.83l-3.97 11.82" class="stroke"/>
  <text y="152.15376" x="326.95737" class="number">2</text>
 </g>
 <text id="cellHI" y="202.67139" x="358.31723" class="label cell">HI</text>
 <g id="gHI">
  <path id="path2093" d="m363.36 144.73l0.47-0.52c0.16-0.19 0.33-0.19 0.52 0 0.94 0.59 2.03 1.45 3.28 2.58 0.41 0.4 0.38 0.72-0.09 0.94l-1.22 0.51c-2.75 4.31-4.67 7.38-5.77 9.19-1.06 1.81-1.87 3.73-2.44 5.76-0.56 2.04-0.75 3.99-0.56 5.86 0.19 1.85 0.74 3.35 1.64 4.5 0.91 1.13 2.24 1.89 3.99 2.3 1.78 0.41 3.59 0.5 5.43 0.28 1.85-0.22 3.54-0.92 5.07-2.11 1.56-1.18 2.61-2.92 3.14-5.2s0.69-5.33 0.47-9.14c-0.19-3.81-0.94-8.44-2.25-13.88l4.17-1.26c1.15 3 2.73 6.08 4.73 9.23 2.03 3.13 4.52 6.1 7.46 8.91l-0.05 0.51c-0.78 0.5-1.99 1.72-3.61 3.66-2.44-3.5-4.5-6.53-6.19-9.09 0.06 0.65 0.19 2.14 0.38 4.45 0.18 2.31 0.01 4.81-0.52 7.5-0.5 2.69-1.84 5.03-4.03 7.03-2.19 1.97-4.69 3.16-7.5 3.56-2.81 0.44-5.61 0.3-8.39-0.42-2.78-0.69-4.86-2.01-6.23-3.98-1.35-1.97-2.07-4.17-2.16-6.61-0.06-2.47 0.23-4.74 0.89-6.8s1.53-4.05 2.62-5.95c1.1-1.91 2.57-4.27 4.41-7.08-1.78 0.25-4.86 0.89-9.23 1.92l-0.94-4.73c3.87-0.22 8.05-0.86 12.51-1.92"/>
  <path id="path34778" d="m350.71 144.17l14.4-3.34" class="stroke"/>
  <text y="140.88762" x="350.33856" class="number">1</text>
  <path id="path35669" d="m373.78 154.94s-2.08-14.6 1.15-15.75 9.47 8.06 11.79 11.16" class="stroke"/>
 </g>
 <text id="cellNI" y="202.67139" x="422.31723" class="label cell">NI</text>
 <g id="gNI">
  <path id="path2121" d="m419.24 142.58c-0.53 0.03-0.78 0.25-0.75 0.66 0.25 0.43 0.22 2.28-0.06 5.5-0.25 3.21-0.44 7.37-0.6 12.5-0.15 5.12-0.09 8.84 0.22 11.15 0.35 2.31 1 4.19 1.97 5.6 0.97 1.43 2.13 2.03 3.44 1.81 1.31-0.19 3.06-1.56 5.25-4.13-1.09-1.09-2.19-2.37-3.25-3.87h-0.19c-0.75 1.84-1.31 2.72-1.69 2.62-0.34-0.09-0.68-0.9-1.06-2.4-0.34-1.53-0.47-5-0.34-10.44 0.12-5.44 0.5-11.09 1.12-16.94l0.57-0.75c0.4-0.4 0.4-0.69 0-0.87l-4.63-0.44zm33.5 3.62c-3.37 0.22-6.59 0.41-9.66 0.6-3.03 0.19-6.34 0.4-9.93 0.62l0.25 4.07c4.12-0.47 7.53-0.75 10.22-0.85 2.71-0.09 5.81-0.15 9.28-0.19-0.16-1.56-0.22-2.96-0.16-4.25zm-17.06 18.66l-4.35 0.22c0.25 2.09 0.69 3.91 1.35 5.41 0.65 1.5 1.53 2.71 2.62 3.68 1.1 0.97 2.75 1.69 4.94 2.16s6.94 0.62 14.28 0.44c0.1-1.57 0.28-3.03 0.56-4.41l-0.18-0.25c-6.6 0.5-10.85 0.63-12.75 0.34-1.88-0.31-3.38-1.06-4.53-2.21-1.16-1.19-1.82-2.97-1.94-5.38z"/>
  <path id="path36556" d="m414.8 143.92c-2.07 5.74-0.99 16.79-0.77 22.94" class="stroke"/>
  <text y="150.7653" x="407.55438" class="number">1</text>
  <path id="path37453" d="m436.18 142.91l11.51 0.29" class="stroke"/>
  <text y="139.46028" x="441.00281" class="number">2</text>
  <path id="path37459" d="m431.38 172.97c2.21 8.28 13.28 6.97 18.29 6.93" class="stroke"/>
  <text y="171.80188" x="426.68176" class="number">3</text>
 </g>
 <text id="cellTI" y="202.67139" x="478.31723" class="label cell">CHI</text>
 <g id="gTI">
  <path id="path2137" d="m509.55 149.93c-5.53 1.03-10.53 1.73-15 2.1-0.35 2-0.63 3.71-0.85 5.11-0.21 1.38-0.59 3.43-1.12 6.14 2.66-1.71 5.12-2.85 7.41-3.42 2.31-0.56 4.29-0.78 5.95-0.65 1.65 0.09 3.28 0.57 4.87 1.45 1.6 0.84 2.86 2.11 3.8 3.8 0.97 1.65 1.25 3.57 0.84 5.76-0.4 2.16-1.36 3.94-2.86 5.35-1.46 1.4-3.2 2.43-5.2 3.09-2 0.69-4.25 1.09-6.75 1.22-2.47 0.12-5.17 0.14-8.11 0.05 0-1.44-0.25-2.82-0.75-4.13l0.1-0.52c2.37 0.44 4.59 0.68 6.65 0.71 2.1 0 3.97-0.17 5.63-0.52 1.68-0.34 3.15-0.94 4.4-1.78s2.03-2.03 2.35-3.56c0.34-1.53 0.23-2.83-0.33-3.89-0.56-1.1-1.27-1.94-2.11-2.53-0.81-0.6-1.89-0.91-3.23-0.94-1.35-0.06-2.86 0.08-4.55 0.42s-3.35 1-4.97 1.97c-1.63 0.97-3.08 2.11-4.36 3.42l-4.27-1.73c1.29-4.41 2.07-7.53 2.35-9.38 0.28-1.84 0.56-3.56 0.84-5.15-3.47 0.21-6.26 0.36-8.39 0.42-0.19-1.69-0.45-3.1-0.8-4.22l0.29-0.28c3.15 0.28 6.32 0.39 9.51 0.33 0.19-1.19 0.42-2.72 0.7-4.6 0.32-1.9 0.36-3.17 0.15-3.79 0.03-0.69 0.32-0.9 0.89-0.61l4.45 0.65c0.37 0.22 0.39 0.5 0.05 0.85l-0.75 0.79c-0.47 2.53-0.86 4.69-1.18 6.47 3.75-0.37 8.16-1.22 13.22-2.53l1.13 4.13"/>
  <path id="path37465" d="m477.03 144.89l11.5 0.29" class="stroke"/>
  <text y="141.43922" x="481.84818" class="number">1</text>
  <path id="path37471" d="m501.59 133.65l-2.53 11" class="stroke"/>
  <text y="138.74777" x="504.10641" class="number">2</text>
  <path id="path37481" d="m506.77 156.27s10.43 0.83 13.35 5.63-1.04 10.67-2.92 14.08" class="stroke"/>
 </g>
 <text id="cellSI" y="202.67139" x="542.40356" class="label cell">SHI</text>
 <g id="gSI">
  <path id="path2153" d="m549.48 142.46c0.03-0.5 0.25-0.75 0.65-0.75l5.3 0.56c0.37 0.19 0.41 0.46 0.09 0.8l-0.7 0.89c-0.41 5.75-0.67 10.64-0.8 14.67-0.09 4-0.09 7.05 0 9.14 0.1 2.1 0.46 3.63 1.08 4.6 0.63 0.97 1.27 1.65 1.92 2.06 0.66 0.41 1.58 0.72 2.77 0.94 1.22 0.22 2.67 0.15 4.36-0.19 1.69-0.37 3.47-1.28 5.34-2.72 1.88-1.47 3.72-3.9 5.53-7.31 1.72 1.37 3.27 2.36 4.64 2.95-1.78 2.57-3.65 4.77-5.62 6.61-1.94 1.85-4.3 3.22-7.08 4.13-2.75 0.9-5.33 1.17-7.73 0.79-2.38-0.37-4.19-1.01-5.44-1.92-1.25-0.94-2.25-2.22-3-3.84-0.75-1.66-1.19-3.56-1.31-5.72-0.13-2.19-0.11-5.41 0.04-9.66 0.16-4.25 0.27-7.87 0.33-10.87 0.09-3-0.03-4.72-0.37-5.16"/>
  <path id="path38368" d="m545.91 142.74c-0.61 5.94-0.78 16.79-0.77 22.94" class="stroke"/>
  <text y="149.5851" x="538.66547" class="number">1</text>
 </g>
 <text id="cellKI" y="202.67139" x="614.40356" class="label cell">KI</text>
 <g id="gKI">
  <path id="path2167" d="m625.9 141.12c0.53 2.03 1.03 3.81 1.5 5.34 2.97-0.53 5.83-1.26 8.58-2.2l1.68 3.75c-2.78 0.81-5.75 1.48-8.9 2.01 0.15 0.41 0.45 1.02 0.89 1.83 0.44 0.82 1.04 1.91 1.83 3.28 3.81-0.59 7.4-1.53 10.78-2.81l1.64 3.94c-3.16 0.91-6.67 1.64-10.55 2.2 1.31 2.06 3.28 4.61 5.91 7.64l-3.71 3.05c-1.93-0.78-3.43-1.3-4.5-1.55-1.03-0.28-2.37-0.51-4.03-0.7-1.65-0.19-3.15-0.22-4.5-0.09-1.34 0.12-2.56 0.4-3.65 0.84-1.07 0.41-1.86 0.95-2.39 1.64-0.54 0.66-0.79 1.5-0.75 2.53 0.06 1 0.45 1.91 1.17 2.72s1.87 1.39 3.47 1.73c1.62 0.32 3.82 0.46 6.61 0.43 2.81-0.07 5.65-0.25 8.53-0.57l0.09 0.52c-0.41 0.72-0.75 2.02-1.03 3.89-3.31 0.19-6.75 0.16-10.31-0.09-3.57-0.22-6.08-0.71-7.55-1.46-1.44-0.75-2.56-1.68-3.37-2.81-0.79-1.16-1.27-2.51-1.46-4.08-0.15-1.59 0.17-2.97 0.99-4.12 0.81-1.16 1.82-2.03 3.04-2.63 1.22-0.62 2.61-1.08 4.18-1.36 1.56-0.28 3.2-0.39 4.92-0.32 1.75 0.06 4.11 0.35 7.08 0.89-1.25-1.91-2.33-3.74-3.24-5.49-5.06 0.56-11.25 1-18.56 1.31-0.06-1.4-0.25-2.7-0.56-3.89l0.14-0.32c6.65 0.18 12.42 0.03 17.29-0.47-0.53-1.1-1-2.05-1.4-2.86-0.41-0.85-0.75-1.58-1.03-2.21-3.41 0.41-7.44 0.72-12.1 0.94-0.03-1.12-0.25-2.44-0.65-3.94l0.28-0.23c4.28 0.06 7.98-0.06 11.11-0.38-0.16-0.43-0.49-1.42-0.99-2.95-0.47-1.56-0.87-2.51-1.22-2.86-0.25-0.34-0.14-0.59 0.33-0.75l4.17-0.75c0.44 0.03 0.55 0.27 0.33 0.71l-0.09 0.7"/>
  <path id="path38378" d="m606.77 144.76c0.74 0 12.84-1.19 12.84-1.19" class="stroke"/>
  <path id="path39265" d="m606.14 154.56c0.74 0 17.74-1.28 17.74-1.28" class="stroke"/>
  <path id="path39267" d="m627.13 134.58l4.72 8.26" class="stroke"/>
  <path id="path40154" d="m610.16 165.41s-4.38 1.66-4.27 4.87 3.22 6.08 4.72 7.96" class="stroke"/>
  <text y="145.96422" x="601.42249" class="number">1</text>
  <text y="156.8131" x="599.5448" class="number">2</text>
  <text y="138.24481" x="632.09143" class="number">3</text>
 </g>
 <text id="cellI" y="202.67139" x="686.40356" class="label cell">I</text>
 <g id="gI">
  <path id="path2189" d="m672.27 145.11c-0.53 0.03-0.78 0.25-0.75 0.66 0.25 0.43 0.18 2.28-0.19 5.5-0.38 3.22-0.5 6.4-0.38 9.56 0.16 3.16 0.57 6.06 1.19 8.72 0.66 2.65 1.6 4.72 2.81 6.19 1.25 1.43 2.6 2.06 4.04 1.87 1.43-0.22 2.59-1.22 3.5-2.97 0.9-1.75 2.03-4.15 3.37-7.22-1.25-0.93-2.56-1.93-3.94-3.03h-0.37c-0.75 3.38-1.35 5.44-1.78 6.19-0.44 0.72-0.97 1-1.6 0.87-0.62-0.12-1.18-0.87-1.68-2.25-0.5-1.37-0.88-4-1.16-7.9-0.28-3.94 0-8.6 0.87-13.94l0.57-0.66c0.37-0.37 0.34-0.62-0.1-0.78l-4.4-0.81zm28.28 2.59l-3.63 2.75c2.66 2.66 4.57 5.38 5.72 8.13 1.19 2.72 2.16 6.44 2.91 11.16 1.69-0.72 3.34-1.19 4.94-1.41l0.21-0.34c-0.93-4.25-2.18-7.97-3.75-11.19-1.53-3.22-3.65-6.25-6.4-9.1z"/>
  <path id="path41061" d="m666.1 143.65c-0.91 4.15 0.51 12.93 1.06 17.19" class="stroke"/>
  <text y="149.65234" x="659.53638" class="number">1</text>
  <path id="path41952" d="m705.47 146.67l7.96 13.28" class="stroke"/>
  <text y="149.65234" x="709.53638" class="number">2</text>
 </g>
<!-- -U -->
 <text id="cellRU" y="282.67139" x="161.4827" class="label cell">RU</text>
 <g id="gRU">
  <path id="path2035" d="m183.29 219.33c-0.11 0-0.2 0.06-0.31 0.16l-0.25 0.4c-3.75 0.5-7.09 0.88-10.06 1.1-2.97 0.21-5.44 0.28-7.38 0.21l-0.22 0.57c0.5 1.22 0.82 2.56 0.97 4 4.69-0.75 9.38-1.44 14.07-2.07-6.04 7.54-12.75 14.75-20.19 21.66v0.56c1.15 0.5 2.28 1.57 3.37 3.19 1.1-1.28 2.69-3.12 4.78-5.5 1.97-1.56 3.88-2.87 5.72-3.94 1.88-1.09 3.94-1.78 6.19-2.06s4.28 0 6.13 0.84c1.84 0.82 3.12 2.04 3.81 3.63 0.69 1.56 0.9 3.03 0.65 4.41-0.21 1.37-0.81 2.59-1.78 3.65-0.93 1.06-1.97 1.91-3.09 2.53-1.03-1.9-2.13-3.34-3.25-4.31-1.09-0.97-2.56-1.78-4.41-2.41-1.84-0.62-3.5-0.62-4.97-0.03-1.43 0.57-2.59 1.69-3.46 3.41-0.85 1.72-0.88 3.41-0.1 5.03 0.78 1.63 2.19 2.72 4.22 3.31 2.03 0.6 4.41 0.72 7.09 0.35 2.69-0.35 5.13-1.16 7.35-2.41 2.25-1.28 3.87-2.69 4.87-4.25 1.03-1.56 1.69-3.22 1.94-4.97s-0.09-3.69-1.03-5.81c-0.94-2.16-2.88-3.84-5.81-5.03-2.91-1.22-5.47-1.63-7.69-1.25-2.19 0.37-4.06 0.9-5.59 1.59 2.9-3.25 6.65-7.44 11.21-12.56l0.97-0.38c0.66-0.37 0.72-0.78 0.16-1.21-1.34-0.88-2.53-1.63-3.56-2.25-0.11-0.1-0.24-0.16-0.35-0.16zm-7.68 29.75c0.18 0.01 0.36 0.02 0.56 0.06 1.65 0.31 2.78 0.88 3.37 1.66 0.63 0.75 1.28 1.9 1.94 3.47-0.66 0.12-1.59 0.25-2.78 0.37-1.19 0.1-2.53-0.06-4.06-0.47-1.53-0.43-2.07-1.47-1.6-3.06 0.41-1.42 1.27-2.09 2.57-2.03z"/>
  <path id="path42847" d="m165.98 217.91l17.11-1.18" class="stroke"/>
  <text y="215.87212" x="165.55107" class="number">1</text>
  <path id="path43738" d="m159.48 241.67s-5.16 9.86-2.71 11.69c2.45 1.82 7.91-1.96 11.04-3.79" class="stroke"/>
  <path id="path45530" d="m191.73 233.67c3.15 2.18 7.4 4.07 8.43 9.05s-2.77 9.28-4.25 11.5" class="stroke"/>
 </g>
 <text id="cellYU" y="282.67139" x="225.81364" class="label cell">YU</text>
 <g id="gYU">
  <path id="path2051" d="m244.25 218.76c-0.25 0.07-0.36 0.33-0.34 0.75 0.38 0.37 0.63 1.47 0.78 3.31 0.16 1.85 0.25 3.31 0.28 4.38-2.62 0.43-5.4 1.5-8.34 3.18-2.94 1.69-5.91 4.91-8.91 9.66 0-1.66 0.07-3.56 0.19-5.69 0.13-2.15 0.44-4.87 0.91-8.18l0.65-0.82c0.38-0.4 0.32-0.68-0.15-0.84l-4.25-0.69c-0.57-0.28-0.88-0.09-0.91 0.6 0.22 0.62 0.22 1.87-0.03 3.75-0.25 1.84-0.44 4.03-0.53 6.53-0.06 2.5-0.06 5.12-0.03 7.87s0.65 6.19 1.87 10.31l4.6-2.25c-0.5-1.31-0.94-2.53-1.29-3.62 0.22-1.66 1.41-3.97 3.57-6.94 2.15-2.97 4.37-5.12 6.62-6.47 2.28-1.34 4.35-2.22 6.19-2.65 0 1.15-0.03 3.06-0.06 5.75-0.03 2.68-0.63 5.97-1.78 9.84-1.44-0.59-2.88-2.12-4.32-4.62l-3.09 3.12c1.69 2.59 3.69 4.38 5.97 5.34-1.22 2.5-2.91 4.69-5.06 6.57v0.47c1.21 0.5 2.46 1.37 3.75 2.59 2.37-2.72 4.18-5.59 5.46-8.59 1.44 0.18 3.32 0.15 5.63-0.1 2.31-0.28 4.5-1.28 6.56-3 2.06-1.75 3.44-3.72 4.13-5.94 0.72-2.21 0.84-4.46 0.34-6.75-0.47-2.28-1.84-4.31-4.12-6.06-2.29-1.78-5.41-2.69-9.38-2.72-0.06-2.03-0.19-4.12-0.37-6.28l0.56-0.94c0.25-0.37 0.15-0.62-0.28-0.75l-4.5-0.12c-0.12-0.02-0.23-0.02-0.32 0zm5 11.75c2.38 0.06 4.35 0.62 5.94 1.66 1.6 1.03 2.56 2.34 2.91 3.96 0.37 1.63 0.34 3.35-0.1 5.13-0.43 1.75-1.56 3.25-3.37 4.5-1.81 1.22-3.34 1.81-4.63 1.81-1.28-0.03-2.15-0.06-2.62-0.12 1.12-4.5 1.72-8.13 1.78-10.85 0.09-2.72 0.13-4.75 0.09-6.09z"/>
  <path id="path46421" d="m220.99 223.24l-0.88 15.93" class="stroke"/>
  <text y="229.22459" x="213.02585" class="number">1</text>
  <path id="path47463" d="m257.66 223.86s6.16 2.14 8.35 7.51c2.19 5.38 0.9 10.34 0.41 13.98" class="stroke"/>
  <path id="path48350" d="m252.34 212.62l-0.66 10.77" class="stroke"/>
  <text y="216.0612" x="245.51047" class="number">2</text>
 </g>
 <text id="cellMU" y="282.67139" x="287.81366" class="label cell">MU</text>
 <g id="gMU">
  <path id="path2067" d="m297.5 219.87c-0.44 0-0.63 0.25-0.54 0.72 0.25 0.47 0.38 2.78 0.35 6.97-2.88 0.06-6.16-0.03-9.85-0.28l-0.15 0.43c0.28 1.22 0.47 2.54 0.56 3.97 3.06-0.12 6.19-0.25 9.38-0.4-0.04 2.09-0.1 4.03-0.19 5.81-0.22-0.06-0.69-0.16-1.44-0.25s-1.72 0.06-2.87 0.47c-1.13 0.4-2.13 1.06-3.04 1.97-0.9 0.9-1.53 2.15-1.87 3.72-0.31 1.53-0.38 3-0.16 4.4 0.22 1.38 0.75 2.44 1.57 3.19 0.81 0.72 1.75 1.16 2.81 1.31 1.06 0.13 2.06 0 3.03-0.34-0.31 1.47-0.16 2.87 0.47 4.22 0.62 1.34 1.81 2.47 3.53 3.34 1.72 0.88 4.09 1.28 7.16 1.22 3.09-0.03 5.59-0.19 7.46-0.44 1.91-0.25 3.63-0.78 5.16-1.62 1.56-0.82 2.56-1.75 3.03-2.82 0.47-1.06 0.5-2.46 0.06-4.21-0.4-1.79-0.9-4.38-1.46-7.75l-4.69 0.9c0.9 2.94 1.5 5.03 1.78 6.31 0.31 1.29 0.37 2.19 0.19 2.72-0.16 0.53-0.66 1.03-1.53 1.5-0.85 0.47-2.1 0.82-3.75 1.03-1.66 0.19-3.72 0.29-6.16 0.29s-4.06-0.16-4.88-0.5c-0.81-0.35-1.37-0.94-1.71-1.75-0.35-0.82-0.44-1.85-0.25-3.1 0.21-1.28 0.62-3.06 1.18-5.34 0.6-2.28 0.66-4 0.19-5.19 0.19-2.06 0.34-5.19 0.47-9.34 4-0.25 7.78-0.66 11.37-1.25l-0.68-4.1c-4 0.85-7.53 1.41-10.6 1.66 0.03-1.72 0.07-3.59 0.1-5.59l0.5-0.79c0.31-0.37 0.25-0.62-0.19-0.71l-4.34-0.38zm20.75 10.38l-2.47 3.46c3.59 1.94 6.75 4.57 9.47 7.88 1.21-1.59 2.31-2.84 3.31-3.72v-0.28c-2.72-2.28-6.16-4.72-10.31-7.34zm-23.25 9.78c0.16-0.01 0.35-0.02 0.53 0 0.72 0.06 1.15 0.37 1.34 0.93-0.22 3.41-0.75 5.5-1.62 6.29-0.88 0.78-1.72 1.09-2.54 0.9-0.81-0.19-1.28-0.65-1.4-1.37-0.13-0.72-0.13-1.63 0-2.72 0.12-1.1 0.37-1.91 0.78-2.47s0.91-0.97 1.5-1.22c0.44-0.21 0.91-0.33 1.41-0.34z"/>
  <path id="path51896" d="m283.54 223.68h9.89" class="stroke"/>
  <text y="221.19225" x="281.35297" class="number">1</text>
  <path id="path52787" d="m305.75 212.98l-0.73 10.59" class="stroke"/>
  <text y="218.16797" x="308.76288" class="number">2</text>
  <path id="path53678" d="m289.96 254.44s-5.18-1.77-6.64-4.87c-1.45-3.1 1.53-7.21 2.66-9.37" class="stroke"/>
  <path id="path54565" d="m325.66 256.43l-0.66-9.81" class="stroke"/>
  <path id="path55452" d="m320.79 227.59l9.3 6.71" class="stroke"/>
  <text y="227.38831" x="322.96735" class="number">3</text>
 </g>
 <text id="cellHU" y="282.67139" x="353.81366" class="label cell">FU</text>
 <g id="gHU">
  <path id="path2091" d="m363.19 220.08l-2.15 3.75c4.34 2.32 9.21 4.19 14.62 5.66 0.53-1.69 1.09-3.13 1.69-4.35-5.41-1.03-10.13-2.71-14.16-5.06zm0.03 11.25c-0.4 0.03-0.56 0.22-0.47 0.56 0.13 0.44 0.07 1.32-0.18 2.66-0.22 1.31-0.28 2.63-0.19 3.94s1.06 2.56 2.87 3.72c1.82 1.15 3.54 2.28 5.19 3.37 1.66 1.1 2.72 2.44 3.19 4.03 0.5 1.57 0.41 2.85-0.28 3.85s-1.69 1.59-3 1.78c-1.28 0.15-2.5 0-3.69-0.47-1.16-0.5-2.31-1.53-3.44-3.09-1.06 1.03-2.18 1.93-3.4 2.75l-0.07 0.37c1.44 1.44 2.88 2.56 4.29 3.34 1.4 0.82 3.06 1.22 4.96 1.25 1.91 0.07 3.6-0.28 5.1-1.03 1.53-0.75 2.72-1.84 3.56-3.31 0.88-1.47 1.09-3.37 0.63-5.72-0.44-2.37-1.69-4.28-3.72-5.72-2.03-1.47-3.82-2.62-5.38-3.43-1.56-0.85-2.37-1.78-2.4-2.82 0-1.03 0.15-2.31 0.43-3.84l0.6-0.69c0.37-0.37 0.34-0.65-0.1-0.84l-4.5-0.66zm17.63 8.56l-2.72 3.29c3.53 2.68 6.81 6.34 9.81 10.96 1.85-1.75 3.13-2.84 3.88-3.31l-0.03-0.44c-3.32-3.71-6.97-7.21-10.94-10.5zm-21.38 3.16c-3.62 3.19-7.34 6.56-11.18 10.16 1.59 1.28 2.71 2.43 3.4 3.43 3.91-4.4 7.6-7.93 11.06-10.56l-3.28-3.03z"/>
  <path id="path56351" d="m363.06 216.75l14.01 4.57" class="stroke"/>
  <text y="216.02885" x="365.85901" class="number">1</text>
  <path id="path57242" d="m370.95 230.25s-1.73 3.98-0.29 5.9c1.44 1.91 3.63 3.1 5.68 4.64" class="stroke"/>
  <text y="236.80661" x="374.4155" class="number">2</text>
  <path id="path58135" d="m355.09 242.34l-8.77 7.23" class="stroke"/>
  <text y="241.15862" x="348.70212" class="number">3</text>
  <path id="path59028" d="m384.3 237.4l10.85 10.25" class="stroke"/>
  <text y="239.24078" x="387.69278" class="number">4</text>
 </g>
 <text id="cellNU" y="282.67139" x="415.81366" class="label cell">NU</text>
 <g id="gNU">
  <path id="path2115" d="m433.91 222.95c-0.35 0-0.55 0.18-0.63 0.53 0.35 0.57 0.22 2.54-0.37 5.91-0.72 0.13-1.94 0.34-3.63 0.66-1.65 0.28-3.18 0.9-4.62 1.84-1.44 0.91-2.59 1.72-3.47 2.44-0.72-1.85-1.41-3.81-2.03-5.88l0.28-0.94c0.16-0.43-0.03-0.62-0.59-0.59l-4.19 0.94c-0.47 0.06-0.56 0.34-0.28 0.84 0.4 0.32 0.9 1.35 1.5 3.1 0.62 1.72 1.4 3.56 2.31 5.56-1.37 1.65-2.5 3.69-3.37 6.06-0.85 2.34-1.25 4.53-1.19 6.56s0.4 3.63 1.03 4.78c0.66 1.13 1.59 2.04 2.78 2.72 1.19 0.66 2.31 0.97 3.41 0.97 1.12-0.03 2.31-0.44 3.53-1.22 1.25-0.81 2.4-1.9 3.47-3.31 0.4 0.66 0.81 1.28 1.25 1.91 1.18-1.41 2.37-2.57 3.56-3.47v-0.28c-0.72-0.72-1.44-1.5-2.16-2.38 1.53-2.75 2.72-5.4 3.57-7.97 0.84-2.56 1.65-5.56 2.43-9 0.88 0.03 2.1 0.13 3.63 0.32 1.56 0.18 3.06 0.9 4.53 2.15 1.5 1.22 2.56 2.66 3.19 4.31 0.65 1.66 0.93 3.29 0.81 4.88-0.13 1.56-0.56 3.16-1.28 4.78-0.41-0.22-1.28-0.62-2.66-1.25-1.34-0.66-2.78-1-4.31-1.03-1.5-0.03-2.78 0.44-3.84 1.44-1.04 1-1.72 2.4-2.07 4.18-0.31 1.79 0.19 3.32 1.5 4.63 1.32 1.28 3 1.94 5.07 1.97 2.06 0.03 3.71-0.5 4.96-1.63 1.25-1.12 2.13-2 2.66-2.59 1.13 0.97 2.41 2.16 3.81 3.53 0.91-1.44 1.91-2.78 3-4.03-1.59-1.16-3.06-2.16-4.37-3 1.12-2.22 1.75-4.47 1.87-6.72 0.16-2.28-0.12-4.41-0.87-6.41-0.72-2-2.19-3.87-4.38-5.59-2.15-1.72-4.22-2.69-6.22-2.94-2-0.28-3.4-0.47-4.21-0.53 0.25-1.25 0.5-2.56 0.78-3.94l0.72-0.75c0.31-0.31 0.28-0.56-0.1-0.78l-4.4-0.72c-0.15-0.03-0.29-0.06-0.41-0.06zm-1.75 10.06c-0.53 2.41-1.16 4.75-1.88 7.07-0.68 2.28-1.5 4.37-2.43 6.28-1.78-2.38-3.47-5.16-5.07-8.38 1.32-1.28 2.75-2.34 4.35-3.18 1.62-0.88 3.31-1.47 5.03-1.79zm-12.06 8.44c1.5 2.97 2.68 5.1 3.53 6.38 0.87 1.25 1.47 2.09 1.81 2.56-1.31 1.91-2.41 3.03-3.31 3.34-0.91 0.32-1.66 0.35-2.22 0.13-0.56-0.25-1.03-0.72-1.44-1.41-0.37-0.72-0.56-1.78-0.56-3.22 0-1.47 0.25-2.93 0.75-4.37 0.53-1.47 1-2.6 1.44-3.41zm20.53 9c1.34 0 3 0.63 4.94 1.88-0.5 0.65-1.19 1.34-2.07 2.09-0.84 0.75-2 1.06-3.43 0.91-1.41-0.16-2-1.03-1.79-2.6 0.25-1.56 1.04-2.31 2.35-2.28z"/>
  <path id="path59919" d="m418.99 221.19l4.94 8.09" class="stroke"/>
  <text y="219.98546" x="414.51883" class="number">1</text>
  <path id="path60814" d="m443.14 216.56l-2.3 9.6" class="stroke"/>
  <text y="218.1761" x="444.16989" class="number">2</text>
  <path id="path61707" d="m419.27 261.19s-7.23-0.88-8.45-4.8c-1.08-3.47-0.09-7.8 0.28-10.7" class="stroke"/>
  <path id="path62594" d="m453.88 234.82s3 2.74 3.34 5.73c0.34 3-1.41 5.95-2.35 8.33" class="stroke"/>
 </g>
 <text id="cellTU" y="282.67139" x="475.81366" class="label cell">TSU</text>
 <g id="gTU">
  <path id="path2135" d="m475.06 228.97c7.78-1.59 14-2.72 18.65-3.38 4.69-0.68 8.5-0.73 11.44-0.14 2.94 0.57 5.19 1.66 6.75 3.29 1.56 1.59 2.59 3.53 3.09 5.81 0.5 2.25 0.36 4.54-0.42 6.89-0.78 2.34-2.08 4.39-3.89 6.14-1.78 1.72-4.16 3.03-7.12 3.94-2.97 0.87-7.8 1.51-14.49 1.92-0.25-1.81-0.61-3.44-1.08-4.88l0.24-0.32c6.15 0.15 10.45-0.1 12.89-0.75 2.47-0.66 4.4-1.6 5.81-2.82 1.44-1.25 2.45-2.75 3.05-4.5 0.59-1.78 0.72-3.37 0.37-4.78-0.34-1.44-1-2.7-1.97-3.8-0.93-1.12-2.45-1.92-4.54-2.39-2.1-0.46-5.08-0.4-8.96 0.19-3.84 0.6-9.92 2.14-18.23 4.64-0.41-1.87-0.99-3.39-1.74-4.54l0.15-0.52"/>
  <path id="path63485" d="m475.68 225.95l16.48-2.92" class="stroke"/>
  <text y="222.61136" x="474.34619" class="number">1</text>
 </g>
 <text id="cellSU" y="282.67139" x="545.81366" class="label cell">SU</text>
 <g id="gSU">
  <path id="path2151" d="m563.8 219.26c-0.56 0.1-0.81 0.38-0.75 0.82 0.32 0.47 0.5 1.06 0.6 1.78 0.12 0.69 0.28 2.47 0.47 5.34-6.75 0.19-13.97 0.13-21.69-0.15v0.46c0.31 1.1 0.5 2.44 0.59 4 7.72-0.31 14.78-0.56 21.19-0.75-0.03 1.63-0.09 3.44-0.19 5.47-1.22-0.68-2.68-1-4.43-0.97-1.72 0.04-3.16 0.44-4.29 1.25-1.09 0.82-1.9 1.88-2.43 3.19-0.5 1.31-0.6 2.75-0.28 4.28 0.34 1.5 1.09 2.85 2.21 4.07 1.13 1.18 2.29 1.9 3.47 2.15 1.19 0.22 2.25 0.19 3.22-0.09s1.72-0.56 2.25-0.88c-0.12 0.63-0.4 1.47-0.87 2.53-0.44 1.07-1.32 2.19-2.6 3.38s-3.25 2.31-5.93 3.37v0.32c1.15 1.37 2.09 2.75 2.84 4.12 2.84-1.87 4.91-3.44 6.16-4.69 1.25-1.21 2.28-2.75 3.09-4.59 0.84-1.84 1.37-3.87 1.59-6.09s0.28-3.78 0.19-4.72c-0.06-0.97-0.22-1.78-0.47-2.41 0.19-1.87 0.31-3.56 0.38-5.06 0.09-1.53 0.12-3.09 0.12-4.72 5.13-0.16 10.22-0.34 15.25-0.53l-0.65-4.03c-4.66 0.4-9.54 0.72-14.6 0.94-0.03-1.75-0.06-3.72-0.12-5.91l0.37-0.94c0.35-0.44 0.28-0.72-0.19-0.84l-4.5-0.1zm-4.12 19.29c0.43 0.02 0.87 0.12 1.34 0.28 0.97 0.31 1.63 0.68 1.94 1.15 0.31 0.44 0.53 0.94 0.66 1.5-0.25 2.03-0.63 3.38-1.1 4.03-0.47 0.63-1.09 1-1.9 1.13-0.78 0.12-1.63-0.03-2.5-0.47-0.88-0.44-1.5-1.25-1.88-2.47-0.34-1.22-0.25-2.31 0.28-3.25 0.53-0.97 1.19-1.56 1.94-1.78 0.39-0.11 0.79-0.15 1.22-0.12z"/>
  <path id="path64376" d="m539.91 224.1c0.84 0 17.11 0.21 17.11 0.21" class="stroke"/>
  <text y="221.34898" x="542.50293" class="number">1</text>
  <path id="path2226" d="m554.09 252.08s-5.19-2.35-5.74-6.03 2.21-6.67 3.53-8.69" class="stroke"/>
  <path id="path4062" d="m571.76 213.47l0.44 10.94" class="stroke"/>
  <text y="219.47533" x="574.62927" class="number">2</text>
 </g>
 <text id="cellKU" y="282.67139" x="609.81366" class="label cell">KU</text>
 <g id="gKU">
  <path id="path2165" d="m629.11 220.68c0.03-0.44 0.31-0.62 0.85-0.56l4.31 2.01c0.5 0.25 0.47 0.52-0.1 0.8l-0.84 0.38c-3.37 4.62-6.78 8.43-10.22 11.43s-5.26 4.74-5.48 5.21c-0.19 0.43-0.21 0.86-0.05 1.26 0.16 0.41 1.92 1.99 5.3 4.74 3.4 2.75 7.72 6.39 12.93 10.92v0.37c-1.06 0.94-2.31 2.36-3.75 4.27-5-6-9.43-10.66-13.31-13.97-3.84-3.31-5.83-5.27-5.95-5.86-0.09-0.59-0.08-1.2 0.05-1.83 0.12-0.65 2-2.62 5.62-5.9 3.63-3.32 6.33-6.22 8.11-8.72 1.81-2.5 2.66-4.02 2.53-4.55"/>
  <path id="path4991" d="m627.39 217.85l-12.95 13.83" class="stroke"/>
  <text y="220.30806" x="617.91571" class="number">1</text>
 </g>
 <text id="cellU" y="282.67139" x="680.04718" class="label cell">U</text>
 <g id="gU">
  <path id="path2185" d="m682.72 219.83l-1.31 4.13c5.06 1.43 10.81 2.56 17.22 3.34 0.25-1.63 0.5-2.94 0.78-3.94l-0.19-0.37c-5.62-0.35-11.12-1.41-16.5-3.16zm8 12.34c-1.4 0.06-2.79 0.22-4.15 0.5-2.69 0.54-6.28 1.44-10.82 2.72l-0.15 0.47c0.87 1.35 1.59 2.81 2.12 4.38 4.03-2 7.16-3.25 9.41-3.75 2.28-0.5 4.5-0.6 6.62-0.28 2.16 0.31 3.63 1.03 4.44 2.18 0.81 1.16 1.31 2.41 1.47 3.72 0.19 1.31-0.06 3.03-0.72 5.16-0.62 2.12-1.62 3.87-3.03 5.28-1.37 1.41-3.22 2.59-5.53 3.56-2.28 0.97-4.59 1.63-6.91 1.94v0.47c0.88 1.15 1.57 2.56 2.07 4.25 3.31-1.06 6-2.13 8.06-3.22 2.09-1.06 4.12-2.66 6.06-4.78 1.94-2.13 3.22-4.47 3.84-7 0.66-2.56 0.85-4.78 0.6-6.66-0.25-1.9-1.1-3.75-2.56-5.53-1.44-1.81-3.63-2.87-6.54-3.22-1.45-0.17-2.87-0.24-4.28-0.19z"/>
  <path id="path5912" d="m682.63 216.89l17.08 3.54" class="stroke"/>
  <text y="215.10347" x="683.76062" class="number">1</text>
  <path id="path6835" d="m670.49 232.99l14.58-3.96" class="stroke"/>
  <text y="229.38266" x="670.37482" class="number">2</text>
 </g>
<!-- -E -->
 <text id="cellWE" y="362.67139" x="94.317238" class="label cell">WE</text>
 <g id="gWE">
  <path id="path2255" d="m114.69 299.91c-0.11 0-0.21 0.03-0.32 0.12l-0.62 0.72c-3.6 0.5-6.19 0.78-7.78 0.88-1.57 0.09-3.25 0.12-5.07 0.06l-0.12 0.37c0.69 1.32 1.06 2.47 1.12 3.47 4.47-0.75 7.88-1.31 10.22-1.68-3.65 3.93-9 8.53-16.028 13.78v0.37c1.219 0.94 2.219 1.97 3.032 3.13 1.216-1.35 2.906-2.97 5.026-4.88l-0.62 0.66c1.25-1 2.75-1.88 4.5-2.63 1.75-0.78 3.53-1.22 5.31-1.31 1.81-0.12 3.31 0.03 4.53 0.47 1.25 0.44 2.16 1.09 2.69 1.97 0.53 0.84 0.72 1.9 0.56 3.15-0.15 1.22-0.62 2.22-1.37 3-0.72 0.79-1.5 1.38-2.35 1.79-0.81 0.37-1.46 0.62-1.96 0.75 0.28-0.54 0.4-1.19 0.37-1.94 0-0.78-0.41-1.63-1.22-2.53-0.81-0.91-1.97-1.44-3.47-1.63-1.5-0.22-2.78-0.12-3.87 0.31-1.1 0.44-1.97 1.29-2.6 2.5-0.59 1.19-0.62 2.32-0.12 3.41s1.37 1.94 2.62 2.5c-1.37 0.94-3.37 2.28-5.96 4.03-2.598 1.75-5.973 3.69-10.16 5.85v0.37c1.031 1.22 1.875 2.41 2.562 3.56 3.782-2.72 7.058-5.03 9.808-6.93 3.47-1.13 5.47-1.25 6-0.41 0.57 0.84 0.91 1.69 1.04 2.56 0.12 0.88 0.12 1.97 0 3.28h4.12c0.13-1.25 0.75-2.37 1.91-3.37 1.18-1.03 2.31-1.81 3.37-2.38 1.1-0.59 2.31-1 3.63-1.18 1.31-0.22 2.5-0.1 3.59 0.37s1.78 1.06 2.03 1.78c0.25 0.69 0.25 1.13 0.03 1.28-0.22 0.16-0.81 0.38-1.78 0.66-0.97 0.25-2.4 0.41-4.34 0.5v0.47c0.56 0.84 1 2 1.31 3.47 3.56-0.88 5.88-1.5 6.97-1.88 1.09-0.34 1.87-0.84 2.34-1.53s0.41-1.78-0.22-3.28c-0.62-1.53-1.96-2.84-4-3.91-2.03-1.09-4.09-1.47-6.18-1.12-2.1 0.34-3.88 0.9-5.38 1.65-1.5 0.72-2.9 1.66-4.22 2.85-0.72-2.38-2.37-3.5-4.97-3.41 1.29-0.87 2.38-1.69 3.29-2.4 0.62 0 1.65-0.04 3.09-0.13 1.44-0.12 3.03-0.69 4.81-1.66 1.78-0.96 3.13-2.06 4-3.31 0.88-1.25 1.35-2.56 1.44-3.94 0.09-1.37-0.22-2.81-0.94-4.28s-2.22-2.59-4.53-3.37c-2.28-0.81-4.28-1.1-5.97-0.85-1.65 0.25-2.94 0.57-3.87 0.91 2.06-1.97 4.53-4.34 7.4-7.09l1.16-0.38c0.84-0.31 0.91-0.72 0.16-1.22-1.47-0.87-2.69-1.62-3.66-2.25-0.11-0.09-0.23-0.12-0.34-0.12zm-5.29 20.94c1.04-0.13 1.79 0.15 2.29 0.81 0.53 0.65 0.12 1.53-1.22 2.62-0.53-0.06-1.13-0.15-1.78-0.25-0.63-0.09-0.91-0.59-0.88-1.53 0.06-0.97 0.59-1.53 1.59-1.65z" class="old"/>
  <path id="path7764" d="m99.513 298.98l14.717-1.47" class="stroke"/>
  <text y="296.9838" x="98.875938" class="number">1</text>
  <path id="path8685" d="m120.54 308.8s4.94 0.68 6.76 3.64c1.83 2.97 0.69 6.91 0.45 9.11" class="stroke"/>
  <path id="path9602" d="m91.416 334.16s-6.646 3.75-4.122 6.77c2.524 3.03 11.837 0.25 15.576-0.71" class="stroke"/>
  <path id="path10519" d="m128.95 327.32c4.95-0.13 7.57 4.25 9.5 6.55" class="stroke"/>
 </g>
 <text id="cellRE" y="362.67139" x="162.31723" class="label cell">RE</text>
 <g id="gRE">
  <path id="path2031" d="m199.56 328.26c-1.22 2.31-2.36 4.17-3.42 5.57-1.03 1.41-2.41 2.39-4.13 2.96-1.69 0.56-3.15 0.36-4.4-0.61s-1.86-2.42-1.83-4.36c0.06-1.94 0.15-4.85 0.28-8.72 0.16-3.88 0.26-6.63 0.33-8.25 0.09-1.63-0.16-2.63-0.75-3-0.57-0.41-1.38-0.55-2.44-0.42-1.06 0.09-2.73 0.79-5.02 2.11-2.28 1.28-5.17 3.75-8.67 7.4 0.03 2.07 0.06 4.57 0.1 7.5 0.06 2.94 0.34 6.47 0.84 10.6l-0.14 0.42c-1.41 0.09-3.02 0.36-4.83 0.8-0.09-4.22-0.16-9-0.19-14.35-1.9 2.44-3.97 5.25-6.18 8.44l-0.38-0.05c-0.87-1.15-2.01-2.31-3.42-3.47 3.16-3.47 5.89-6.45 8.2-8.95 0.66-1.25 1.25-2.5 1.78-3.75v-4.45c-2.28 0.62-4.56 1.39-6.84 2.29-0.41-1.43-0.97-2.78-1.69-4.03l0.1-0.42c3.18-0.4 6.01-0.86 8.48-1.36 0.03-2.03 0.09-4.09 0.19-6.19 0.09-2.09 0.01-3.32-0.24-3.7-0.15-0.56 0-0.81 0.47-0.75l4.64 0.42c0.44 0.16 0.44 0.41 0 0.75l-0.51 0.71c-0.16 2.5-0.27 4.9-0.33 7.21 1.06 0.38 2.19 0.91 3.37 1.6 0.44 0.34 0.35 0.7-0.28 1.08l-1.45 0.84c-0.53 1.31-1 2.44-1.41 3.38 2.19-2.04 4.57-3.83 7.13-5.4 2.59-1.56 4.56-2.43 5.9-2.62 1.38-0.19 2.97 0.11 4.79 0.89 1.81 0.78 2.75 2.28 2.81 4.5 0.09 2.19 0.05 5.24-0.14 9.14-0.16 3.88-0.24 6.58-0.24 8.11 0 1.5 0.43 2.22 1.27 2.16 0.84-0.07 1.62-0.67 2.34-1.83s1.35-2.61 1.88-4.36l4.03 2.16"/>
  <path id="path11440" d="m174.15 296.41l1.04 10.2" class="stroke"/>
  <text y="297.71243" x="175.36768" class="number">1</text>
  <path id="path12361" d="m151.17 308.58l9.94-1.11" class="stroke"/>
  <text y="305.20706" x="149.45668" class="number">2</text>
  <path id="path13282" d="m186.95 304.43s4.31 0.51 6.04 3.53 0.96 7.65 0.88 9.86" class="stroke"/>
  <path id="path14199" d="m153.23 328.61s-3.85 8.03-1.36 9.92c3.5 2.68 7.71-1 10.97-2.97" class="stroke"/>
 </g>
 <text id="cellME" y="362.67139" x="289.43399" class="label cell">ME</text>
 <g id="gME">
  <path id="path2061" d="m310.17 300.58c-0.35 0-0.56 0.18-0.63 0.53 0.35 0.57 0.1 2.57-0.72 5.97-1.31 0.13-2.9 0.38-4.78 0.75-1.84 0.35-3.43 0.88-4.78 1.6-1.31 0.72-2.15 1.22-2.53 1.5-0.44-1.41-0.87-2.97-1.31-4.69l0.25-0.94c0.19-0.53 0-0.75-0.56-0.65l-4.04 0.56c-0.46 0.06-0.56 0.34-0.28 0.84 0.35 0.31 0.75 1.44 1.25 3.38 0.53 1.93 0.97 3.37 1.28 4.31-0.31 0.34-0.93 1.06-1.84 2.19-0.87 1.09-1.72 2.72-2.56 4.84-0.85 2.09-1.25 4.34-1.22 6.75s0.34 4.19 0.94 5.34c0.62 1.13 1.56 2.04 2.81 2.75 1.25 0.69 2.44 0.97 3.56 0.82 1.16-0.19 2.31-0.63 3.5-1.28 1.22-0.69 2.5-1.91 3.85-3.69 0.46 0.69 0.93 1.37 1.4 2.06 1.69-1.62 2.94-2.72 3.75-3.25v-0.47c-0.81-0.81-1.56-1.65-2.28-2.53 1.5-2.47 2.78-5 3.84-7.62 1.1-2.66 2.1-5.5 3-8.5 0.44 0.06 1.25 0.25 2.47 0.53 1.22 0.25 2.53 0.93 3.94 2.06 1.44 1.12 2.5 2.62 3.16 4.5 0.68 1.87 1 3.62 0.93 5.28-0.06 1.63-0.53 3.34-1.37 5.13-0.84 1.78-2.28 3.18-4.34 4.25-2.07 1.06-4.75 1.71-8.07 1.93v0.57c0.78 1.43 1.28 2.75 1.53 3.93 4.47-0.78 7.85-2.03 10.13-3.72 2.31-1.71 4-3.68 5.06-5.93 1.06-2.28 1.63-4.44 1.66-6.47 0.06-2.06-0.28-4.19-1.03-6.35-0.72-2.18-2.19-4.15-4.41-5.9-2.19-1.75-4.03-2.75-5.53-3.03-1.47-0.32-2.47-0.53-2.97-0.63 0.38-1.34 0.75-2.75 1.13-4.22l0.75-0.78c0.43-0.4 0.34-0.65-0.29-0.75l-4.25-0.9c-0.14-0.04-0.28-0.07-0.4-0.07zm-2.38 10.38c-0.68 2.4-1.47 4.75-2.37 7-0.88 2.22-1.78 4.15-2.72 5.84-1.38-2.19-2.41-3.97-3.09-5.37-0.69-1.44-1.22-2.66-1.6-3.63 0.81-0.62 1.97-1.34 3.5-2.19 1.53-0.84 3.63-1.4 6.28-1.65zm-12.78 7.12c1.53 3.22 2.69 5.53 3.47 6.94 0.78 1.38 1.31 2.31 1.63 2.78-1.5 2.03-2.79 3.31-3.85 3.85-1.06 0.5-1.9 0.59-2.53 0.28-0.62-0.32-1.06-0.82-1.34-1.5-0.25-0.69-0.35-1.97-0.28-3.82 0.06-1.87 0.37-3.5 0.93-4.87 0.6-1.38 1.25-2.59 1.97-3.66z"/>
  <path id="path15122" d="m295.62 296.62l3.33 10.2" class="stroke"/>
  <text y="297.60834" x="296.82495" class="number">1</text>
  <path id="path16045" d="m321.85 294.23l-4.68 10.61" class="stroke"/>
  <text y="300.00244" x="323.36768" class="number">2</text>
  <path id="path16966" d="m292.19 338.78s-5.68-1.04-7.29-4.79 0.21-7.65 0.83-10.2" class="stroke"/>
  <path id="path18798" d="m328.2 317.02s3.42 3.22 3.05 7.41c-0.36 4.19-2.86 6.94-4.51 9.35" class="stroke"/>
 </g>
 <text id="cellHE" y="362.67139" x="353.43399" class="label cell">HE</text>
 <g id="gHE">
  <path id="path2083" d="m364.94 307.72c1.75 0 4 1.51 6.75 4.54 2.78 3.03 9.43 8.42 19.97 16.17l-0.05 0.57c-1.19 0.9-2.47 2.29-3.84 4.17-10-9.28-16.05-15.02-18.15-17.2-2.06-2.22-3.53-3.33-4.4-3.33-0.85 0-1.53 0.39-2.06 1.17-0.54 0.75-4.32 4.44-11.35 11.06-1.12-1.47-2.39-2.65-3.79-3.56v-0.38c7.15-5.37 11.43-8.92 12.84-10.64 1.44-1.71 2.8-2.57 4.08-2.57"/>
  <path id="path19719" d="m346.75 316.54l11.96-10.64" class="stroke"/>
  <text y="310.12103" x="345.19046" class="number">1</text>
 </g>
 <text id="cellNE" y="362.67139" x="417.43399" class="label cell">NE</text>
 <g id="gNE">
  <path id="path2107" d="m424.36 300.18c-0.24 0.07-0.27 0.33-0.16 0.75 0.25 0.38 0.31 1.57 0.22 3.6s-0.16 3.94-0.19 5.69c-3.06 0.75-6.25 1.28-9.59 1.59l-0.09 0.41c0.71 1.25 1.28 2.59 1.68 4.03 2.53-0.85 5.19-1.69 7.97-2.57v3.32c-0.84 1.81-1.81 3.68-2.87 5.59-2.32 2.53-4.94 5.56-7.88 9.13 1.53 0.96 2.75 2.12 3.63 3.46l0.28 0.07c2.37-3.69 4.65-6.91 6.84-9.63v5.13c0.03 2.56 0.1 5.93 0.19 10.15 1.81-0.43 3.41-0.68 4.81-0.78l0.16-0.44c-0.5-4.12-0.78-7.71-0.85-10.78-0.03-3.06-0.06-5.75-0.09-8.06 2.94-2.97 5.53-5.06 7.78-6.31 2.28-1.25 4.13-1.97 5.56-2.16 1.47-0.22 2.75 0 3.85 0.69 1.12 0.69 1.94 1.75 2.4 3.16 0.47 1.4 0.79 2.9 0.94 4.53 0.16 1.59 0.22 2.97 0.19 4.09-0.03 1.09-0.09 1.94-0.19 2.53-1.87-1.03-3.75-1.69-5.62-1.97-1.85-0.31-3.47-0.15-4.85 0.5-1.34 0.63-2.28 1.53-2.84 2.72-0.53 1.19-0.72 2.31-0.56 3.38 0.18 1.06 0.75 2.09 1.68 3.06 0.94 0.97 2.19 1.69 3.79 2.16 1.59 0.46 3.43 0.37 5.5-0.29 2.09-0.65 3.65-1.78 4.71-3.37 1.07 1.06 2.13 2.25 3.19 3.56 1.06-1.37 2.19-2.59 3.35-3.62l-0.16-0.47c-1.56-1.22-3.09-2.35-4.59-3.38 0.31-1.12 0.5-2.53 0.56-4.25 0.09-1.72 0.09-3.53-0.03-5.4-0.13-1.88-0.69-3.85-1.69-5.91-1-2.09-2.47-3.56-4.38-4.44-1.9-0.87-3.81-1.15-5.75-0.84-1.93 0.31-4.09 1.12-6.46 2.47-2.35 1.34-4.47 2.84-6.38 4.47l-0.06-0.63c0.56-0.84 1.28-1.87 2.12-3.09l1.6-0.85c0.65-0.37 0.75-0.71 0.28-1.06-1.16-0.69-2.22-1.28-3.19-1.78-0.16-0.12-0.31-0.12-0.47 0l-0.19 0.31c0.07-2.15 0.16-4.37 0.29-6.65l0.56-0.78c0.28-0.32 0.22-0.57-0.16-0.72l-4.53-0.32c-0.12-0.01-0.23-0.02-0.31 0zm17.69 28.35c1.53 0 3.43 0.81 5.68 2.4-0.65 1.29-1.65 2.16-2.97 2.63-1.31 0.47-2.46 0.5-3.5 0.12-1.03-0.4-1.78-0.93-2.21-1.62-0.41-0.72-0.38-1.5 0.06-2.31 0.44-0.82 1.4-1.22 2.94-1.22z"/>
  <path id="path20640" d="m410.73 329.02s-3.84 8.03-1.36 9.93c3.51 2.67 7.71-1 10.98-2.97" class="stroke"/>
  <path id="path20642" d="m431.46 295.16l1.04 10.2" class="stroke"/>
  <text y="297.64099" x="434.15485" class="number">1</text>
  <path id="path20648" d="m411.68 308.28l9.93-1.1" class="stroke"/>
  <text y="304.91266" x="409.07733" class="number">2</text>
  <path id="path20654" d="m447.56 307.05s4.34 0.06 7.01 3.18c2.26 2.65 1.89 8.07 2.03 11.63" class="stroke"/>
 </g>
 <text id="cellTE" y="362.67139" x="483.43399" class="label cell">TE</text>
 <g id="gTE">
  <path id="path2133" d="m513.6 301.26c0.35 1.41 0.83 2.8 1.46 4.17l-0.47 0.33c-2.1 0.19-4.25 0.39-6.47 0.61-2.28 1.19-4.55 2.7-6.8 4.55-2.22 1.81-4.01 3.86-5.39 6.14-1.37 2.28-2 4.64-1.87 7.08 0.15 2.4 1.03 4.32 2.62 5.76s3.27 2.35 5.02 2.72c1.75 0.34 4.46 0.39 8.15 0.14l0.14 0.14c-0.34 1.47-0.67 3.19-0.98 5.16-1.85 0.06-3.88-0.02-6.1-0.24-2.18-0.21-4.21-0.84-6.09-1.87-1.87-1.06-3.48-2.52-4.83-4.36-1.31-1.84-2.11-4.14-2.39-6.89-0.25-2.75 0.35-5.39 1.78-7.92 1.47-2.53 2.99-4.5 4.55-5.91 1.56-1.44 2.95-2.64 4.17-3.61-1.12 0.13-3.59 0.44-7.4 0.94-3.82 0.47-8.71 1.2-14.68 2.2-0.31-1.75-0.78-3.29-1.4-4.64l0.19-0.47c2.25 0 4.7-0.11 7.35-0.33 2.66-0.25 6.96-0.73 12.9-1.45 5.93-0.72 11.45-1.47 16.54-2.25"/>
  <path id="path20664" d="m476.12 302.66l12.7-1.25" class="stroke"/>
  <text y="299.70804" x="475.30719" class="number">1</text>
  <path id="path21585" d="m510.28 298.4s10.53-0.59 11.49 2.5c0.95 3.09-5.02 7.5-7.66 9.86" class="stroke"/>
 </g>
 <text id="cellSE" y="362.67139" x="547.43396" class="label cell">SE</text>
 <g id="gSE">
  <path id="path2147" d="m583.1 311.63l0.37 4.03-0.23 0.23c-3.6 0.28-7.18 0.55-10.74 0.8-0.03 4.22-0.33 6.98-0.89 8.3-0.53 1.28-1.48 2.09-2.86 2.43-1.34 0.35-3.83 0.21-7.45-0.42 0.31-1.69 0.48-3.03 0.51-4.03l0.29-0.23c1.59 0.53 2.78 0.84 3.56 0.93 0.81 0.07 1.36 0 1.64-0.18 0.31-0.19 0.56-0.77 0.75-1.74 0.19-1 0.3-2.61 0.33-4.83-1.69 0.13-3.57 0.25-5.63 0.38-2.06 0.12-4.39 0.28-6.98 0.47-0.03 0.87-0.06 2.34-0.1 4.4 0 2.07 0.05 4.05 0.14 5.96 0.13 1.9 0.44 3.29 0.94 4.17 0.53 0.84 1.49 1.36 2.86 1.55 1.38 0.18 2.81 0.28 4.31 0.28 1.54-0.03 3.52-0.1 5.96-0.19 2.47-0.09 5.03-0.36 7.68-0.8l0.43 0.28c-0.47 1.57-0.83 3.13-1.08 4.69-1.31 0.09-2.49 0.17-3.52 0.24-1.03 0.03-2.73 0.06-5.11 0.09-2.34 0.03-4.84-0.03-7.5-0.19-2.65-0.15-4.45-0.53-5.39-1.12-0.9-0.6-1.75-1.57-2.53-2.91-0.75-1.34-1.19-3.12-1.31-5.34-0.13-2.25-0.17-4.44-0.14-6.57 0.03-2.15 0.05-3.56 0.05-4.21-3.1 0.21-6.3 0.45-9.61 0.7-0.13-1.41-0.32-2.85-0.57-4.31v-0.29c3.53 0 6.96-0.04 10.27-0.14 0-1.43 0.03-3.28 0.09-5.53 0.07-2.25-0.08-3.59-0.42-4.03 0.03-0.5 0.25-0.75 0.66-0.75l4.73 0.38c0.38 0.15 0.41 0.42 0.1 0.79l-0.47 0.8c-0.16 3.06-0.28 5.78-0.38 8.16 2.38-0.1 4.58-0.21 6.61-0.33 2.06-0.16 4.05-0.31 5.95-0.47 0-1.59-0.01-3.61-0.04-6.05-0.03-2.47-0.24-3.97-0.61-4.5-0.06-0.4 0.15-0.62 0.65-0.65l4.13 0.23c0.41 0.13 0.48 0.34 0.23 0.66l-0.42 0.84c0.06 3.47 0.1 6.5 0.1 9.09 3.5-0.31 7.04-0.67 10.64-1.07"/>
  <path id="path22502" d="m534.82 310.32l12.7-1.25" class="stroke"/>
  <text y="307.99805" x="533.80542" class="number">1</text>
  <path id="path22508" d="m576.03 299.13v10.15" class="stroke"/>
  <text y="300.89316" x="577.29242" class="number">2</text>
  <path id="path23429" d="m560.03 299.13v10.15" class="stroke"/>
  <text y="301.03595" x="553.92273" class="number">3</text>
 </g>
 <text id="cellKE" y="362.67139" x="611.43396" class="label cell">KE</text>
 <g id="gKE">
  <path id="path2163" d="m633.98 300.37c-0.31 0.04-0.38 0.25-0.22 0.62 0.25 0.54 0.47 2.16 0.63 4.85 0.15 2.65 0.25 4.34 0.28 5.06-4.16 0.31-8.69 0.28-13.56-0.09l-0.13 0.4c0.31 1.28 0.47 2.63 0.5 4 3.97-0.03 8.44-0.22 13.41-0.53 0.06 0.88 0.09 1.6 0.09 2.13 0.03 0.53 0.06 1.84 0.06 3.93 0 2.07-0.15 4-0.43 5.85-0.25 1.81-0.79 3.37-1.6 4.69-0.78 1.31-1.75 2.43-2.9 3.37-1.13 0.91-2.85 1.75-5.16 2.5v0.5c1.06 1.34 1.91 2.66 2.53 3.91 2.28-1.28 4.13-2.53 5.5-3.72 1.41-1.19 2.59-2.6 3.59-4.25 1-1.69 1.69-3.66 2.04-5.91 0.34-2.28 0.46-4.47 0.4-6.56s-0.12-4.34-0.19-6.75c2.85-0.31 5.38-0.72 7.57-1.22l-1.32-3.94c-2 0.53-4.12 0.94-6.37 1.25-0.09-2.4-0.22-5.22-0.34-8.43l0.34-0.88c0.22-0.37 0.12-0.59-0.28-0.66l-4.03-0.09c-0.16-0.02-0.31-0.04-0.41-0.03zm-24.41 2.41c-0.53 0.03-0.75 0.25-0.65 0.65 0.25 0.44 0.19 2.16-0.19 5.16-0.37 3-0.62 6.44-0.75 10.28-0.09 3.84 0.06 6.94 0.47 9.31 0.41 2.38 1.06 4.28 1.97 5.72 0.9 1.41 1.97 2.03 3.19 1.88 1.21-0.19 2.96-1.69 5.21-4.5-1.06-1.04-2.12-2.16-3.18-3.41h-0.16c-0.87 1.72-1.5 2.47-1.87 2.25-0.38-0.22-0.72-1.06-1.04-2.5-0.31-1.47-0.46-4.28-0.46-8.44 0.03-4.15 0.5-8.84 1.37-14.06l0.69-0.75c0.44-0.41 0.44-0.69 0-0.84l-4.6-0.75z"/>
  <path id="path23443" d="m604.58 304.43c-2.55 4.96-1.1 13.64-0.22 18.61" class="stroke"/>
  <text y="306.52597" x="598.07446" class="number">1</text>
  <path id="path24364" d="m620.78 307.81h11.04" class="stroke"/>
  <text y="305.61734" x="620.01355" class="number">2</text>
  <path id="path25285" d="m642.25 294.23l-0.32 12.07" class="stroke"/>
  <text y="300.20456" x="644.68262" class="number">3</text>
 </g>
 <text id="cellE" y="362.67139" x="681.43396" class="label cell">E</text>
 <g id="gE">
  <path id="path2181" d="m680.48 297.26l-1.31 3.9c4.06 1.19 8.94 2.04 14.63 2.54 0-1.47 0.12-2.88 0.4-4.22-5.15-0.13-9.72-0.88-13.72-2.22zm13.41 10.69c-0.11 0-0.24 0.06-0.34 0.15l-0.41 0.47c-8 0.84-14.41 1.28-19.19 1.31l-0.22 0.57c0.63 1.34 1 2.71 1.16 4.15 4.41-0.78 9.78-1.44 16.09-1.97-7.06 7.07-14.62 14.32-22.65 21.75v0.47c1.37 1.06 2.56 2.31 3.56 3.72 0.91-1.22 2.44-3.03 4.59-5.41 2.16-2.4 4.07-4.43 5.69-6.12 2.81-1.81 4.72-2.84 5.72-3.09s1.78-0.29 2.34-0.07c0.57 0.22 0.85 1.22 0.88 3 0.03 1.75 0.12 3.5 0.25 5.25 0.12 1.75 0.44 3.03 0.94 3.82 0.53 0.81 1.71 1.28 3.59 1.43 1.91 0.19 3.69 0.28 5.34 0.25 1.66-0.03 3.78-0.06 6.38-0.06 0.25-1.59 0.62-3.25 1.12-5l-0.28-0.47c-3.62 0.69-6.44 1.03-8.44 1.03-2-0.03-3.28-0.22-3.84-0.53-0.53-0.34-0.81-1.09-0.87-2.25-0.04-1.19-0.13-2.69-0.25-4.5-0.13-1.84-0.44-3.12-0.94-3.87s-1.19-1.28-2.1-1.6c-0.87-0.34-1.59-0.43-2.15-0.28-0.56 0.16-0.97 0.28-1.19 0.38 2.44-2.44 5.22-5.19 8.34-8.25l0.85-0.28c0.59-0.41 0.62-0.82 0.09-1.22-1.09-1-2.34-1.88-3.75-2.63-0.11-0.09-0.2-0.15-0.31-0.15z"/>
  <path id="path26210" d="m679.51 293.24l14.72 3.09" class="stroke"/>
  <text y="295.48535" x="674.47546" class="number">1</text>
  <path id="path27131" d="m670.5 306.76h11.04" class="stroke"/>
  <text y="305.0285" x="667.8562" class="number">2</text>
  <path id="path27137" d="m698.77 305.88c0.52 0.11 4.16 1.57 4.27 4.17 0.1 2.6-2.58 4.63-3.85 6.24" class="stroke"/>
  <path id="path28054" d="m666.48 331.44s-2.2 7.54 0.37 9.71c2.58 2.18 8.89-0.42 12.52-1.61" class="stroke"/>
 </g>
<!-- -O -->
 <text id="cellWO" y="442.67139" x="92.317238" class="label cell">WO</text>
 <g id="gWO">
  <path id="path2025" d="m126.96 394.4l0.24-0.61c0.12-0.59 0.39-0.69 0.79-0.28l3.94 3.61c0.06 0.47-0.2 0.77-0.8 0.89-0.59-0.12-2.18 0.25-4.78 1.13-2.59 0.87-5.45 2.06-8.57 3.56 0.03 0.53 0.06 1.4 0.09 2.62 0.06 1.19 0.11 3.13 0.14 5.82h-4.5c0.22-2.25 0.33-4.43 0.33-6.52-2.19 1.16-3.78 2.14-4.78 2.95-0.97 0.82-1.77 1.72-2.39 2.72-0.63 1-0.79 1.99-0.47 2.96 0.31 0.93 0.81 1.57 1.5 1.92 0.68 0.31 1.83 0.54 3.42 0.7 1.62 0.13 3.5 0.14 5.62 0.05 2.16-0.1 5.66-0.41 10.5-0.94l0.33 0.28c-0.31 1.19-0.54 2.69-0.7 4.5h-11.67c-2.32 0.03-4.58-0.14-6.8-0.51-2.22-0.35-3.81-0.94-4.78-1.79-0.97-0.87-1.64-2.01-2.02-3.42-0.37-1.44-0.17-2.87 0.61-4.31 0.82-1.44 2.02-2.78 3.61-4.03 1.6-1.25 4.22-2.88 7.88-4.88-0.03-0.4-0.11-1.07-0.24-2.01-0.09-0.94-1.06-1.49-2.9-1.64-1.85-0.19-4.58 0.84-8.21 3.09-1.31 1.5-2.762 3.11-4.356 4.83-0.937-1.19-1.953-2.27-3.047-3.24l-0.047-0.42c2.532-1.75 4.704-3.64 6.52-5.67 1.81-2.03 3.23-3.95 4.26-5.76-2.94 0.34-6.045 0.67-9.326 0.98-0.125-1.31-0.375-2.59-0.75-3.84l0.187-0.29c4.219-0.03 8.169-0.23 11.859-0.6 0.38-0.82 0.81-1.86 1.31-3.15 0.53-1.31 0.64-2.25 0.33-2.81-0.03-0.34 0.17-0.56 0.61-0.65l5.02 0.79c0.37 0.13 0.37 0.33 0 0.61l-0.85 0.66c-0.65 1.47-1.28 2.8-1.87 3.98 3.18-0.43 6.14-1.03 8.86-1.78l0.89 3.8c-3.03 0.59-6.92 1.19-11.67 1.78-1.19 2.12-2.55 4.19-4.08 6.19 2.28-1.16 4.47-1.58 6.56-1.27 2.12 0.31 3.58 1.88 4.36 4.69 2.66-1.34 5.94-2.91 9.84-4.69"/>
  <path id="path28975" d="m92.85 383.64l13.32-0.83" class="stroke"/>
  <text y="381.18683" x="91.662743" class="number">1</text>
  <path id="path29896" d="m119.71 372.61l-3.34 9.99" class="stroke"/>
  <text y="377.62546" x="121.685" class="number">2</text>
  <path id="path30817" d="m91.637 397.98s-3.008 9.51-0.506 11.5c2.503 1.99 8.017-1.88 10.519-3.55" class="stroke"/>
  <path id="path31734" d="m133 400.55l-11.92 4.35" class="stroke"/>
  <text y="409.12799" x="128.89821" class="number">3</text>
 </g>
 <text id="cellRO" y="442.67139" x="161.43398" class="label cell">RO</text>
 <g id="gRO">
  <path id="path2029" d="m182.3 381.04l0.24-0.42c0.22-0.19 0.43-0.19 0.65 0 1.03 0.63 2.22 1.38 3.57 2.25 0.56 0.44 0.51 0.85-0.14 1.22l-0.99 0.38c-4.56 5.12-8.3 9.31-11.2 12.56 1.53-0.69 3.39-1.22 5.58-1.6 2.21-0.37 4.78 0.05 7.68 1.27 2.94 1.19 4.89 2.86 5.86 5.02 0.97 2.15 1.27 4.45 0.89 6.89-0.34 2.43-1.31 4.53-2.9 6.28-1.57 1.72-4 2.9-7.32 3.56-3.31 0.69-7.46 0.89-12.46 0.61-0.16-1.56-0.52-2.97-1.08-4.22v-0.19c4.31 0.47 7.73 0.6 10.26 0.38 2.53-0.25 4.61-0.88 6.24-1.88 1.62-1 2.58-2.54 2.86-4.64 0.31-2.09 0.12-3.89-0.57-5.39-0.68-1.53-1.95-2.7-3.79-3.51-1.85-0.85-3.89-1.13-6.14-0.85s-4.32 0.97-6.19 2.06c-1.84 1.07-3.75 2.38-5.72 3.94-2.09 2.38-3.69 4.21-4.78 5.49-1.09-1.63-2.22-2.69-3.38-3.19v-0.56c7.44-6.91 14.18-14.13 20.21-21.66-4.69 0.63-9.38 1.31-14.06 2.06-0.16-1.43-0.49-2.76-0.99-3.98l0.24-0.56c1.93 0.06 4.39-0.02 7.35-0.24 2.97-0.22 6.33-0.58 10.08-1.08"/>
  <path id="path32659" d="m164.88 379.27l17.7-1.46" class="stroke"/>
  <text y="377.36987" x="163.93146" class="number">1</text>
  <path id="path33580" d="m159.09 401.1s-3.53 8.65-1.24 10.88c3.24 3.13 9.58-1.57 13.85-4.8" class="stroke"/>
  <path id="path33582" d="m194.03 398.11s3.77 3.64 4.26 7.7c0.5 4.06-2.01 8.24-2.87 10.3" class="stroke"/>
 </g>
 <text id="cellYO" y="442.67139" x="225.43398" class="label cell">YO</text>
 <g id="gYO">
  <path id="path2047" d="m238.4 379.63c-0.46 0.06-0.62 0.31-0.5 0.75 0.35 0.43 0.54 2.21 0.6 5.37s0.15 6.03 0.28 8.59c0.16 2.54 0.28 6.13 0.34 10.79-1.37-0.16-3.28-0.25-5.68-0.25-2.38 0-4.35 0.4-5.94 1.21-1.56 0.79-2.66 1.97-3.25 3.57-0.6 1.59-0.75 2.93-0.5 4.03 0.25 1.06 0.78 2.09 1.62 3.06 0.85 1 2.16 1.69 3.94 2.09 1.81 0.41 3.28 0.6 4.41 0.54 1.12-0.07 2.34-0.29 3.62-0.63 1.31-0.34 2.44-1 3.41-1.97 1-0.97 1.62-2.03 1.87-3.19 0.28-1.15 0.47-2.4 0.57-3.75 4.62 1.57 8.65 3.72 12.06 6.44 1.25-1.97 2.28-3.37 3.12-4.19v-0.56c-4.4-2.12-7.78-3.53-10.15-4.25-2.38-0.72-4.03-1.19-4.94-1.4-0.06-4.85-0.13-8.63-0.22-11.35 5.63-0.47 10.19-1.06 13.72-1.75l-1.25-3.97c-3.72 0.97-7.94 1.6-12.63 1.88-0.06-2.44-0.12-5.5-0.18-9.16l0.62-0.87c0.35-0.38 0.28-0.63-0.15-0.75l-4.79-0.28zm-3.96 28.62c1.65 0 3.18 0.16 4.59 0.47-0.06 1.5-0.25 2.75-0.53 3.72s-0.78 1.69-1.5 2.15c-0.72 0.47-1.6 0.79-2.66 0.94-1.06 0.16-2.4 0.03-4.03-0.34-1.59-0.38-2.44-1.35-2.53-2.91-0.06-1.59 0.59-2.65 2-3.22 1.44-0.56 3-0.84 4.66-0.81z"/>
  <path id="path34503" d="m246.21 386.11l13.33-1.87" class="stroke"/>
  <text y="384.21036" x="246.30511" class="number">1</text>
  <path id="path35424" d="m234.36 378.32l1.03 14.14" class="stroke"/>
  <text y="385.13309" x="227.52763" class="number">2</text>
  <path id="path36345" d="m226.3 419.66s-5.6-1.04-6.35-4.9c-0.76-3.85 1.98-7.95 3.33-10.51" class="stroke"/>
  <path id="path37262" d="m252.61 405.41l8.68 3.68" class="stroke"/>
 </g>
 <text id="cellMO" y="442.67139" x="287.43396" class="label cell">MO</text>
 <g id="gMO">
  <path id="path2055" d="m310.73 386.83l0.89 3.84c-2.56 0.37-5.94 0.56-10.13 0.56-0.28 1.53-0.51 2.89-0.7 4.08-0.19 1.16-0.34 2.16-0.47 3 0.47 0.03 1.63 0.08 3.47 0.14 1.84 0.03 4.59-0.2 8.25-0.7l0.84 4.03c-3.87 0.44-6.87 0.61-9 0.51-2.12-0.12-3.48-0.2-4.07-0.23-0.19 1.44-0.36 2.98-0.52 4.64-0.16 1.63-0.02 3.05 0.42 4.27s1.33 2.15 2.67 2.81c1.35 0.62 3.07 0.98 5.16 1.08 2.09 0.09 4-0.22 5.72-0.94 1.75-0.75 2.9-2.34 3.47-4.78 0.56-2.47 0.34-5.25-0.66-8.35 1.44-0.18 2.97-0.54 4.59-1.07 0.97 3.81 1.15 7.28 0.52 10.4-0.62 3.1-2.36 5.41-5.2 6.94-2.85 1.56-5.85 2.2-9 1.92-3.16-0.25-5.69-0.97-7.6-2.15-1.87-1.16-3.14-2.68-3.79-4.55-0.66-1.91-0.88-3.72-0.66-5.44s0.45-3.42 0.7-5.11c-0.68-0.09-1.56-0.23-2.62-0.42s-2.63-0.8-4.69-1.83l1.88-3.47c2 1 3.39 1.58 4.17 1.74 0.81 0.12 1.42 0.22 1.83 0.28 0.09-0.75 0.23-1.74 0.42-2.95 0.19-1.22 0.39-2.52 0.61-3.89-2.22-0.07-4.64-0.15-7.27-0.24 0.06-1.16-0.05-2.47-0.33-3.94l0.28-0.28c2.91 0.35 5.57 0.58 7.97 0.71 0.19-1.04 0.47-2.47 0.85-4.32 0.37-1.87 0.39-3.03 0.04-3.47 0.04-0.5 0.25-0.75 0.66-0.75l4.59 0.75c0.41 0.22 0.44 0.49 0.1 0.8l-0.75 0.75c-0.44 2.16-0.85 4.25-1.22 6.28 2.97-0.06 5.83-0.28 8.58-0.65"/>
  <path id="path38183" d="m284.63 383.34l11.31 0.38" class="stroke"/>
  <text y="386.50778" x="278.85629" class="number">2</text>
  <path id="path39104" d="m283.96 393.71l10.75 0.15" class="stroke"/>
  <text y="395.48746" x="278.78268" class="number">3</text>
  <path id="path40025" d="m308.99 375.23l-2.06 9.57" class="stroke"/>
  <text y="380.76663" x="311.09488" class="number">1</text>
 </g>
 <text id="cellHO" y="442.67139" x="351.43396" class="label cell">HO</text>
 <g id="gHO">
  <path id="path2081" d="m388.53 381.45c-4.57 0.6-8.47 0.97-11.72 1.13-3.22 0.15-6.91 0.12-11.07-0.06l-0.25 0.34c0.25 1.41 0.41 2.72 0.47 3.97 4.13-0.13 8-0.25 11.63-0.41-0.22 0.1-0.28 0.31-0.19 0.66 0.28 0.44 0.47 1.47 0.53 3.12 0.1 1.63 0.16 2.82 0.19 3.57-4.03 0.21-8.38 0.25-13 0.06l-0.22 0.31c0.31 1.31 0.44 2.69 0.38 4.13 4.62-0.16 8.96-0.35 13.06-0.57 0.03 0.44 0.09 1.41 0.19 2.88 0.12 1.44 0.18 3.28 0.15 5.56-2.09-0.44-3.9-0.59-5.44-0.5-1.53 0.09-3 0.5-4.4 1.25-1.38 0.72-2.28 1.78-2.69 3.16-0.37 1.37-0.41 2.56-0.12 3.56 0.31 0.97 0.78 1.78 1.4 2.44 0.63 0.65 1.6 1.22 2.91 1.68 1.34 0.5 2.56 0.75 3.65 0.79 1.1 0.03 2.22-0.07 3.38-0.32 1.19-0.25 2.22-0.75 3.09-1.47 0.91-0.71 1.5-1.62 1.78-2.75 0.29-1.15 0.47-2.03 0.57-2.59 2.18 1.06 4.72 2.59 7.59 4.56 0.75-1.81 1.53-3.28 2.38-4.37v-0.38c-3.79-1.72-7.04-3-9.75-3.87-0.1-2.53-0.19-4.66-0.29-6.35-0.06-1.68-0.12-2.87-0.18-3.56 3.31-0.22 6.22-0.47 8.68-0.78l-0.43-4.19c-2.53 0.44-5.35 0.78-8.44 1.03-0.06-1.65-0.13-3.5-0.22-5.53l0.38-0.78c0.21-0.34 0.18-0.56-0.1-0.65l-3.94-0.16c3.66-0.19 7.16-0.47 10.5-0.84l-0.46-4.07zm-35.5 0.22c-0.54 0.03-0.66 0.25-0.41 0.66 0.28 0.31 0.28 2.15 0 5.5-0.25 3.34-0.47 7.56-0.66 12.65-0.15 5.1-0.09 8.79 0.19 11.1 0.31 2.28 0.94 4.12 1.88 5.53 0.93 1.44 2.06 2.06 3.37 1.87 1.31-0.15 3.09-1.56 5.34-4.25-1.03-1.09-2.06-2.34-3.09-3.75l-0.25 0.04c-0.91 1.84-1.53 2.68-1.91 2.5-0.37-0.19-0.71-1.04-1.03-2.54-0.31-1.5-0.4-4.93-0.28-10.28 0.16-5.34 0.56-10.93 1.22-16.81l0.66-0.75c0.37-0.37 0.31-0.66-0.16-0.81l-4.87-0.66zm21.25 27.28c1.01 0.03 2.42 0.3 4.25 0.82-0.04 0.81-0.13 1.71-0.29 2.71-0.12 0.97-0.56 1.63-1.34 1.97-0.75 0.32-1.53 0.5-2.31 0.57-0.78 0.06-1.72-0.07-2.85-0.38-1.09-0.31-1.71-1.03-1.87-2.16-0.13-1.12 0.16-1.93 0.87-2.43 0.75-0.53 1.63-0.88 2.63-1.03 0.25-0.05 0.57-0.07 0.91-0.07z"/>
  <path id="path40946" d="m348.08 383.02c-1.04 4.89-1.04 14.57-0.83 19.57" class="stroke"/>
  <text y="390.97632" x="341.341" class="number">1</text>
  <path id="path41867" d="m365.15 379.52l19.12-0.15" class="stroke"/>
  <text y="382.68036" x="359.37915" class="number">2</text>
  <path id="path41873" d="m364.9 390.71l10.75 0.15" class="stroke"/>
  <text y="393.53369" x="358.681" class="number">3</text>
  <path id="path41879" d="m393.78 386.04l0.52 15.3" class="stroke"/>
  <text y="385.41452" x="391.57404" class="number">4</text>
  <path id="path42800" d="m369.7 419.25c-2.88-0.99-4.95-2.81-6.24-6-1.36-3.38 1.74-6.72 3.3-9.16" class="stroke"/>
  <path id="path43717" d="m387.43 405.97l8.83 3.09" class="stroke"/>
 </g>
 <text id="cellNO" y="442.67139" x="416.84512" class="label cell">NO</text>
 <g id="gNO">
  <path id="path2103" d="m435.71 382.75c-1.53 0-3.28 0.22-5.21 0.66-1.91 0.4-3.79 1.18-5.63 2.37s-3.5 2.66-5 4.38c-1.47 1.71-2.72 3.93-3.72 6.68s-1.34 5.13-1.06 7.13 0.87 3.81 1.78 5.44c0.94 1.59 1.97 2.75 3.09 3.46 1.13 0.69 2.22 0.97 3.32 0.82 1.09-0.19 2.4-0.85 3.93-1.94 1.57-1.09 3.22-3.25 4.97-6.5 1.75-3.28 3.53-8.91 5.32-16.88l0.65-0.65c0.31-0.25 0.28-0.47-0.09-0.66l-3.28-0.72c1.68-0.06 3.5 0.16 5.47 0.63 1.96 0.47 3.71 1.28 5.25 2.47 1.56 1.18 2.65 2.75 3.28 4.68 0.62 1.91 0.84 3.91 0.65 6-0.15 2.07-0.68 3.97-1.59 5.69-0.91 1.69-2.34 3.06-4.31 4.16-1.94 1.06-4.75 1.94-8.47 2.59v0.38c0.69 1.25 1.19 2.62 1.5 4.15 4.62-1.25 8.09-2.62 10.4-4.12 2.35-1.5 4.1-3.31 5.25-5.47 1.16-2.16 1.79-4.59 1.91-7.31 0.16-2.75-0.19-5.25-1.03-7.5-0.81-2.25-2.28-4.22-4.41-5.88-2.09-1.65-4.31-2.75-6.65-3.28-2.35-0.53-4.44-0.78-6.32-0.78zm-2.53 3.75v0.12c0.22 0.6-0.18 2.94-1.18 7.04-1 4.06-2.19 7.4-3.6 10.03-1.37 2.59-2.62 4.18-3.72 4.78-1.06 0.59-1.87 0.81-2.43 0.65-0.57-0.15-1.22-0.84-1.97-2.06-0.72-1.22-1.1-2.56-1.13-4.06 0-1.53 0.41-3.34 1.22-5.44 0.81-2.12 1.84-3.87 3.06-5.25 1.25-1.4 2.72-2.65 4.41-3.75 1.69-1.09 3.47-1.78 5.34-2.06z"/>
  <path id="path44634" d="m441.03 389.66l-3.96 12.18" class="stroke"/>
  <text y="399.28888" x="441.26001" class="number">1</text>
  <path id="path45557" d="m428.22 414.54s-6.24 3.7-9.78 2.08c-3.54-1.61-4.97-7.83-5.84-10.45" class="stroke"/>
  <path id="path46474" d="m434.85 380.39s6.96-1.81 12.52 1.32c5.55 3.13 7.87 8.24 9.71 11.19" class="stroke"/>
 </g>
 <text id="cellTO" y="442.67139" x="482.32468" class="label cell">TO</text>
 <g id="gTO">
  <path id="path2131" d="m507.3 391.32l0.32-0.65c0.25-0.54 0.55-0.6 0.89-0.19l3.14 3.7c0.1 0.5-0.1 0.75-0.6 0.75-0.6 0-2.15 0.38-4.65 1.13-2.46 0.75-5.4 1.89-8.81 3.42-3.37 1.5-5.7 2.8-6.98 3.89-1.25 1.06-2.21 2.22-2.86 3.47-0.63 1.22-0.78 2.47-0.47 3.75 0.34 1.25 0.87 2.11 1.59 2.58 0.75 0.43 1.89 0.79 3.43 1.07 1.53 0.25 3.71 0.35 6.56 0.29 2.87-0.07 6.79-0.36 11.76-0.9l0.14 0.29c-0.25 1.21-0.45 2.82-0.61 4.82h-12.14c-3.06 0-5.76-0.23-8.11-0.7-2.34-0.47-4.01-1.3-5.01-2.48-1-1.19-1.66-2.61-1.97-4.27-0.28-1.69-0.08-3.33 0.61-4.92 0.72-1.63 1.73-3.08 3.05-4.36 1.31-1.31 2.97-2.52 4.97-3.61-1.07-3.78-1.72-7.3-1.97-10.55s-0.61-5.01-1.08-5.29c0-0.5 0.26-0.75 0.8-0.75l4.45-0.14c0.4 0.15 0.48 0.4 0.23 0.75l-0.37 0.93c0.19 5.94 0.79 10.3 1.83 13.08 3.15-1.5 7.11-3.2 11.86-5.11"/>
  <path id="path47399" d="m496.73 376.15l3.54 13.94" class="stroke"/>
  <text y="381.91833" x="499.99606" class="number">1</text>
  <path id="path48320" d="m511.7 398.64l-12.66 5" class="stroke"/>
  <text y="407.09094" x="508.38693" class="number">2</text>
 </g>
 <text id="cellSO" y="442.67139" x="546.32471" class="label cell">SO</text>
 <g id="gSO">
  <path id="path2145" d="m579.11 395.27c0.54 1.31 1.07 2.65 1.6 4.03l-0.28 0.23c-2.94 0.13-5.85 0.28-8.72 0.47-0.91 0.34-2.06 0.98-3.47 1.92s-2.94 2.19-4.59 3.75c-1.63 1.56-2.6 3.33-2.91 5.3-0.28 1.97 0.06 3.45 1.03 4.45 1 0.97 2.27 1.55 3.8 1.74 1.56 0.18 4.14 0.01 7.73-0.52 0.28 1.47 0.67 2.95 1.17 4.45l-0.23 0.33c-3.19 0.38-5.8 0.47-7.83 0.28-2-0.15-3.84-0.68-5.53-1.59-1.66-0.91-2.89-2.11-3.7-3.61-0.82-1.53-1.11-3.31-0.89-5.34 0.22-2.04 1.14-3.97 2.76-5.82 1.66-1.84 3.49-3.42 5.49-4.73-1.1 0.09-3.47 0.34-7.13 0.75-3.65 0.37-8.39 0.94-14.2 1.69-0.25-1.72-0.6-3.11-1.03-4.18l0.18-0.32c3.44-0.16 6.35-0.33 8.72-0.52 6.75-5.12 11.55-8.94 14.39-11.44-3.62 0.32-8.01 0.75-13.17 1.32-0.22-1.6-0.62-2.88-1.22-3.85l0.28-0.42c3.97 0.09 7.27 0.06 9.9-0.09 2.65-0.16 5.15-0.35 7.5-0.57l0.32-0.37c0.13-0.19 0.28-0.2 0.47-0.05 1.1 0.75 2.33 1.66 3.71 2.72 0.43 0.56 0.31 0.94-0.38 1.13l-1.22 0.23c-4.75 3.66-9.51 7.27-14.3 10.83 1.25-0.1 3.69-0.31 7.32-0.66 3.62-0.34 8.43-0.86 14.43-1.54"/>
  <path id="path49245" d="m549.68 379.8l17.66 0.29" class="stroke"/>
  <text y="378.38531" x="552.10773" class="number">1</text>
  <path id="path50166" d="m543.36 394.47s-6.19 4.78-5.62 8.32 7.85 4.6 11.44 5.54" class="stroke"/>
  <path id="path51083" d="m579.41 391.28s5.71 2.61 5.89 6.03c0.18 3.43-4.09 6.41-6.62 8.54" class="stroke"/>
 </g>
 <text id="cellKO" y="442.67139" x="608.32471" class="label cell">KO</text>
 <g id="gKO">
  <path id="path2159" d="m617.69 382.78c-0.06 0.88-0.37 2.28-0.9 4.25 3.65 1.1 6.87 1.75 9.62 1.97 2.78 0.19 7 0.19 12.66 0v-4.22c-5.32 0.25-9.25 0.32-11.78 0.19-2.5-0.12-5.6-0.84-9.32-2.19h-0.28zm-4.75 20c-0.94 2.63-1.25 4.75-0.97 6.35 0.28 1.59 0.85 2.84 1.69 3.75 0.84 0.9 2.06 1.59 3.69 2.09 1.62 0.5 3.19 0.87 4.65 1.12 1.5 0.22 3.91 0.35 7.25 0.35 3.35 0 8.07-0.06 14.16-0.16l-0.37-4.87c-6.04 0.53-10.54 0.78-13.5 0.75-2.94-0.03-5.04-0.13-6.29-0.28-1.21-0.19-2.43-0.44-3.65-0.79-1.22-0.34-2.1-0.75-2.63-1.21-0.53-0.5-0.78-1.22-0.78-2.13 0.03-0.94 0.47-2.12 1.35-3.56l-4.6-1.41z"/>
  <path id="path52000" d="m618.04 379.33c1.17 0.29 18.25 0.59 18.25 0.59" class="stroke"/>
  <path id="path52917" d="m611.56 418.49l25.61 2.94" class="rule"/>
  <path id="path52919" d="m611.56 418.49l25.61 2.94" class="stroke"/>
  <text y="376.92804" x="618.51837" class="number">1</text>
  <text y="421.06299" x="605.81915" class="number">2</text>
 </g>
 <text id="cellO" y="442.67139" x="680.32471" class="label cell">O</text>
 <g id="gO">
  <path id="path2177" d="m681.78 378.16c-0.27 0.06-0.4 0.26-0.37 0.59 0.34 0.44 0.43 2.94 0.31 7.5-2.88 0.19-5.97 0.25-9.31 0.16 0.37 1.56 0.53 2.96 0.5 4.21 3.18-0.21 6.12-0.46 8.78-0.71-0.03 2.62-0.03 5.4 0 8.34-2.78 1.03-5.1 2.34-6.94 3.91-1.81 1.56-2.91 3.43-3.25 5.65-0.34 2.19-0.31 3.91 0.06 5.13 0.38 1.22 1.16 2.22 2.38 3.03s2.59 1.31 4.12 1.47c1.57 0.18 3.1-0.1 4.6-0.85 1.53-0.72 2.53-1.5 3-2.34 0.5-0.88 0.65-2.22 0.47-4-0.19-1.78-0.32-4.88-0.41-9.31 0.81-0.22 1.91-0.47 3.31-0.72 1.44-0.28 3.28-0.44 5.5-0.47s3.97 0.16 5.28 0.56c1.35 0.41 2.5 1.03 3.44 1.88 0.94 0.84 1.5 1.84 1.72 2.97 0.25 1.12 0.22 2.15-0.13 3.12-0.34 0.97-0.93 1.81-1.78 2.53-0.84 0.69-1.78 1.13-2.78 1.31-1 0.16-2.03 0-3.12-0.5-1.07-0.5-2.13-1.71-3.19-3.65l-0.38-0.06c-0.78 0.9-1.9 1.75-3.34 2.53 1.28 1.84 2.41 3.18 3.38 4 0.96 0.78 2.31 1.28 4 1.53 1.68 0.25 3.28 0.12 4.81-0.38 1.53-0.53 2.9-1.37 4.12-2.56s2.1-2.56 2.6-4.09c0.53-1.53 0.53-3.13 0.03-4.78-0.5-1.69-1.38-3.1-2.63-4.22-1.25-1.16-2.81-2.07-4.68-2.72-1.85-0.69-4.13-1.03-6.88-1.03-2.75-0.03-4.84 0.09-6.28 0.37-1.44 0.25-2.47 0.44-3.06 0.56 0-2.31 0.03-4.84 0.06-7.59 4.41-0.44 8.06-0.94 11-1.5l-1.16-3.84c-3.03 0.72-6.31 1.28-9.81 1.68 0.03-1.84 0.09-3.75 0.16-5.75l0.59-0.81c0.34-0.34 0.31-0.59-0.09-0.75l-4.32-0.4c-0.12-0.01-0.22-0.03-0.31 0zm19.63 4.62l-2.19 3.56c3.59 1.66 6.44 3.91 8.53 6.72 1.28-1.47 2.31-2.56 3.13-3.25v-0.37c-2.22-2.03-5.38-4.25-9.47-6.66zm-19.63 19.56c0.06 3.94 0.13 6.66 0.19 8.19s-0.34 2.5-1.22 2.91c-0.84 0.4-1.72 0.56-2.62 0.43-0.91-0.15-1.66-0.56-2.22-1.18-0.53-0.63-0.69-1.85-0.5-3.69 0.22-1.88 0.9-3.28 2.09-4.22s2.63-1.75 4.28-2.44z"/>
  <path id="path53852" d="m667.14 383.69l11.87-0.31" class="stroke"/>
  <text y="381.86783" x="666.47864" class="number">1</text>
  <path id="path54773" d="m689.7 370.91l0.04 11.58" class="stroke"/>
  <text y="378.3287" x="692.18933" class="number">2</text>
  <path id="path55694" d="m681.87 419.6s-8.84 0.35-11.54-2.43c-2.59-2.68-2.03-8.72-2.02-11.83" class="stroke"/>
  <path id="path56611" d="m703.35 379.89l9.47 6.56" class="stroke"/>
  <text y="379.57779" x="705.92944" class="number">3</text>
 </g>
<!-- column headers -->
 <text id="colN" y="34.671387" x="38.317238" class="label col">n</text>
 <text id="colw" y="34.671387" x="102.31724" class="label col">w</text>
 <text id="colr" y="34.671387" x="170.31723" class="label col">r</text>
 <text id="coly" y="34.671387" x="234.31723" class="label col">y</text>
 <text id="colm" y="34.671387" x="296.31723" class="label col">m</text>
 <text id="colh" y="34.671387" x="362.31723" class="label col">h</text>
 <text id="coln" y="34.671387" x="426.31723" class="label col">n</text>
 <text id="colt" y="34.671387" x="492.31723" class="label col">t</text>
 <text id="cols" y="34.671387" x="556.31726" class="label col">s</text>
 <text id="colk" y="34.671387" x="618.31726" class="label col">k</text>
<!-- row headers -->
 <text id="rowa" y="90.671387" x="736.31726" class="label row">a</text>
 <text id="rowi" y="170.67139" x="738.31726" class="label row">i</text>
 <text id="rowu" y="252.67139" x="736.31726" class="label row">u</text>
 <text id="rowe" y="332.67139" x="736.31726" class="label row">e</text>
 <text id="rowo" y="410.67139" x="736.31726" class="label row">o</text>
</svg>
