<?xml version="1.0" encoding="utf-8"?>
<!-- Generator: Adobe Illustrator 16.0.0, SVG Export Plug-In . SVG Version: 6.00 Build 0)  -->
<!DOCTYPE svg PUBLIC "-//W3C//DTD SVG 1.1//EN" "http://www.w3.org/Graphics/SVG/1.1/DTD/svg11.dtd">
<svg version="1.1" id="Logo" xmlns="http://www.w3.org/2000/svg" xmlns:xlink="http://www.w3.org/1999/xlink" x="0px" y="0px"
	 width="1000px" height="1000px" viewBox="0 0 1000 1000" enable-background="new 0 0 1000 1000" xml:space="preserve">
<g id="a">
	<path fill="#C70025" d="M408.832,192.238c37.368,4.561,64.712,9.912,82.031,16.064c8.428,2.964,12.646,7.178,12.646,12.646
		c0,4.561-1.143,8.321-3.418,11.279c-4.561,5.469-7.861,13.901-9.912,25.293c-0.684,3.647-1.709,9.912-3.076,18.799
		c-0.913,6.612-1.826,11.963-2.734,16.064c61.523-5.923,122.246-15.723,182.178-29.395c1.821-0.454,3.418-0.684,4.785-0.684
		c3.643,0,6.035,2.622,7.178,7.861c4.556,19.6,6.836,35.435,6.836,47.51c0,7.52-4.902,12.192-14.697,14.014
		c-68.135,13.901-134.326,23.702-198.584,29.395c-2.964,28.711-4.673,52.295-5.127,70.752c28.252-9.57,64.028-14.697,107.324-15.381
		c7.29-19.825,11.162-36.915,11.621-51.27c30.303,9.346,51.04,18.003,62.207,25.977c8.428,5.469,12.646,10.596,12.646,15.381
		c0,2.734-1.367,5.586-4.102,8.545c-2.051,1.826-5.015,6.381-8.887,13.672c48.76,12.988,85.449,35.547,110.059,67.676
		c22.1,28.486,33.154,62.891,33.154,103.223c0,51.729-20.85,95.703-62.549,131.934c-33.271,28.939-77.246,50.697-131.934,65.283
		c-4.785,1.367-8.662,2.051-11.621,2.051c-7.749,0-14.131-5.016-19.141-15.039c-5.015-10.03-18.799-24.492-41.357-43.408
		c25.977-5.469,52.178-13.672,78.613-24.609c21.875-9.111,38.965-17.998,51.27-26.66c37.368-27.115,56.055-62.09,56.055-104.932
		c0-28.252-9.688-51.836-29.053-70.752c-15.039-14.58-34.18-24.834-57.422-30.762c-37.144,70.639-81.235,131.709-132.275,183.203
		c1.367,5.014,5.469,15.609,12.305,31.787c1.367,2.734,2.051,5.127,2.051,7.178c0,3.193-2.51,6.611-7.52,10.254
		c-13.901,10.254-27.915,18.344-42.041,24.268c-2.964,1.596-5.244,2.393-6.836,2.393c-2.28,0-4.673-1.934-7.178-5.811
		c-4.331-7.52-8.203-16.631-11.621-27.344c-48.765,33.725-89.438,50.586-122.021,50.586c-25.522,0-45.235-8.658-59.131-25.977
		c-12.305-15.264-18.457-35.547-18.457-60.84c0-45.572,18.569-90.234,55.713-133.984c29.849-34.863,65.849-62.773,108.008-83.74
		c0.684-25.064,1.821-54.229,3.418-87.5c-17.09,0.684-32.7,1.025-46.826,1.025l-24.951-0.342c-21.191,0-34.521-0.454-39.99-1.367
		c-7.749-0.684-11.963-6.035-12.646-16.064c-0.913-6.152-1.597-15.039-2.051-26.66c-0.684-13.672-1.143-22.559-1.367-26.66
		c21.416,2.51,46.025,3.76,73.828,3.76c4.556,0,25.175-0.224,61.865-0.684c3.872-33.95,5.811-59.473,5.811-76.563
		C411.908,212.975,410.883,202.492,408.832,192.238z M394.818,523.439c-29.395,20.967-52.183,43.979-68.359,69.043
		c-14.585,22.787-21.875,44.551-21.875,65.283c0,8.662,2.617,15.498,7.861,20.508c4.102,4.102,9.229,6.152,15.381,6.152
		c19.595,0,46.597-13.555,81.006-40.674C400.629,594.078,395.956,553.977,394.818,523.439z M472.064,596.926
		c32.129-36.914,59.131-77.246,81.006-120.996c-29.395,0.684-59.248,6.039-89.551,16.064
		C464.203,530.959,467.05,565.939,472.064,596.926z"/>
</g>
</svg>
